<svg xmlns="http://www.w3.org/2000/svg" fill="none" viewBox="0 0 286 286">
  <path fill="#37474F" d="M257.09 234.96c31.35-41.77 34.08-123.08.2-178.91C216.2-11.68 125.55-6.37 59.54 45.87-2.76 95.17-11.69 207.63 37.8 248c2.6 2.12 5.3 4.12 8.06 6.01 2.69 1.9 5.56 3.75 8.63 5.52 40.08 23.15 100.85 27.07 147.95 11.78a136.4 136.4 0 0 0 22.22-8.9 95.13 95.13 0 0 0 16.43-10.76c6.73-5.2 12.06-10.83 16-16.69Z"/>
  <path fill="#000" d="M155.85 124.04v80.88H11.14c-5.8-20.05-6.7-43.3-2.84-66.37 22.65-18.52 63.88-51.88 66.43-51.75 2.84.16 8.18 4.64 8.18 4.64s17.38-18.37 20.76-18.8c2.15-.28 22.45 20.35 37.09 35.56 8.5 8.83 15.09 15.84 15.09 15.84Z"/>
  <path fill="#263238" d="M99.85 79.87c-2.3 2.98 2.23.67 4.4 1.34 2.18.67-8.02 8.05-6.21 9.8 1 .98 7.52-1.64 6.3.75-.4.76-7.1 6.26-3.98 6.68 1.87.25 4.43-.76 3.36 2.02-1.17 3.01-3.15 4.9-3.15 4.9L82.91 91.45s16.6-17.56 20.5-18.76l.26-.06c.72.25-1.53 4.25-3.82 7.24Z"/>
  <path fill="#455A64" d="M105.03 83.83c-2.14.18-5.62 2.34-7.08.98-1.45-1.37-4.72-3.8-6.15-2.4 4.83-4.71 10.15-9.56 11.87-9.78 1.14-.14 7.34 5.55 15.1 13.2-3.26-2-5.5.44-7.43.97-1.94.54-4.16-3.14-6.3-2.97Z"/>
  <path fill="#263238" d="M77.07 115.59c-1.24 1.52-49.84 49.64-69.96 69.54a161.82 161.82 0 0 1 1.2-46.58c22.66-18.53 63.88-51.88 66.42-51.74.11 0 .23.02.35.04 1.14.53-1.8 4.18-2.41 5.52-.67 1.44 5.63 0 5.89.97.26.96-8.54 7.62-8.64 8.8-.1 1.19 7.9-1.1 8.14-.05.24 1.07-9.12 8.66-9.25 10.88-.07 1.21 3.37.3 6.04-.68 1.85-.69 4.92 0 2.22 3.3Z"/>
  <path fill="#455A64" d="m82.91 91.44 6.58 5.19c-1.99-1.57-3.79.97-6.58.86-2.79-.1-4.35-2.6-7.02-1.81-2.2.64-3.06 1.63-4.6 1.89-2.84.47-2.05-1.14-3.66-1.5-1.08-.24-6.62.64-8.87 1.62 8.07-6.21 14.68-10.96 15.97-10.89.31.02.65.1 1.01.2a10.9 10.9 0 0 1 2.46 1.12 33.54 33.54 0 0 1 4.71 3.32Z"/>
  <path fill="#000" d="M272.66 204.92h-160v-71.15s14.27-13.23 28.1-25.57c12.1-10.8 23.86-20.9 25.34-20.83 2.41.13 16.34 10.93 16.34 10.93s16.22-15.23 19.1-15.6c2.33-.3 60.16 45.22 80.06 60.9.55 21.75-2.53 42.98-8.94 61.32Z"/>
  <path fill="#263238" d="M198.29 88.85c-1.95 2.54 1.9.57 3.75 1.14 1.84.57-6.45 5.59-4.91 7.08.85.83 5-1.16 3.95.86-1.04 2.02-7.8 8.1-7.8 8.1l-10.84-7.73S198 83.77 201.32 82.75l.22-.05c.6.2-1.3 3.61-3.25 6.15Zm-33.26 4.07c-.57 1.23 4.1-.82 4.32 0 .22.83-6.33 7.8-6.41 8.81-.09 1.02 5.79-2.26 6-1.36.2.9-7.76 7.35-7.87 9.24-.06 1.03 2.86.25 5.13-.58 1.58-.58 4.18 0 1.9 2.8-1.35 1.65-55 49.85-55.45 50.24v-28.3s23.45-21.67 30.78-28.22c9.53-8.5 20.88-18.28 22.67-18.18.1 0 .2.03.32.06.9.52-.87 4.37-1.4 5.5Z"/>
  <path fill="#455A64" d="M166.1 87.37c1.52.08 7.55 4.35 11.84 7.53-1.22.26-3.3 1.61-4.88 1.55-2.38-.08-4.19-2.36-5.88-1.38-1.69.99-3.65 3.45-5.82 3.82-3.49.6-4.02-.92-5.89-.47-1.87.45-4.75.71-4.76.71 7.31-6.34 14.05-11.83 15.4-11.76Zm36.6 4.85c-1.83.15-4.79 1.99-6.02.83-1.24-1.16-2.82-2.05-4.32-1.6-1.5.46-3.72 1.21-3.72 1.21h-.02c4.91-4.38 11.22-9.74 12.92-9.96.94-.12 7 4.2 14.73 10.08-3.87-.8-4.72 2.6-7.23 2.01-2.6-.6-4.52-2.72-6.34-2.57Z"/>
  <path fill="#000" d="M272.66 204.92c-3.94 11.3-9.16 21.5-15.57 30.04-3.94 5.86-9.28 11.48-16 16.69a94.78 94.78 0 0 1-16.45 10.76c-6.5 3.36-14 6.36-22.21 8.9-47.1 15.29-107.87 11.37-147.95-11.78a108.97 108.97 0 0 1-8.63-5.52A118.34 118.34 0 0 1 37.8 248c-12.7-10.37-21.57-25.5-26.65-43.08h261.52Z"/>
  <path fill="#BA68C8" d="M251.6 147.87c3.56 2.63 19.88 2.27 23.55 0 .32-1.42.16-4.59-.35-8.75l-4.38 2.36 3.96-5.55a262 262 0 0 0-2.33-13.47l-2.7 1.51 2.3-3.47-.55-2.69-3.1 1.52 2.66-3.55a272.5 272.5 0 0 0-2.47-10.38l-2.46.72 1.9-2.83c-.86-3.2-1.72-6.03-2.53-8.28-.3-.8-1.01-1.2-1.72-1.2-.72 0-1.44.4-1.73 1.2a130.86 130.86 0 0 0-3.44 11.73l2.18 3.66-2.53-2.24a269.5 269.5 0 0 0-1.55 6.59l3.5 6.25-4.21-2.95c-.7 3.3-1.35 6.62-1.92 9.79l3.42 3.4-3.8-1.22-.19 1.14 3.5 4.72-3.91-2.14c-1.05 6.75-1.55 12.15-1.1 14.13Z"/>
  <path fill="#fff" d="M251.6 147.87c3.56 2.63 19.88 2.27 23.55 0 .32-1.42.16-4.59-.35-8.75l-4.38 2.36 3.96-5.55a262 262 0 0 0-2.33-13.47l-2.7 1.51 2.3-3.47-.55-2.69-3.1 1.52 2.66-3.55a272.5 272.5 0 0 0-2.47-10.38l-2.46.72 1.9-2.83c-.86-3.2-1.72-6.03-2.53-8.28-.3-.8-1.01-1.2-1.72-1.2-.72 0-1.44.4-1.73 1.2a130.86 130.86 0 0 0-3.44 11.73l2.18 3.66-2.53-2.24a269.5 269.5 0 0 0-1.55 6.59l3.5 6.25-4.21-2.95c-.7 3.3-1.35 6.62-1.92 9.79l3.42 3.4-3.8-1.22-.19 1.14 3.5 4.72-3.91-2.14c-1.05 6.75-1.55 12.15-1.1 14.13Z" opacity=".2"/>
  <path fill="#37474F" d="m262.51 132.72-4.97-9.35 5.06 6.2.77-29.03.61 17.66 3.54-5.11-3.43 8.3.62 17.89 6.74-6.22-6.65 8.82.56 24.56c0 1.04-3.54 1.04-3.54 0l.7-33.72Z"/>
  <path fill="#BA68C8" d="M233.6 119.55c3.77 2.78 21.06 2.4 24.95 0 .27-1.17.22-3.47-.06-6.52l-4.5 1.62 4.18-4.49a238.1 238.1 0 0 0-2.15-13.66l-2.54 1.05 2.2-2.8-.28-1.47-6.03 3.06 5.21-7.1c-.8-3.9-1.68-7.81-2.58-11.47l-3.92 3.27 3.4-5.36-.75-2.87-3.47 1.89 2.84-4.17a104.6 104.6 0 0 0-2.2-6.99 1.9 1.9 0 0 0-1.83-1.28 1.9 1.9 0 0 0-1.82 1.28c-1.06 2.92-2.2 6.8-3.33 11.16l1.77 4.07-2.5-1.15c-.28 1.1-.55 2.25-.82 3.4 1.19 3.63 2.67 8.18 2.67 8.28l-3.24-5.79c-3.4 15.12-6.11 32.06-5.2 36.04Z"/>
  <path fill="#000" d="M233.6 119.55c3.77 2.78 21.06 2.4 24.95 0 .27-1.17.22-3.47-.06-6.52l-4.5 1.62 4.18-4.49a238.1 238.1 0 0 0-2.15-13.66l-2.54 1.05 2.2-2.8-.28-1.47-6.03 3.06 5.21-7.1c-.8-3.9-1.68-7.81-2.58-11.47l-3.92 3.27 3.4-5.36-.75-2.87-3.47 1.89 2.84-4.17a104.6 104.6 0 0 0-2.2-6.99 1.9 1.9 0 0 0-1.83-1.28 1.9 1.9 0 0 0-1.82 1.28c-1.06 2.92-2.2 6.8-3.33 11.16l1.77 4.07-2.5-1.15c-.28 1.1-.55 2.25-.82 3.4 1.19 3.63 2.67 8.18 2.67 8.28l-3.24-5.79c-3.4 15.12-6.11 32.06-5.2 36.04Z" opacity=".2"/>
  <path fill="#37474F" d="m245.16 103.5-5.26-9.91 5.35 6.56.82-30.75.65 18.71 3.75-5.41-3.64 8.8.66 18.94 7.14-6.58-7.05 9.34.6 30.64c0 1.11-3.75 1.11-3.75 0l.73-40.34Z"/>
  <path fill="#BA68C8" d="M33.75 123.02c3.92 2.8 21.89 2.42 25.94 0 .21-.94.23-2.6.07-4.8l-6.12 2.72 5.86-5.62c-.35-3.15-.92-6.98-1.66-11.13l-2.23 1.16 2.04-2.28a325 325 0 0 0-1.4-7.24l-3.64 2.84 3.25-4.72-.32-1.54-4.99 3.99 4.23-7.46c-.78-3.44-1.6-6.83-2.43-10l-3.26 2.4c.08-.14 1.38-2.28 2.69-4.51a121.36 121.36 0 0 0-3.16-10.15 1.99 1.99 0 0 0-1.9-1.28c-.8 0-1.58.43-1.9 1.28-.96 2.57-1.98 5.86-3 9.58l1.98 4.23-2.37-2.81a271.7 271.7 0 0 0-1.9 7.5l4.27 9.09-5.04-5.77-.23 1.07 2.05 4.7-2.39-3.2c-.87 3.97-1.66 7.95-2.35 11.72l5.91 6.89-6.4-4.13-.42 2.56 3 3.2-3.35-.93c-.89 6.05-1.27 10.78-.83 12.64Z"/>
  <path fill="#fff" d="M33.75 123.02c3.92 2.8 21.89 2.42 25.94 0 .21-.94.23-2.6.07-4.8l-6.12 2.72 5.86-5.62c-.35-3.15-.92-6.98-1.66-11.13l-2.23 1.16 2.04-2.28a325 325 0 0 0-1.4-7.24l-3.64 2.84 3.25-4.72-.32-1.54-4.99 3.99 4.23-7.46c-.78-3.44-1.6-6.83-2.43-10l-3.26 2.4c.08-.14 1.38-2.28 2.69-4.51a121.36 121.36 0 0 0-3.16-10.15 1.99 1.99 0 0 0-1.9-1.28c-.8 0-1.58.43-1.9 1.28-.96 2.57-1.98 5.86-3 9.58l1.98 4.23-2.37-2.81a271.7 271.7 0 0 0-1.9 7.5l4.27 9.09-5.04-5.77-.23 1.07 2.05 4.7-2.39-3.2c-.87 3.97-1.66 7.95-2.35 11.72l5.91 6.89-6.4-4.13-.42 2.56 3 3.2-3.35-.93c-.89 6.05-1.27 10.78-.83 12.64Z" opacity=".35"/>
  <path fill="#37474F" d="m45.77 108.25-5.47-10.3 5.56 6.82.86-31.95.67 19.44 3.9-5.63-3.78 9.14.67 19.7 7.43-6.85-7.33 9.7.62 27.48c0 1.15-3.89 1.15-3.89 0l.76-37.56Z"/>
  <path fill="#BA68C8" d="M14.65 150.86c3.74 2.3 20.35 2.67 23.98 0 .33-1.45.16-4.7-.36-8.97l-4.7 2 4.33-4.8c-.41-2.94-.95-6.2-1.57-9.61l-2.88 1.26 2.69-2.28-.45-2.39-4.81 2.77 4.32-5.23c-.54-2.66-1.1-5.32-1.7-7.93L31.02 117l2.02-3.49c-.61-2.54-1.8-7.1-2.41-9.32l-2.53 2 2.14-3.38a94.64 94.64 0 0 0-1.84-5.77 1.84 1.84 0 0 0-1.76-1.23c-.73 0-1.46.42-1.75 1.23-.9 2.5-1.87 5.73-2.83 9.36l1.95 4.45-2.6-1.97a307.5 307.5 0 0 0-2 8.42l3.29 8.3-3.94-5.28-.69 3.32 2.35 4.6-2.69-2.87c-.64 3.28-1.22 6.5-1.71 9.5l5.36 8.43-5.8-5.55c-.14.9-.27 1.78-.38 2.63l4.05 4.97-4.37-2.34c-.42 3.71-.53 6.52-.23 7.84Z"/>
  <path fill="#fff" d="M14.65 150.86c3.74 2.3 20.35 2.67 23.98 0 .33-1.45.16-4.7-.36-8.97l-4.7 2 4.33-4.8c-.41-2.94-.95-6.2-1.57-9.61l-2.88 1.26 2.69-2.28-.45-2.39-4.81 2.77 4.32-5.23c-.54-2.66-1.1-5.32-1.7-7.93L31.02 117l2.02-3.49c-.61-2.54-1.8-7.1-2.41-9.32l-2.53 2 2.14-3.38a94.64 94.64 0 0 0-1.84-5.77 1.84 1.84 0 0 0-1.76-1.23c-.73 0-1.46.42-1.75 1.23-.9 2.5-1.87 5.73-2.83 9.36l1.95 4.45-2.6-1.97a307.5 307.5 0 0 0-2 8.42l3.29 8.3-3.94-5.28-.69 3.32 2.35 4.6-2.69-2.87c-.64 3.28-1.22 6.5-1.71 9.5l5.36 8.43-5.8-5.55c-.14.9-.27 1.78-.38 2.63l4.05 4.97-4.37-2.34c-.42 3.71-.53 6.52-.23 7.84Z" opacity=".2"/>
  <path fill="#37474F" d="m20.41 130.32 5.04 7.12.52-15.37-2.71-9.2 2.81 6.28.57-16.47.64 23.77 2.82-3.37-2.74 6.5.36 13.48 5.85-5.81-5.74 9.76.39 17.5c0 1.07-3.6 1.07-3.6 0l.67-22.48-4.88-11.71Z"/>
  <path fill="#BA68C8" d="M54.6 127.09c3.15 1.94 17.1 2.25 20.14 0 .24-1.02.17-3.1-.1-5.86l-3.13.6 2.9-2.52c-.13-1.07-.28-2.21-.46-3.4l-5.79 2.3 5.51-4.08c-.58-3.68-1.34-7.78-2.2-11.86l-4.48 3.58 4.06-5.54c-.35-1.63-.72-3.25-1.1-4.84l-3.63 2.28 3.2-4.09c-.34-1.42-.7-2.79-1.04-4.1l-2.16 2.36 1.43-4.99a81.9 81.9 0 0 0-1.6-5.03 1.54 1.54 0 0 0-1.47-1.03c-.62 0-1.23.34-1.48 1.03-.85 2.37-1.78 5.52-2.7 9.07l1.64 3.5L60 93c-.69 2.76-1.36 5.69-1.98 8.64l3.28 6.8-3.82-4.19c-.28 1.42-.56 2.83-.81 4.22l2.12 3.19-2.45-1.43c-.52 2.97-.97 5.8-1.3 8.27l3.42 5.41-3.8-2.05c-.23 2.45-.26 4.3-.05 5.24Z"/>
  <path fill="#000" d="M54.6 127.09c3.15 1.94 17.1 2.25 20.14 0 .24-1.02.17-3.1-.1-5.86l-3.13.6 2.9-2.52c-.13-1.07-.28-2.21-.46-3.4l-5.79 2.3 5.51-4.08c-.58-3.68-1.34-7.78-2.2-11.86l-4.48 3.58 4.06-5.54c-.35-1.63-.72-3.25-1.1-4.84l-3.63 2.28 3.2-4.09c-.34-1.42-.7-2.79-1.04-4.1l-2.16 2.36 1.43-4.99a81.9 81.9 0 0 0-1.6-5.03 1.54 1.54 0 0 0-1.47-1.03c-.62 0-1.23.34-1.48 1.03-.85 2.37-1.78 5.52-2.7 9.07l1.64 3.5L60 93c-.69 2.76-1.36 5.69-1.98 8.64l3.28 6.8-3.82-4.19c-.28 1.42-.56 2.83-.81 4.22l2.12 3.19-2.45-1.43c-.52 2.97-.97 5.8-1.3 8.27l3.42 5.41-3.8-2.05c-.23 2.45-.26 4.3-.05 5.24Z" opacity=".2"/>
  <path fill="#37474F" d="m65.42 114.14 4.24-8-4.32 5.3-.66-24.81-.52 15.1-3.03-4.37 2.94 7.1-.53 15.28-5.76-5.31 5.68 7.54-.48 24.03c0 .89 3.02.89 3.02 0l-.58-31.86Z"/>
  <path fill="#BA68C8" d="M214.8 127.09c3.14 1.94 17.08 2.25 20.13 0 .23-1.02.17-3.1-.11-5.86l-3.12.6 2.9-2.52c-.13-1.07-.29-2.21-.47-3.4l-5.78 2.3 5.5-4.08c-.58-3.68-1.34-7.78-2.2-11.86l-4.47 3.58 4.06-5.54c-.35-1.63-.72-3.25-1.1-4.84l-3.63 2.28 3.2-4.09-1.04-4.1-2.16 2.36 1.43-4.99c-.55-1.9-1.09-3.6-1.6-5.03a1.54 1.54 0 0 0-1.47-1.03c-.62 0-1.23.34-1.48 1.03a106.1 106.1 0 0 0-2.7 9.07l1.63 3.5-2.14-1.48a287.2 287.2 0 0 0-1.98 8.64l3.3 6.8-3.83-4.19c-.29 1.42-.56 2.83-.81 4.22l2.12 3.19-2.45-1.43c-.53 2.97-.97 5.8-1.3 8.27l3.42 5.41-3.8-2.05c-.23 2.45-.27 4.3-.06 5.24Z"/>
  <path fill="#fff" d="M214.8 127.09c3.14 1.94 17.08 2.25 20.13 0 .23-1.02.17-3.1-.11-5.86l-3.12.6 2.9-2.52c-.13-1.07-.29-2.21-.47-3.4l-5.78 2.3 5.5-4.08c-.58-3.68-1.34-7.78-2.2-11.86l-4.47 3.58 4.06-5.54c-.35-1.63-.72-3.25-1.1-4.84l-3.63 2.28 3.2-4.09-1.04-4.1-2.16 2.36 1.43-4.99c-.55-1.9-1.09-3.6-1.6-5.03a1.54 1.54 0 0 0-1.47-1.03c-.62 0-1.23.34-1.48 1.03a106.1 106.1 0 0 0-2.7 9.07l1.63 3.5-2.14-1.48a287.2 287.2 0 0 0-1.98 8.64l3.3 6.8-3.83-4.19c-.29 1.42-.56 2.83-.81 4.22l2.12 3.19-2.45-1.43c-.53 2.97-.97 5.8-1.3 8.27l3.42 5.41-3.8-2.05c-.23 2.45-.27 4.3-.06 5.24Z" opacity=".35"/>
  <path fill="#37474F" d="m225.6 114.14 4.25-8-4.32 5.3-.67-24.81-.52 15.1-3.02-4.37 2.93 7.1-.53 15.28-5.76-5.31 5.69 7.54-.48 24.03c0 .89 3.02.89 3.02 0l-.59-31.86Z"/>
  <path fill="#455A64" d="M147.2 210.59h124.85c3.5 0 5.51-4.22 3.11-6.79l-.3-.3c4.08-1.6 3.83-7.4 1.33-8.6 3.78-2.69 3.75-9.67-1.05-11.16 3.31-3.33 2.31-10.48-2.5-10.92 1.18-2.93.6-6.95-3.16-7.69 1.2-3.6-2.14-6.09-5.48-4.8-.14-3.79-5.51-4-6.72-1.34.06-1.47-2.13-4.19-3.54-4.19 2.43-1.9 1.76-5.73-.33-6.23 2.84-2.16 1.32-7.08-2.07-7.03 2.27-3.59-2.58-7.33-5.6-6.23 1.7-4.03-6.27-7.24-8-2.97.07-.16-.67-.87-.8-.98-.3-.3-.65-.55-1.02-.76a6.36 6.36 0 0 0-2.5-.75c-1.8-.18-3.7.27-5.22 1.24a6.18 6.18 0 0 0-2.01 2.01c-.24.4-.43.84-.55 1.29-.16.63.01 1.24-.16 1.86a4.12 4.12 0 0 0-3.04.4c-.9.52-1.6 1.4-1.89 2.41-.28-.96-.6-1.92-1.13-2.76a4.72 4.72 0 0 0-1.8-1.71c-.8-.42-1.5-.94-2.46-.87 2.9-3.72-2.98-8.05-6.1-5.1-1.46-3.41-6.65-2.7-6.3 1.31-1.16-2.08-3.42-1.94-5.27-.82-2.56 1.54-2.22 4.28-.81 6.5-1.07-1.27-4.31-1.97-4.8.13-.75-1.12-2.65-1.4-3.66-.42-.96-3.44-7.13-3.9-8.3.35-2.38-1.37-4.89 1.3-4.28 3.49l-28.44-.42v71.85Z"/>
  <path fill="#37474F" d="M240.89 143.76a3.85 3.85 0 0 0-6.14.53 3.83 3.83 0 0 0-6.23 2.21 4.6 4.6 0 0 1 7.61.9c.02-.2 0-.42-.02-.65a3.82 3.82 0 0 0-.52-1.48 4.57 4.57 0 0 1 5.69-.97c-.1-.2-.24-.37-.4-.54Zm-40.01-6.63a2.97 2.97 0 0 1 4.74.42 2.95 2.95 0 0 1 4.8 1.7 3.54 3.54 0 0 0-5.87.7 2.94 2.94 0 0 1 .42-1.65l-.3-.33a3.52 3.52 0 0 0-4.09-.43c.09-.14.19-.27.3-.4Zm45.38 21.56c.44-.6 2.38-.37 3-.25 1.12.21 2.14.9 2.76 1.85.7 1.06.86 2.45.45 3.66 1.27-.3 2.68.21 3.47 1.24s.91 2.52.3 3.66c2.48-.55 6.29-.12 8.22 1.76 1.07 1.02 1.47 2.8.67 4.04.15-.24 2.1-.26 3.7.74a3.7 3.7 0 0 1 1.66 2.93 6.1 6.1 0 0 1-1.14 3.7c.13-.26 1.63.8 1.76.92a3.8 3.8 0 0 1 1.06 1.64c.34 1.16-.56 2.54-1.8 2.57a5.6 5.6 0 0 1 2.48 1.95c.58.9.77 2.1.28 3.04-.65 1.25-2.17 1.71-3.53 2.05a3.9 3.9 0 0 1 .97 3.45c-.32 1.2-1.52 2.18-2.75 2.03a3.8 3.8 0 0 1 1.6 4.05 3.8 3.8 0 0 1-3.35 2.78c.69-.05 1.2 1.39 1.38 1.84.32.83.75 1.41 1.16 2.25h3.44c3.5 0 5.51-4.22 3.11-6.79l-.3-.3c4.08-1.6 3.83-7.4 1.33-8.6 3.78-2.69 3.75-9.67-1.05-11.16 3.31-3.33 2.31-10.48-2.5-10.92 1.18-2.93.6-6.95-3.16-7.69 1.2-3.6-2.14-6.09-5.48-4.8-.14-3.79-5.51-4-6.72-1.34.06-1.47-2.13-4.19-3.54-4.19 2.43-1.9 1.76-5.73-.33-6.23 2.84-2.16 1.32-7.08-2.07-7.03 1.8-2.85-.89-5.8-3.58-6.34.98 1.1 1.87 2.54 1.16 4.05-.64 1.34-2.37 1.57-3.51 2.13 2.72.92 3.97 3.66 1.94 6.05 2.77.35 3.13 4.04 2.02 5.53-.68-.6-2.1-.72-3.13-.53-1.39.27-2.14.97-3.39 2.37 2.47-1.9 4.97 1.74 3.4 3.88Z"/>
  <path fill="#455A64" d="M9.8 194.9c-2.5 1.2-2.74 7 1.34 8.6l-.3.3c-2.4 2.57-.4 6.79 3.11 6.79H138.8v-71.85l-28.44.41c.61-2.18-1.9-4.85-4.28-3.48-1.17-4.24-7.34-3.8-8.3-.35-1-.97-2.92-.7-3.66.42-.49-2.1-3.73-1.4-4.8-.13 1.41-2.22 1.75-4.96-.8-6.5-1.86-1.12-4.12-1.27-5.28.82.34-4-4.84-4.72-6.3-1.3-3.12-2.96-9 1.37-6.1 5.09-3.06-.2-5.4 4.74-2.07 6.08a1.93 1.93 0 0 0-1.61 2.53c-.37-1.62-2.33-2.86-4.07-1.76.85-2.45-.2-4.07-2.7-3.76 1.4-6.54-9.08-9.5-12.13-4.47-1.73-4.27-9.71-1.06-8 2.97-3.02-1.1-7.87 2.64-5.6 6.23-3.39-.05-4.91 4.87-2.07 7.03-2.09.5-2.76 4.32-.33 6.23-1.4 0-3.6 2.72-3.54 4.2-1.2-2.68-6.58-2.46-6.72 1.33-3.34-1.29-6.67 1.2-5.48 4.8-3.77.74-4.34 4.76-3.17 7.7-4.8.43-5.8 7.58-2.5 10.9-4.8 1.5-4.82 8.48-1.04 11.18Z"/>
  <path fill="#37474F" d="M45.11 143.76a3.85 3.85 0 0 1 6.14.53 3.83 3.83 0 0 1 6.23 2.21 4.6 4.6 0 0 0-7.61.9c-.02-.2 0-.42.02-.65a3.9 3.9 0 0 1 .52-1.48 4.56 4.56 0 0 0-5.69-.97c.1-.2.24-.37.4-.54Zm40.01-6.63a2.97 2.97 0 0 0-4.74.42 2.95 2.95 0 0 0-4.8 1.7 3.54 3.54 0 0 1 5.87.7 2.96 2.96 0 0 0-.42-1.65l.3-.33a3.52 3.52 0 0 1 4.09-.43 2.47 2.47 0 0 0-.3-.4ZM9.8 194.9c-2.5 1.2-2.74 7 1.34 8.6l-.3.3c-2.4 2.57-.4 6.79 3.11 6.79h3.44a4.76 4.76 0 0 1 3.94-2.79c-1.13-.97-2.83-1.96-3.51-3.33-.24-.49-.74-3.75.4-3.74a3.3 3.3 0 0 1-3.15-3.01c-.07-1.33.68-2.56 1.4-3.68a4.99 4.99 0 0 1-3.07-3.53 4.99 4.99 0 0 1 1.3-4.5c.13-.14.29-.28.35-.47.17-.47-.26-.91-.6-1.29a4.26 4.26 0 0 1-.8-4.2 4.26 4.26 0 0 1 3.31-2.7 4.2 4.2 0 0 1 .38-4.22 4.2 4.2 0 0 1 3.91-1.64c-.92-1.46-.13-3.55 1.34-4.46 1.47-.9 3.35-.85 5-.37-.4-1.3.27-2.79 1.4-3.52a4.35 4.35 0 0 1 3.92-.26c-.3-2.4 1.67-4.03 3.82-4.44.63-.12 2.58-.36 3.01.24-1.56-2.14.94-5.79 3.41-3.89-1.25-1.4-2-2.1-3.4-2.36-1.02-.2-2.44-.06-3.12.53-1.11-1.5-.75-5.18 2.02-5.53-2.03-2.4-.78-5.13 1.94-6.05-1.14-.56-2.87-.8-3.5-2.14-.72-1.5.17-2.95 1.15-4.04-2.7.54-5.38 3.49-3.58 6.34-3.39-.05-4.91 4.87-2.07 7.03-2.09.5-2.76 4.32-.33 6.23-1.4 0-3.6 2.72-3.54 4.2-1.2-2.68-6.58-2.46-6.72 1.33-3.34-1.3-6.67 1.2-5.48 4.8-3.77.74-4.34 4.76-3.17 7.7-4.8.43-5.8 7.58-2.5 10.9-4.8 1.5-4.82 8.48-1.04 11.18Z"/>
  <path fill="#37474F" d="M143.32 281.12c72.17 0 130.67-32.3 130.67-72.15 0-39.84-58.5-72.14-130.67-72.14-72.16 0-130.67 32.3-130.67 72.14 0 39.85 58.5 72.15 130.67 72.15Z"/>
  <path fill="#455A64" d="M26.86 56.4c0-1.43-1.49-2.42-3.17-2.58-1.98-.2-3.39.73-3.44 2.37-1.3-.56-2.66-.2-2.56 1.3-.33-.42-1.6-.4-2.05-.29a1.8 1.8 0 0 0-1.13 1.01 1.4 1.4 0 0 0-.11.77c-.76-.26-2.48-.42-2.9.3-.77 1.3 2.28 1.34 2.9.95.13 1 3.41 1.17 4.21.24.62.66 1.51.8 2.48.86 1.62.1 2.62-.47 3.89-1.15 1.37 1.23 3.76 1.25 5-.16.32.32 1.19.42 1.89.24.46-.12.56-.32.56-.32.25.12.54.2.85.27.9.2 2.57-.02 1.87-.87-.24-.29-1.12-.47-1.49-.38-.39-.81-1.97-1.58-2.87-.9-.04-.98-.9-1.75-2.1-1.94-.4-.07-1.37-.13-1.83.27Zm24.71-13.48c-.47-.23-1.03-.25-1.44-.28-.47-.04-.61-.14-.7-.24a3.35 3.35 0 0 0-4.14-1.29 2.63 2.63 0 0 0-3.12-1.85c.05-1.52-1.8-3.16-3.47-3.53-1.6-.36-3-.21-3.9.9-.98-2.01-4.81-2.57-6.88-1.52-1.2.61-2.2 1.24-2.7 2.39a4.99 4.99 0 0 0-.45 2.27c-.8-.74-2.42-.94-3.5-.5-1.16.47-1.25 1.39-1.3 2.32a4.02 4.02 0 0 0-2.13-.04c-.73.23-1.15.83-1.05 1.32-.58-.03-1.96.46-1.8 1.1.18.72 1.75.65 2.34.63.49-.02 1.12-.16 1.65-.27.16.08.59.17.86.17 1-.01 1.43-.46 1.59-.85.49 1.08 2.23 1.9 3.47 2.24 2.32.62 5.6.24 7.03-1.58.15.32.4.63.7.88.56.5 1.33.84 2.14.92.96.09 3.51.22 4.24-1.37.5 1.05 2.78 1.54 4.52 1.28.64-.1 1.37-.33 1.94-.62.45-.22.7-.45 1.11-.7.34-.21.5-.21.95-.07a5.4 5.4 0 0 0 3.78 0c.97-.43 1.17-1.28.26-1.71Z"/>
  <path fill="#BA68C8" d="M89.36 61.7A26.5 26.5 0 1 0 82.9 9.1a26.5 26.5 0 0 0 6.47 52.61Z" opacity=".15"/>
  <path fill="#BA68C8" d="M89.34 57.34a22.18 22.18 0 1 0-6.44-43.89 22.18 22.18 0 0 0 6.44 43.9Z" opacity=".15"/>
  <path fill="#BA68C8" d="M90.2 52.66a17.74 17.74 0 1 0-8.16-34.54 17.74 17.74 0 0 0 8.16 34.54Z"/>
  <path fill="#fff" d="M90.2 52.66a17.74 17.74 0 1 0-8.16-34.54 17.74 17.74 0 0 0 8.16 34.54Z" opacity=".95"/>
  <path fill="#BA68C8" d="M79.58 43.9c.04.44.32.91.76.98.46.06 1.03-.31 1.36.02.26.26.09.7.16 1.06.12.63 1.16.78 1.46.21.13-.25.12-.55.25-.8a.76.76 0 0 1 .95-.3c.33.15.5.58.38.92-.13.37-.53.57-.83.83-.35.3-.59.76-.53 1.21.07.46.5.86.96.8.27-.03.5-.21.76-.31a1.4 1.4 0 0 1 1.58.43c.14.17.23.37.37.54.43.5 1.27.52 1.77.1.5-.43.64-1.2.4-1.8-.11-.26-.29-.5-.39-.76-.19-.53-.06-1.18.37-1.53.43-.35 1.16-.3 1.49.15.29.4.23.94.36 1.41.13.47.73.9 1.08.55.28-.28.1-.85.43-1.09.29-.2.7.05.82.38s.06.7.09 1.05c.03.34.2.74.55.8.4.06.71-.36.86-.74.14-.38.28-.84.66-.98.38-.15.81.09 1.2-.02.96-.28.5-2.02 1.37-2.5.56-.3 1.25.13 1.86-.02.4-.1.7-.45 1.08-.64.2-.1.4-.15.62-.2a17.67 17.67 0 0 0 1.9-10.5 5.53 5.53 0 0 0-1.07-1.95c-.49-.55-1.12-.98-1.53-1.59-.31-.46-.49-1-.83-1.44-.34-.44-.95-.75-1.45-.5-.37.17-.56.63-.5 1.05.07.4.34.76.67 1.01.3.23.67.4.81.75.14.33 0 .74-.29.96-.28.22-.68.26-1.03.15-.6-.18-.2-.72-.07-1.1.1-.27.07-.62-.18-.74-.24-.12-.52.07-.76.19-.2.1-.4.14-.62.15-.1 0-.19 0-.27-.05-.27-.13-.25-.52-.11-.79.14-.26.37-.49.41-.79.06-.34-.17-.69-.47-.87-.3-.17-.66-.22-1.01-.23-.49-.01-.67-.02-1.05-.35-.28-.25-.5-.57-.81-.8a2 2 0 0 0-2.04-.18 2 2 0 0 0-1.09 1.72c0 .25.03.53-.12.72-.11.14-.29.2-.44.3-.58.39-.47 1.45.19 1.7.6.23 1.28-.1 1.9-.08 1.03.02 1.09 1.24.07 1.39-.3.04-.88-.06-1.35-.02-.43.04-.77.2-.74.72.02.5.7 1 .36 1.38-.16.2-.47.16-.68.03-.2-.14-.35-.35-.53-.53a1.2 1.2 0 0 0-1.03-.32c-.36.1-.65.48-.55.84.1.37.54.66.42 1.02-.1.3-.54.33-.82.18-.28-.16-.48-.43-.76-.59-.64-.36-1.5.02-1.95.6-.44.57-.54 1.58.12 1.86.4.18.87-.02 1.3-.07.44-.04 1.02.26.9.68-.1.28-.43.4-.62.62-.26.31-.18.82.1 1.1.28.3.7.42 1.12.43 1 .02 2.07-.68 2.16-1.68.06-.55-.16-1.18.19-1.61.24-.3.68-.37 1.07-.35.35.02.72.08 1 .29.3.2.49.57.4.91-.08.34-.38.56-.6.83-.22.27-.33.72-.05.93.18.13.45.1.64.2.38.23.2.88-.2 1.06-.41.18-.87.06-1.3-.04-.43-.1-.92-.14-1.26.14-.5.4-.31 1.21.1 1.7.22.27.51.54.48.89-.02.26-.23.47-.47.56a1.04 1.04 0 0 1-1.34-.75c-.04-.23 0-.47-.01-.7a1.35 1.35 0 0 0-.88-1.22c-.5-.16-1.13.1-1.3.61-.1.29-.05.62-.17.9-.24.53-1.1.57-1.46.11-.36-.46-.18-1.2.3-1.54.39-.26 1-.4 1.04-.87a.65.65 0 0 0-.15-.44c-.4-.53-1.4-.39-1.64.24-.06.16-.08.35-.19.49-.37.47-1.35 0-1.62.52-.14.26.02.6-.12.86-.16.3-.59.3-.93.35-.83.12-1.5.95-1.44 1.8ZM68.74 31.85c.22-.03.45-.12.66-.2.38-.15.89-.25 1.16.06.17.2.17.48.3.7.2.38.7.5 1.1.36.4-.14.68-.5.83-.9.13-.35.18-.75.44-1.03a.89.89 0 0 1 1.05-.16c.34.19.51.62.4.99-.14.5-.7.77-.97 1.24a1.1 1.1 0 0 0 .25 1.37c.4.3 1.08.19 1.32-.26.2-.39.15-.99.56-1.14.5-.2.83.54 1.28.84.36.26.92.18 1.2-.17a.93.93 0 0 0-.06-1.21c-.17-.18-.43-.29-.53-.52-.2-.46.43-.9.92-.8.5.11.86.5 1.3.75.72.4 1.64.36 2.33-.07.24-.15.45-.36.56-.62.28-.69-.24-1.56.16-2.18a.88.88 0 0 1 1.1-.3c.37.18.56.67.41 1.06-.15.4-.57.63-.78 1-.34.62.04 1.45.65 1.8.62.35 1.37.34 2.07.24.23-.03.48-.08.65-.25.46-.48-.18-1.25-.1-1.91.1-.76 1.14-1.14 1.21-1.9.04-.42-.23-.84-.1-1.24.21-.75 1.5-.7 1.73-1.45.1-.33-.07-.7-.34-.9-.27-.22-.62-.3-.97-.32-.45-.03-1.03-.05-1.2-.48-.2-.47.32-.91.8-1.1a2.4 2.4 0 0 1 1.32-.18c.45.08.87.4.98.84.03.15.03.3.08.46.16.43.71.59 1.18.55.46-.05.91-.23 1.37-.19 1.3.11 2.05 1.77 3.34 1.84.13 0 .28 0 .36-.11.08-.1.07-.25.05-.37a3.67 3.67 0 0 0-2.2-2.75c-.74-.3-1.57-.35-2.26-.74-.49-.27-.87-.7-1.32-1.03-.45-.34-1.01-.6-1.56-.47-.64.16-1.03.78-1.42 1.32-.39.53-.99 1.06-1.63.9-.13-.33-.28-.69-.59-.87-.3-.2-.8-.08-.87.27-.05.24.12.46.16.7.1.53-.38.98-.85 1.23-.48.25-1.04.45-1.3.93-.12.2-.16.45-.24.68-.17.5-.57.95-1.09 1.06-.52.1-1.13-.24-1.2-.76-.04-.36.15-.7.34-1.01.19-.31.4-.64.37-1-.02-.37-.39-.72-.72-.59-.4.16-.36.77-.67 1.05-.33.3-.85.1-1.26-.07-.41-.17-.99-.25-1.21.13-.2.35.08.78.17 1.17.1.46-.09.97-.46 1.25s-.91.32-1.32.09c-.34-.58.74-1.23.5-1.86-.16-.44-.8-.43-1.2-.18-.22.13-.42.3-.66.3-.39 0-.63-.48-.55-.85.09-.38.38-.67.66-.94.26-.24.61-.5.94-.37.22.09.34.32.5.48.36.34 1 .34 1.34-.01.18-.19.29-.45.5-.6.48-.37 1.24 0 1.76-.32a.8.8 0 0 0 .22-1.1c-.15-.2-.4-.34-.44-.58-.08-.43.44-.77.42-1.23a1.56 1.56 0 0 0-.63-1.07l-.02-.01a17.8 17.8 0 0 0-7.9 6.8c.09.28.24.54.47.74.23.19.5.31.7.53.2.21.28.58.06.78-.12.11-.3.14-.46.14-.55.01-1.1-.14-1.57-.44l-.14-.1a17.64 17.64 0 0 0-1.44 4.26Z" opacity=".1"/>
  <path fill="#E0E0E0" d="M180.49 78.2a.52.52 0 1 1-1.03.15.52.52 0 0 1 1.03-.14Zm-39.24.42a.52.52 0 1 1 .98-.36.52.52 0 0 1-.97.36Zm93.21-17.65a.52.52 0 1 1-1.04 0 .52.52 0 0 1 1.04 0Zm-5.18 21.49a.52.52 0 1 1-1.03 0 .52.52 0 0 1 1.03 0Zm-65.03-62.1a.52.52 0 1 1-.95-.4.52.52 0 0 1 .95.4Zm33.68 43.54a.34.34 0 1 1-.67.1.34.34 0 0 1 .67-.1Zm-71.04-40.98a.52.52 0 1 1 1.02.16.52.52 0 0 1-1.02-.16Zm-5.86 4.45a.34.34 0 0 1 .66.1c-.02.2-.2.32-.38.29a.34.34 0 0 1-.28-.39Zm26.82 6.91a.34.34 0 1 1 .66.1.34.34 0 0 1-.66-.1Zm70.32 11.46a.34.34 0 1 1 .67.1.34.34 0 0 1-.67-.1Zm5.3 30.23a.34.34 0 1 1 .66.1.34.34 0 0 1-.66-.1ZM79.4 75.63a.34.34 0 1 1 .66.1.34.34 0 0 1-.67-.1Zm91.87-54.42a.34.34 0 1 1-.62-.26.34.34 0 0 1 .62.27Zm-6.75 6.16a.34.34 0 1 1-.62-.27.34.34 0 0 1 .62.27Zm39.17 33.82a.22.22 0 1 1-.45 0 .22.22 0 0 1 .44 0ZM135.2 86.84a.34.34 0 1 1 .64-.23.34.34 0 0 1-.63.23ZM237.95 55.2a.34.34 0 1 1-.67 0 .34.34 0 0 1 .67 0Zm22.68 25.25a.34.34 0 1 1-.67 0 .34.34 0 0 1 .68 0ZM57.81 66.68a.34.34 0 1 1-.67 0 .34.34 0 0 1 .67 0Z"/>
  <path fill="#BA68C8" d="M151.38 60.04a1.2 1.2 0 0 1-2.14-.54 1.2 1.2 0 1 1 2.14.54Z"/>
  <path fill="#BA68C8" d="M151.11 59.84a1.18 1.18 0 0 1-1.66.24 1.18 1.18 0 0 1-.24-1.66 1.18 1.18 0 0 1 2.13.54c.04.3-.03.62-.23.88Z" opacity=".99"/>
  <path fill="#BA68C8" d="M150.84 59.64a1.17 1.17 0 0 1-1.64.24 1.17 1.17 0 0 1-.24-1.65 1.17 1.17 0 1 1 1.88 1.4Z" opacity=".98"/>
  <path fill="#BA68C8" d="M150.57 59.44a1.16 1.16 0 1 1-1.87-1.4 1.16 1.16 0 0 1 1.87 1.4Z" opacity=".97"/>
  <path fill="#BA68C8" d="M150.3 59.23a1.15 1.15 0 0 1-1.62.24 1.15 1.15 0 0 1-.23-1.61 1.15 1.15 0 1 1 1.85 1.37Z" opacity=".96"/>
  <path fill="#BA68C8" d="M150.03 59.03a1.14 1.14 0 0 1-2.05-.51 1.14 1.14 0 1 1 2.05.51Z" opacity=".95"/>
  <path fill="#BA68C8" d="M149.76 58.83a1.13 1.13 0 0 1-2.03-.51 1.13 1.13 0 1 1 2.03.51Z" opacity=".94"/>
  <path fill="#BA68C8" d="M149.49 58.63a1.12 1.12 0 0 1-2.01-.5 1.12 1.12 0 0 1 .94-1.28 1.12 1.12 0 0 1 1.07 1.78Z" opacity=".93"/>
  <path fill="#BA68C8" d="M149.21 58.43a1.1 1.1 0 0 1-1.55.22 1.1 1.1 0 0 1-.23-1.55 1.1 1.1 0 0 1 1.56-.23 1.1 1.1 0 0 1 .22 1.56Z" opacity=".92"/>
  <path fill="#BA68C8" d="M148.94 58.22a1.1 1.1 0 1 1-1.76-1.3 1.1 1.1 0 0 1 1.76 1.3Z" opacity=".91"/>
  <path fill="#BA68C8" d="M148.67 58.02a1.08 1.08 0 0 1-1.52.23 1.08 1.08 0 0 1-.23-1.53 1.09 1.09 0 1 1 1.75 1.3Z" opacity=".9"/>
  <path fill="#BA68C8" d="M148.4 57.82a1.07 1.07 0 0 1-1.5.22 1.07 1.07 0 0 1 .48-1.93 1.07 1.07 0 0 1 1.22.91c.04.27-.02.56-.2.8Z" opacity=".89"/>
  <path fill="#BA68C8" d="M148.13 57.62a1.06 1.06 0 0 1-1.91-.48 1.06 1.06 0 1 1 1.9.48Z" opacity=".88"/>
  <path fill="#BA68C8" d="M147.86 57.42a1.05 1.05 0 0 1-1.9-.48 1.05 1.05 0 1 1 1.9.48Z" opacity=".87"/>
  <path fill="#BA68C8" d="M147.59 57.22a1.04 1.04 0 0 1-1.47.2 1.04 1.04 0 0 1 .48-1.86 1.04 1.04 0 0 1 .99 1.66Z" opacity=".86"/>
  <path fill="#BA68C8" d="M147.31 57.01a1.04 1.04 0 1 1-1.66-1.24 1.04 1.04 0 0 1 1.66 1.24Z" opacity=".85"/>
  <path fill="#BA68C8" d="M147.04 56.81a1.02 1.02 0 0 1-1.43.21 1.02 1.02 0 0 1-.2-1.43 1.02 1.02 0 1 1 1.63 1.22Z" opacity=".84"/>
  <path fill="#BA68C8" d="M146.77 56.6a1 1 0 0 1-1.41.22 1 1 0 0 1-.21-1.42 1.01 1.01 0 1 1 1.62 1.2Z" opacity=".83"/>
  <path fill="#BA68C8" d="M146.5 56.4a1 1 0 1 1-1.6-1.19 1 1 0 1 1 1.6 1.2Z" opacity=".82"/>
  <path fill="#BA68C8" d="M146.23 56.2a.99.99 0 0 1-1.77-.44.99.99 0 0 1 .83-1.13.99.99 0 0 1 .94 1.58Z" opacity=".81"/>
  <path fill="#BA68C8" d="M145.96 56a.98.98 0 0 1-1.76-.44.98.98 0 0 1 .83-1.11.98.98 0 0 1 .93 1.55Z" opacity=".8"/>
  <path fill="#BA68C8" d="M145.69 55.8a.97.97 0 1 1-1.56-1.15.97.97 0 0 1 1.56 1.15Z" opacity=".79"/>
  <path fill="#BA68C8" d="M145.42 55.6a.95.95 0 0 1-1.72-.43.95.95 0 0 1 .8-1.09.96.96 0 0 1 .92 1.52Z" opacity=".78"/>
  <path fill="#BA68C8" d="M145.14 55.4a.94.94 0 0 1-1.32.2.95.95 0 1 1 1.32-.2Z" opacity=".77"/>
  <path fill="#BA68C8" d="M144.87 55.2a.93.93 0 0 1-1.3.19.93.93 0 0 1 .42-1.68.93.93 0 0 1 1.06.8.93.93 0 0 1-.18.69Z" opacity=".76"/>
  <path fill="#BA68C8" d="M144.6 55a.92.92 0 0 1-1.66-.42.92.92 0 1 1 1.66.41Z" opacity=".75"/>
  <path fill="#BA68C8" d="M144.33 54.8a.91.91 0 0 1-1.64-.42.9.9 0 0 1 .77-1.04.91.91 0 0 1 .87 1.45Z" opacity=".75"/>
  <path fill="#BA68C8" d="M144.06 54.6a.9.9 0 0 1-1.26.18.9.9 0 1 1 1.26-.19Z" opacity=".74"/>
  <path fill="#BA68C8" d="M143.79 54.39a.89.89 0 0 1-1.6-.4.89.89 0 0 1 1.41-.85.89.89 0 0 1 .19 1.25Z" opacity=".73"/>
  <path fill="#BA68C8" d="M143.52 54.19a.88.88 0 1 1-1.42-1.05.88.88 0 0 1 1.42 1.05Z" opacity=".72"/>
  <path fill="#BA68C8" d="M143.25 53.99a.87.87 0 0 1-1.22.17.87.87 0 0 1-.18-1.21.87.87 0 1 1 1.4 1.04Z" opacity=".71"/>
  <path fill="#BA68C8" d="M142.97 53.78a.86.86 0 1 1-1.37-1.02.86.86 0 0 1 1.37 1.02Z" opacity=".7"/>
  <path fill="#BA68C8" d="M142.7 53.58a.85.85 0 1 1-1.36-1.01.85.85 0 0 1 1.36 1.01Z" opacity=".69"/>
  <path fill="#BA68C8" d="M142.43 53.38a.83.83 0 0 1-1.17.17.84.84 0 1 1 1.17-.17Z" opacity=".68"/>
  <path fill="#BA68C8" d="M142.16 53.18a.82.82 0 0 1-1.16.17.83.83 0 1 1 .99-1.33.83.83 0 0 1 .17 1.16Z" opacity=".67"/>
  <path fill="#BA68C8" d="M141.89 52.98a.81.81 0 0 1-1.46-.37.81.81 0 0 1 .69-.93.81.81 0 0 1 .77 1.3Z" opacity=".66"/>
  <path fill="#BA68C8" d="M141.62 52.77a.8.8 0 0 1-1.13.17.8.8 0 0 1-.16-1.13.8.8 0 0 1 1.29.96Z" opacity=".65"/>
  <path fill="#BA68C8" d="M141.35 52.57a.8.8 0 1 1-1.28-.94.8.8 0 0 1 1.28.94Z" opacity=".64"/>
  <path fill="#BA68C8" d="M141.07 52.37a.78.78 0 1 1-1.25-.93.78.78 0 0 1 1.25.93Z" opacity=".63"/>
  <path fill="#BA68C8" d="M140.8 52.17a.77.77 0 1 1-1.24-.92.77.77 0 0 1 1.24.92Z" opacity=".62"/>
  <path fill="#BA68C8" d="M140.53 51.97a.76.76 0 1 1-1.22-.91.76.76 0 0 1 1.22.9Z" opacity=".61"/>
  <path fill="#BA68C8" d="M140.26 51.77a.75.75 0 0 1-1.05.15.75.75 0 0 1-.15-1.05.75.75 0 0 1 1.34.34.73.73 0 0 1-.14.55Z" opacity=".6"/>
  <path fill="#BA68C8" d="M139.99 51.56a.74.74 0 1 1-1.19-.88.74.74 0 0 1 1.19.88Z" opacity=".59"/>
  <path fill="#BA68C8" d="M139.72 51.36a.73.73 0 1 1-1.17-.87.73.73 0 0 1 1.17.87Z" opacity=".58"/>
  <path fill="#BA68C8" d="M139.45 51.16a.72.72 0 1 1-1.15-.85.72.72 0 0 1 1.15.85Z" opacity=".57"/>
  <path fill="#BA68C8" d="M139.18 50.96a.7.7 0 0 1-1.27-.32.7.7 0 1 1 1.27.32Z" opacity=".56"/>
  <path fill="#BA68C8" d="M138.9 50.76a.7.7 0 0 1-.97.14.7.7 0 1 1 .97-.14Z" opacity=".55"/>
  <path fill="#BA68C8" d="M138.63 50.55a.68.68 0 0 1-1.22-.3.69.69 0 0 1 1.08-.66.68.68 0 0 1 .14.96Z" opacity=".54"/>
  <path fill="#BA68C8" d="M138.36 50.35a.67.67 0 1 1-1.08-.8.67.67 0 0 1 .94-.14.67.67 0 0 1 .14.94Z" opacity=".53"/>
  <path fill="#BA68C8" d="M138.1 50.15a.66.66 0 1 1-1.07-.8.66.66 0 0 1 1.06.8Z" opacity=".52"/>
  <path fill="#BA68C8" d="M137.82 49.95a.65.65 0 0 1-1.17-.3.65.65 0 0 1 .55-.74.65.65 0 0 1 .74.55.65.65 0 0 1-.12.49Z" opacity=".51"/>
  <path fill="#BA68C8" d="M137.55 49.75a.64.64 0 1 1-1.03-.77.64.64 0 0 1 1.03.77Z" opacity=".5"/>
  <path fill="#BA68C8" d="M137.28 49.54a.63.63 0 0 1-.89.13.63.63 0 1 1 .89-.13Z" opacity=".49"/>
  <path fill="#BA68C8" d="M137 49.34a.62.62 0 0 1-.86.13.62.62 0 0 1 .28-1.11.62.62 0 0 1 .58.98Z" opacity=".48"/>
  <path fill="#BA68C8" d="M136.73 49.14a.61.61 0 1 1-.97-.73.61.61 0 0 1 .97.73Z" opacity=".47"/>
  <path fill="#BA68C8" d="M136.46 48.94a.6.6 0 1 1-.96-.71.6.6 0 0 1 .96.7Z" opacity=".46"/>
  <path fill="#BA68C8" d="M136.2 48.74a.59.59 0 1 1-.95-.7.59.59 0 0 1 .94.7Z" opacity=".45"/>
  <path fill="#BA68C8" d="M135.92 48.53a.58.58 0 0 1-.8.12.57.57 0 0 1-.12-.8.58.58 0 0 1 .92.68Z" opacity=".44"/>
  <path fill="#BA68C8" d="M135.65 48.33a.56.56 0 1 1-.9-.67.56.56 0 0 1 .9.67Z" opacity=".43"/>
  <path fill="#BA68C8" d="M135.38 48.13a.55.55 0 0 1-.78.11.55.55 0 1 1 .78-.1Z" opacity=".42"/>
  <path fill="#BA68C8" d="M135.1 47.93a.54.54 0 1 1-.86-.65c.08-.12.21-.2.35-.21a.54.54 0 0 1 .51.86Z" opacity=".41"/>
  <path fill="#BA68C8" d="M134.84 47.73a.53.53 0 1 1-.86-.64.53.53 0 0 1 .86.64Z" opacity=".4"/>
  <path fill="#BA68C8" d="M134.56 47.53a.52.52 0 1 1-.83-.63.52.52 0 0 1 .83.63Z" opacity=".39"/>
  <path fill="#BA68C8" d="M134.3 47.32a.5.5 0 1 1-.83-.6.5.5 0 0 1 .82.6Z" opacity=".38"/>
  <path fill="#BA68C8" d="M134.02 47.12a.5.5 0 1 1-.8-.6.5.5 0 0 1 .8.6Z" opacity=".37"/>
  <path fill="#BA68C8" d="M133.75 46.92a.49.49 0 0 1-.69.1.49.49 0 1 1 .68-.1Z" opacity=".36"/>
  <path fill="#BA68C8" d="M133.48 46.72a.48.48 0 0 1-.67.1.48.48 0 1 1 .67-.1Z" opacity=".35"/>
  <path fill="#BA68C8" d="M133.2 46.52a.47.47 0 0 1-.65.1.47.47 0 1 1 .66-.1Z" opacity=".34"/>
  <path fill="#BA68C8" d="M132.94 46.31a.45.45 0 0 1-.64.1.45.45 0 0 1-.1-.64.45.45 0 0 1 .82.2.45.45 0 0 1-.09.34Z" opacity=".33"/>
  <path fill="#BA68C8" d="M132.66 46.11a.44.44 0 1 1-.7-.53.44.44 0 0 1 .7.53Z" opacity=".32"/>
  <path fill="#BA68C8" d="M132.4 45.91a.44.44 0 0 1-.61.09.43.43 0 0 1-.1-.6.44.44 0 0 1 .61-.1c.1.07.16.18.17.29a.44.44 0 0 1-.08.32Z" opacity=".31"/>
  <path fill="#BA68C8" d="M132.12 45.7a.42.42 0 0 1-.6.1.42.42 0 0 1-.08-.6.42.42 0 0 1 .6-.08.42.42 0 0 1 .09.6Z" opacity=".3"/>
  <path fill="#BA68C8" d="M131.85 45.5a.41.41 0 0 1-.58.1.4.4 0 0 1-.16-.28.41.41 0 0 1 .65-.4c.1.08.15.17.17.28a.4.4 0 0 1-.08.3Z" opacity=".29"/>
  <path fill="#BA68C8" d="M131.58 45.3a.4.4 0 0 1-.56.09.4.4 0 0 1 .18-.72.4.4 0 0 1 .45.34.4.4 0 0 1-.07.3Z" opacity=".28"/>
  <path fill="#BA68C8" d="M131.3 45.1a.39.39 0 0 1-.7-.17.39.39 0 1 1 .7.17Z" opacity=".27"/>
  <path fill="#BA68C8" d="M131.04 44.9a.38.38 0 0 1-.53.08.38.38 0 0 1-.15-.25c-.02-.1 0-.2.07-.28a.38.38 0 0 1 .53-.08.38.38 0 0 1 .08.53Z" opacity=".26"/>
  <path fill="#BA68C8" d="M130.76 44.7a.37.37 0 0 1-.51.08.37.37 0 0 1 .17-.66.37.37 0 0 1 .41.3c.02.1 0 .2-.07.28Z" opacity=".26"/>
  <path fill="#BA68C8" d="M130.5 44.5a.36.36 0 0 1-.5.07.35.35 0 0 1-.15-.23.35.35 0 0 1 .3-.41.36.36 0 0 1 .41.3c.01.1 0 .19-.07.27Z" opacity=".25"/>
  <path fill="#BA68C8" d="M130.22 44.3a.34.34 0 0 1-.48.07.35.35 0 0 1 .41-.56c.08.06.12.14.14.23a.36.36 0 0 1-.07.26Z" opacity=".24"/>
  <path fill="#BA68C8" d="M129.95 44.1a.33.33 0 0 1-.47.06.34.34 0 0 1-.07-.47.33.33 0 0 1 .54.4Z" opacity=".23"/>
  <path fill="#BA68C8" d="M129.68 43.9a.32.32 0 1 1-.52-.4.32.32 0 0 1 .52.4Z" opacity=".22"/>
  <path fill="#BA68C8" d="M129.4 43.69a.31.31 0 1 1-.5-.38.31.31 0 0 1 .5.38Z" opacity=".21"/>
  <path fill="#BA68C8" d="M129.14 43.49a.3.3 0 1 1-.49-.36.3.3 0 0 1 .49.36Z" opacity=".2"/>
  <path fill="#BA68C8" d="M128.87 43.29a.29.29 0 0 1-.4.06.29.29 0 0 1-.13-.2.3.3 0 1 1 .52.13Z" opacity=".19"/>
  <path fill="#BA68C8" d="M128.6 43.08a.28.28 0 0 1-.4.06.28.28 0 0 1-.06-.4.28.28 0 0 1 .4-.05.28.28 0 0 1 .05.4Z" opacity=".18"/>
  <path fill="#BA68C8" d="M128.32 42.88a.27.27 0 0 1-.37.06.27.27 0 0 1-.11-.18.27.27 0 0 1 .05-.2.27.27 0 0 1 .38-.06c.06.05.1.11.1.18.01.07 0 .14-.05.2Z" opacity=".17"/>
  <path fill="#BA68C8" d="M128.05 42.68a.26.26 0 1 1-.41-.3.26.26 0 0 1 .41.3Z" opacity=".16"/>
  <path fill="#BA68C8" d="M127.78 42.48a.25.25 0 0 1-.44-.11.24.24 0 0 1 .04-.19c.04-.05.1-.09.17-.1.06 0 .13.01.18.05a.25.25 0 0 1 .05.35Z" opacity=".15"/>
  <path fill="#BA68C8" d="M127.5 42.28a.24.24 0 0 1-.32.05.23.23 0 0 1-.1-.16.23.23 0 0 1 .05-.18.24.24 0 0 1 .33-.05.24.24 0 0 1 .05.34Z" opacity=".14"/>
  <path fill="#BA68C8" d="M127.24 42.08a.23.23 0 0 1-.32.04.23.23 0 0 1 .1-.4.2.2 0 0 1 .17.04c.05.03.08.09.09.15 0 .06 0 .12-.04.17Z" opacity=".13"/>
  <path fill="#BA68C8" d="M126.97 41.87a.21.21 0 0 1-.39-.1c0-.05 0-.1.04-.15a.21.21 0 0 1 .3-.05c.05.04.08.09.09.14a.2.2 0 0 1-.04.16Z" opacity=".12"/>
  <path fill="#BA68C8" d="M126.7 41.67a.2.2 0 0 1-.37-.1.2.2 0 0 1 .17-.22c.06-.01.11 0 .15.04a.2.2 0 0 1 .04.28Z" opacity=".11"/>
  <path fill="#BA68C8" d="M126.42 41.47a.2.2 0 1 1-.04-.27.2.2 0 0 1 .08.13c0 .05 0 .1-.04.14Z" opacity=".1"/>
  <path fill="#BA68C8" d="M126.15 41.27a.18.18 0 0 1-.25.03.18.18 0 0 1-.04-.25.19.19 0 0 1 .12-.07c.05 0 .1 0 .13.03a.2.2 0 0 1 .08.12c0 .05 0 .1-.04.14Z" opacity=".09"/>
  <path fill="#BA68C8" d="M125.88 41.07a.17.17 0 0 1-.24.03.17.17 0 0 1-.07-.11c0-.05 0-.1.04-.13a.17.17 0 0 1 .3.08c.01.04 0 .09-.03.13Z" opacity=".08"/>
  <path fill="#BA68C8" d="M125.61 40.86a.16.16 0 0 1-.1.07c-.05 0-.1 0-.13-.03a.16.16 0 0 1-.06-.1.16.16 0 0 1 .14-.2.2.2 0 0 1 .12.04c.03.02.05.06.06.1 0 .05 0 .09-.03.12Z" opacity=".07"/>
  <path fill="#BA68C8" d="M125.34 40.66a.15.15 0 0 1-.27-.07c0-.04 0-.08.03-.1a.15.15 0 0 1 .24.18Z" opacity=".06"/>
  <path fill="#BA68C8" d="M125.07 40.46a.14.14 0 0 1-.25-.06c0-.04 0-.08.03-.1a.14.14 0 0 1 .25.06.2.2 0 0 1-.03.1Z" opacity=".05"/>
  <path fill="#BA68C8" d="M124.8 40.26a.13.13 0 0 1-.18.02.13.13 0 1 1 .18-.03Z" opacity=".04"/>
  <path fill="#BA68C8" d="M124.52 40.06a.11.11 0 0 1-.07.04c-.03 0-.06 0-.09-.02a.12.12 0 0 1-.05-.08.12.12 0 0 1 .1-.13c.03 0 .06 0 .09.02l.05.08c0 .03 0 .06-.03.09Z" opacity=".03"/>
  <path fill="#BA68C8" d="M124.25 39.85a.1.1 0 0 1-.07.05.1.1 0 0 1-.12-.1c0-.02 0-.05.02-.07a.1.1 0 0 1 .15-.02.1.1 0 0 1 .04.07.1.1 0 0 1-.02.07Z" opacity=".02"/>
  <path fill="#BA68C8" d="M123.81 39.6a.1.1 0 0 1 .08-.1.1.1 0 0 1 .07.02.1.1 0 0 1 .02.13.1.1 0 0 1-.13.02.1.1 0 0 1-.04-.06Z" opacity=".01"/>
  <path fill="#FAFAFA" d="M150.92 59.7a.62.62 0 1 1-1-.75.62.62 0 0 1 1 .75Z"/>
  <path fill="#BA68C8" d="M150.81 54.84a.67.67 0 0 1-.94.14.67.67 0 0 1 .3-1.2.67.67 0 0 1 .65 1.06Z"/>
  <path fill="#BA68C8" d="M150.7 54.76a.67.67 0 0 1-.94.14.67.67 0 1 1 .94-.14Z" opacity=".99"/>
  <path fill="#BA68C8" d="M150.58 54.67a.66.66 0 0 1-.93.14.66.66 0 0 1-.26-.44.66.66 0 1 1 1.31-.2.66.66 0 0 1-.12.5Z" opacity=".98"/>
  <path fill="#BA68C8" d="M150.46 54.58a.65.65 0 0 1-.92.14.66.66 0 1 1 .92-.14Z" opacity=".97"/>
  <path fill="#BA68C8" d="M150.35 54.5a.65.65 0 1 1-1.05-.78.65.65 0 0 1 1.05.78Z" opacity=".96"/>
  <path fill="#BA68C8" d="M150.23 54.4a.65.65 0 1 1-1.04-.76.65.65 0 0 1 1.04.77Z" opacity=".95"/>
  <path fill="#BA68C8" d="M150.11 54.32a.64.64 0 0 1-.9.13.64.64 0 1 1 .9-.13Z" opacity=".94"/>
  <path fill="#BA68C8" d="M150 54.23a.63.63 0 0 1-.9.13.63.63 0 1 1 .9-.13Z" opacity=".93"/>
  <path fill="#BA68C8" d="M149.88 54.15a.63.63 0 1 1-1-.75.63.63 0 0 1 1 .75Z" opacity=".92"/>
  <path fill="#BA68C8" d="M149.76 54.06a.62.62 0 0 1-.87.13.62.62 0 1 1 .87-.13Z" opacity=".91"/>
  <path fill="#BA68C8" d="M149.64 53.97a.61.61 0 0 1-1.1-.28.61.61 0 1 1 1.21-.18.62.62 0 0 1-.1.46Z" opacity=".9"/>
  <path fill="#BA68C8" d="M149.52 53.88a.6.6 0 1 1-.97-.72.6.6 0 0 1 .97.72Z" opacity=".89"/>
  <path fill="#BA68C8" d="M149.4 53.8a.6.6 0 0 1-.83.12.6.6 0 0 1-.13-.84.6.6 0 0 1 .84-.12.6.6 0 0 1 .13.84Z" opacity=".88"/>
  <path fill="#BA68C8" d="M149.29 53.7a.6.6 0 0 1-.83.13.6.6 0 0 1-.12-.83.6.6 0 1 1 .95.7Z" opacity=".87"/>
  <path fill="#BA68C8" d="M149.17 53.62a.59.59 0 0 1-1.05-.26.59.59 0 0 1 .5-.67.59.59 0 0 1 .66.5c.03.14-.01.3-.1.43Z" opacity=".86"/>
  <path fill="#BA68C8" d="M149.06 53.53a.58.58 0 0 1-.82.12.58.58 0 1 1 .81-.12Z" opacity=".85"/>
  <path fill="#BA68C8" d="M148.94 53.45a.57.57 0 0 1-.8.12.57.57 0 0 1-.13-.81.57.57 0 0 1 .81-.12c.13.1.2.23.23.38.02.15-.02.3-.11.43Z" opacity=".84"/>
  <path fill="#BA68C8" d="M148.82 53.36a.57.57 0 1 1-.91-.68.57.57 0 0 1 .91.68Z" opacity=".83"/>
  <path fill="#BA68C8" d="M148.7 53.27a.56.56 0 1 1-.9-.67.56.56 0 0 1 .9.67Z" opacity=".82"/>
  <path fill="#BA68C8" d="M148.59 53.19a.56.56 0 1 1-.9-.67.56.56 0 0 1 .9.67Z" opacity=".81"/>
  <path fill="#BA68C8" d="M148.47 53.1a.55.55 0 1 1-.88-.66.55.55 0 0 1 .88.66Z" opacity=".8"/>
  <path fill="#BA68C8" d="M148.35 53.01a.55.55 0 1 1-.87-.65.55.55 0 0 1 .87.65Z" opacity=".79"/>
  <path fill="#BA68C8" d="M148.23 52.92a.54.54 0 1 1-.86-.64.54.54 0 0 1 .86.64Z" opacity=".78"/>
  <path fill="#BA68C8" d="M148.12 52.84a.53.53 0 1 1-.86-.64.53.53 0 0 1 .86.64Z" opacity=".77"/>
  <path fill="#BA68C8" d="M148 52.75a.53.53 0 1 1-.84-.63.53.53 0 0 1 .84.63Z" opacity=".76"/>
  <path fill="#BA68C8" d="M147.88 52.66a.52.52 0 0 1-.72.1.52.52 0 0 1-.11-.72.52.52 0 0 1 .83.62Z" opacity=".75"/>
  <path fill="#BA68C8" d="M147.76 52.57a.51.51 0 0 1-.91-.23.5.5 0 0 1 .43-.58.5.5 0 0 1 .58.43.5.5 0 0 1-.1.38Z" opacity=".75"/>
  <path fill="#BA68C8" d="M147.65 52.49a.5.5 0 0 1-.71.1.5.5 0 1 1 .7-.1Z" opacity=".74"/>
  <path fill="#BA68C8" d="M147.53 52.4a.5.5 0 0 1-.7.1.5.5 0 1 1 .7-.1Z" opacity=".73"/>
  <path fill="#BA68C8" d="M147.41 52.31a.5.5 0 1 1-.79-.59.5.5 0 0 1 .8.6Z" opacity=".72"/>
  <path fill="#BA68C8" d="M147.3 52.22a.48.48 0 0 1-.69.1.49.49 0 0 1-.1-.68.49.49 0 1 1 .78.58Z" opacity=".71"/>
  <path fill="#BA68C8" d="M147.18 52.14a.48.48 0 0 1-.68.1.48.48 0 0 1-.1-.68.48.48 0 0 1 .68-.1.48.48 0 0 1 .1.68Z" opacity=".7"/>
  <path fill="#BA68C8" d="M147.06 52.05a.48.48 0 1 1-.76-.57.48.48 0 0 1 .76.57Z" opacity=".69"/>
  <path fill="#BA68C8" d="M146.94 51.96a.47.47 0 1 1-.75-.56.47.47 0 0 1 .75.56Z" opacity=".68"/>
  <path fill="#BA68C8" d="M146.83 51.88a.46.46 0 0 1-.65.1.46.46 0 1 1 .65-.1Z" opacity=".67"/>
  <path fill="#BA68C8" d="M146.7 51.79a.46.46 0 1 1-.72-.55.46.46 0 0 1 .73.55Z" opacity=".66"/>
  <path fill="#BA68C8" d="M146.6 51.7a.45.45 0 0 1-.64.1.45.45 0 0 1 .2-.8.45.45 0 0 1 .43.7Z" opacity=".65"/>
  <path fill="#BA68C8" d="M146.47 51.61a.44.44 0 0 1-.62.1.45.45 0 0 1-.09-.63.44.44 0 0 1 .62-.09.45.45 0 0 1 .1.62Z" opacity=".64"/>
  <path fill="#BA68C8" d="M146.36 51.53a.43.43 0 0 1-.62.09.44.44 0 1 1 .62-.1Z" opacity=".63"/>
  <path fill="#BA68C8" d="M146.24 51.44a.43.43 0 0 1-.6.09.43.43 0 0 1-.1-.6.43.43 0 0 1 .78.19.43.43 0 0 1-.08.32Z" opacity=".62"/>
  <path fill="#BA68C8" d="M146.12 51.35a.42.42 0 1 1-.68-.5.42.42 0 0 1 .68.5Z" opacity=".61"/>
  <path fill="#BA68C8" d="M146 51.26a.42.42 0 0 1-.75-.19.42.42 0 0 1 .83-.12c.02.11 0 .22-.08.31Z" opacity=".6"/>
  <path fill="#BA68C8" d="M145.89 51.18a.41.41 0 0 1-.58.08.41.41 0 1 1 .65-.4.4.4 0 0 1-.07.32Z" opacity=".59"/>
  <path fill="#BA68C8" d="M145.77 51.09a.4.4 0 0 1-.73-.18.4.4 0 0 1 .65-.39.4.4 0 0 1 .08.57Z" opacity=".58"/>
  <path fill="#BA68C8" d="M145.65 51a.4.4 0 0 1-.71-.18.4.4 0 0 1 .63-.38.4.4 0 0 1 .08.56Z" opacity=".57"/>
  <path fill="#BA68C8" d="M145.53 50.92a.4.4 0 1 1-.37-.63c.1-.01.2.01.3.08a.4.4 0 0 1 .07.55Z" opacity=".56"/>
  <path fill="#BA68C8" d="M145.42 50.83a.39.39 0 0 1-.54.08.39.39 0 0 1 .17-.7c.1-.01.2.01.29.08a.39.39 0 0 1 .08.54Z" opacity=".55"/>
  <path fill="#BA68C8" d="M145.3 50.74a.38.38 0 0 1-.53.08.38.38 0 0 1 .17-.68c.1-.02.2 0 .28.07.09.06.14.15.15.25.02.1 0 .2-.07.28Z" opacity=".54"/>
  <path fill="#BA68C8" d="M145.18 50.65a.37.37 0 0 1-.52.08.37.37 0 0 1-.08-.52.37.37 0 0 1 .6.44Z" opacity=".53"/>
  <path fill="#BA68C8" d="M145.07 50.57a.37.37 0 0 1-.52.07.37.37 0 1 1 .58-.35c.02.1 0 .2-.06.28Z" opacity=".52"/>
  <path fill="#BA68C8" d="M144.95 50.48a.36.36 0 1 1-.58-.43.36.36 0 0 1 .58.43Z" opacity=".51"/>
  <path fill="#BA68C8" d="M144.83 50.4a.35.35 0 0 1-.5.06.35.35 0 0 1-.07-.5.35.35 0 0 1 .5-.07.4.4 0 0 1 .14.24.36.36 0 0 1-.07.26Z" opacity=".5"/>
  <path fill="#BA68C8" d="M144.71 50.3a.35.35 0 0 1-.49.08.35.35 0 0 1-.07-.5.35.35 0 0 1 .5-.06.35.35 0 0 1 .06.48Z" opacity=".49"/>
  <path fill="#BA68C8" d="M144.6 50.22a.34.34 0 0 1-.62-.16.34.34 0 0 1 .29-.39.34.34 0 0 1 .4.3c0 .08-.02.17-.07.25Z" opacity=".48"/>
  <path fill="#BA68C8" d="M144.48 50.13a.34.34 0 0 1-.54-.4.34.34 0 0 1 .6.15c.02.09 0 .18-.06.25Z" opacity=".47"/>
  <path fill="#BA68C8" d="M144.36 50.04a.33.33 0 0 1-.46.07.33.33 0 0 1-.07-.46.33.33 0 0 1 .46-.07c.08.05.12.13.13.22.02.08 0 .17-.06.24Z" opacity=".46"/>
  <path fill="#BA68C8" d="M144.24 49.96a.32.32 0 0 1-.58-.15.32.32 0 0 1 .28-.37.32.32 0 0 1 .36.27c.02.09 0 .17-.06.25Z" opacity=".45"/>
  <path fill="#BA68C8" d="M144.13 49.87a.32.32 0 1 1-.51-.38.32.32 0 0 1 .5.38Z" opacity=".44"/>
  <path fill="#BA68C8" d="M144.01 49.78a.31.31 0 1 1-.5-.37.31.31 0 0 1 .5.37Z" opacity=".43"/>
  <path fill="#BA68C8" d="M143.9 49.7a.3.3 0 0 1-.2.11.3.3 0 0 1-.23-.05.3.3 0 1 1 .43-.06Z" opacity=".42"/>
  <path fill="#BA68C8" d="M143.78 49.6a.3.3 0 0 1-.42.07.3.3 0 0 1-.06-.42.3.3 0 1 1 .47.36Z" opacity=".41"/>
  <path fill="#BA68C8" d="M143.66 49.52a.3.3 0 0 1-.53-.13.3.3 0 0 1 .47-.28.3.3 0 0 1 .06.4Z" opacity=".4"/>
  <path fill="#BA68C8" d="M143.54 49.43a.29.29 0 1 1-.46-.34.29.29 0 0 1 .46.34Z" opacity=".39"/>
  <path fill="#BA68C8" d="M143.42 49.34a.28.28 0 0 1-.39.06.28.28 0 1 1 .4-.06Z" opacity=".38"/>
  <path fill="#BA68C8" d="M143.3 49.26a.27.27 0 0 1-.49-.13.27.27 0 0 1 .24-.3.27.27 0 0 1 .26.43Z" opacity=".37"/>
  <path fill="#BA68C8" d="M143.19 49.17a.27.27 0 1 1-.06-.37c.06.04.1.1.1.17.02.07 0 .14-.04.2Z" opacity=".36"/>
  <path fill="#BA68C8" d="M143.07 49.08a.26.26 0 0 1-.47-.12.26.26 0 0 1 .52-.08c0 .07 0 .14-.05.2Z" opacity=".35"/>
  <path fill="#BA68C8" d="M142.95 49a.26.26 0 0 1-.35.05.25.25 0 0 1-.1-.17.25.25 0 0 1 .04-.19.26.26 0 0 1 .36-.05.26.26 0 0 1 .05.35Z" opacity=".34"/>
  <path fill="#BA68C8" d="M142.84 48.9a.25.25 0 0 1-.45-.1c0-.07 0-.13.05-.19.04-.05.1-.09.16-.1a.25.25 0 0 1 .28.21c.01.07 0 .13-.04.19Z" opacity=".33"/>
  <path fill="#BA68C8" d="M142.72 48.82a.24.24 0 0 1-.34.05.24.24 0 0 1 .1-.43.24.24 0 0 1 .24.38Z" opacity=".32"/>
  <path fill="#BA68C8" d="M142.6 48.73a.24.24 0 1 1-.22-.37.23.23 0 0 1 .22.37Z" opacity=".31"/>
  <path fill="#BA68C8" d="M142.48 48.65a.23.23 0 1 1-.37-.28.23.23 0 0 1 .37.28Z" opacity=".3"/>
  <path fill="#BA68C8" d="M142.37 48.56a.22.22 0 0 1-.32.04.22.22 0 0 1-.08-.14.22.22 0 0 1 .19-.26c.05 0 .11 0 .16.05a.22.22 0 0 1 .05.3Z" opacity=".29"/>
  <path fill="#BA68C8" d="M142.25 48.47a.22.22 0 0 1-.35-.26.22.22 0 0 1 .35.26Z" opacity=".28"/>
  <path fill="#BA68C8" d="M142.13 48.38a.21.21 0 0 1-.34-.25.2.2 0 0 1 .3-.04.2.2 0 0 1 .08.14.2.2 0 0 1-.04.15Z" opacity=".27"/>
  <path fill="#BA68C8" d="M142.01 48.3a.2.2 0 1 1-.32-.25.2.2 0 0 1 .32.25Z" opacity=".26"/>
  <path fill="#BA68C8" d="M141.9 48.2a.2.2 0 0 1-.13.09.2.2 0 1 1 .13-.08Z" opacity=".26"/>
  <path fill="#BA68C8" d="M141.78 48.12a.2.2 0 0 1-.13.08c-.05 0-.1 0-.14-.04a.2.2 0 0 1 .09-.34.2.2 0 0 1 .22.16c0 .05 0 .1-.04.14Z" opacity=".25"/>
  <path fill="#BA68C8" d="M141.66 48.03a.19.19 0 0 1-.26.04.18.18 0 0 1-.07-.12c0-.05 0-.1.03-.14a.19.19 0 1 1 .3.22Z" opacity=".24"/>
  <path fill="#BA68C8" d="M141.55 47.95a.18.18 0 0 1-.26.03.18.18 0 1 1 .25-.04Z" opacity=".23"/>
  <path fill="#BA68C8" d="M141.43 47.86a.17.17 0 1 1-.28-.2.17.17 0 0 1 .28.2Z" opacity=".22"/>
  <path fill="#BA68C8" d="M141.31 47.77a.17.17 0 0 1-.23.04.17.17 0 0 1 .07-.3.17.17 0 0 1 .2.14c0 .04-.01.09-.04.12Z" opacity=".21"/>
  <path fill="#BA68C8" d="M141.2 47.68a.16.16 0 0 1-.11.07c-.04 0-.09 0-.12-.03a.16.16 0 0 1-.06-.1.16.16 0 1 1 .31-.05c.01.04 0 .08-.03.11Z" opacity=".2"/>
  <path fill="#BA68C8" d="M141.08 47.6a.16.16 0 0 1-.1.06c-.04 0-.09 0-.12-.03a.15.15 0 0 1-.03-.22.15.15 0 1 1 .25.18Z" opacity=".19"/>
  <path fill="#BA68C8" d="M140.96 47.51a.15.15 0 0 1-.2.03.15.15 0 0 1-.07-.1.15.15 0 0 1 .13-.16c.04 0 .08 0 .1.02.04.03.06.06.07.1 0 .04 0 .08-.03.11Z" opacity=".18"/>
  <path fill="#BA68C8" d="M140.84 47.42a.14.14 0 0 1-.25-.06.14.14 0 0 1 .12-.16.14.14 0 0 1 .16.12c0 .03 0 .07-.03.1Z" opacity=".17"/>
  <path fill="#BA68C8" d="M140.72 47.34a.14.14 0 0 1-.08.05c-.04 0-.07 0-.1-.03a.14.14 0 1 1 .18-.02Z" opacity=".16"/>
  <path fill="#BA68C8" d="M140.6 47.25a.13.13 0 0 1-.08.05c-.03 0-.06 0-.1-.02a.13.13 0 0 1 .06-.24c.04 0 .07 0 .1.03a.13.13 0 0 1 .03.18Z" opacity=".15"/>
  <path fill="#BA68C8" d="M140.49 47.16a.12.12 0 1 1-.12-.2.2.2 0 0 1 .1.03c.02.02.04.05.04.08s0 .06-.02.1Z" opacity=".14"/>
  <path fill="#BA68C8" d="M140.37 47.07a.12.12 0 0 1-.16.02.11.11 0 0 1-.05-.07c0-.03 0-.06.03-.09a.12.12 0 0 1 .07-.04c.03 0 .06 0 .09.02.02.02.04.05.04.08s0 .06-.02.08Z" opacity=".13"/>
  <path fill="#BA68C8" d="M140.25 46.99a.11.11 0 0 1-.18-.13.11.11 0 0 1 .15-.02.1.1 0 0 1 .06.06.1.1 0 0 1-.03.09Z" opacity=".12"/>
  <path fill="#BA68C8" d="M140.14 46.9a.1.1 0 1 1-.1-.16.1.1 0 0 1 .08.01.1.1 0 0 1 .02.15Z" opacity=".11"/>
  <path fill="#BA68C8" d="M140.02 46.81a.1.1 0 0 1-.18-.04.1.1 0 0 1 .16-.1.1.1 0 0 1 .04.07.1.1 0 0 1-.02.07Z" opacity=".1"/>
  <path fill="#BA68C8" d="M139.9 46.72a.1.1 0 0 1-.16-.04c0-.02 0-.04.02-.06a.1.1 0 0 1 .06-.04c.02 0 .05 0 .06.02a.1.1 0 0 1 .02.12Z" opacity=".09"/>
  <path fill="#BA68C8" d="M139.78 46.64a.08.08 0 0 1-.05.03.08.08 0 0 1-.1-.07c0-.02 0-.05.02-.06a.08.08 0 0 1 .06-.04c.02 0 .04 0 .06.02.02.01.03.03.03.05 0 .03 0 .05-.02.07Z" opacity=".08"/>
  <path fill="#BA68C8" d="M139.67 46.55a.08.08 0 0 1-.05.03.08.08 0 0 1-.1-.07l.02-.05a.08.08 0 0 1 .05-.03.08.08 0 0 1 .1.06c0 .02 0 .04-.02.06Z" opacity=".07"/>
  <path fill="#BA68C8" d="M139.55 46.46a.07.07 0 0 1-.05.03l-.05-.01a.07.07 0 0 1 .03-.13l.06.01.03.05c0 .02 0 .04-.02.05Z" opacity=".06"/>
  <path fill="#BA68C8" d="M139.43 46.38a.06.06 0 0 1-.04.02l-.05-.01a.06.06 0 0 1-.03-.04c0-.02 0-.04.02-.05a.06.06 0 0 1 .04-.03l.05.01.03.05c0 .01 0 .03-.02.05Z" opacity=".05"/>
  <path fill="#BA68C8" d="m139.32 46.29-.04.02h-.05a.06.06 0 0 1-.02-.05l.01-.04c0-.02.02-.02.04-.03.02 0 .03 0 .04.02.02 0 .02.02.03.03l-.01.05Z" opacity=".04"/>
  <path fill="#BA68C8" d="m139.2 46.2-.04.02h-.04a.05.05 0 0 1-.02-.04l.01-.04.04-.02a.05.05 0 0 1 .06.04l-.01.04Z" opacity=".03"/>
  <path fill="#BA68C8" d="m139.08 46.11-.03.02h-.03a.05.05 0 0 1-.02-.04v-.03l.04-.02h.03l.02.04v.03Z" opacity=".02"/>
  <path fill="#BA68C8" d="M138.9 46c-.01-.01 0-.04.03-.04.02 0 .04.01.04.04v.03l-.03.01h-.03l-.02-.03Z" opacity=".01"/>
  <path fill="#BA68C8" d="M189.27 52.58a7.32 7.32 0 1 1 .01-14.65 7.32 7.32 0 0 1-.01 14.65Zm0-14.46a7.15 7.15 0 1 0 .01 14.3 7.15 7.15 0 0 0-.01-14.3Z" opacity=".6"/>
  <path fill="#BA68C8" d="M189.27 53.6a8.34 8.34 0 0 1 0-16.67 8.34 8.34 0 0 1 0 16.67Zm0-16.49a8.16 8.16 0 0 0 0 16.3 8.16 8.16 0 0 0 0-16.3Z" opacity=".5"/>
  <path fill="#BA68C8" d="M189.27 54.67a9.42 9.42 0 0 1 0-18.81 9.42 9.42 0 0 1 0 18.81Zm0-18.62a9.23 9.23 0 0 0 0 18.43 9.23 9.23 0 0 0 0-18.43Z" opacity=".3"/>
  <path fill="#BA68C8" d="M189.27 55.86a10.6 10.6 0 0 1 0-21.19 10.6 10.6 0 0 1 0 21.19Zm0-21a10.41 10.41 0 0 0 0 20.8 10.41 10.41 0 0 0 0-20.8Z" opacity=".1"/>
  <path fill="#BA68C8" d="M193.65 49.65a6.2 6.2 0 1 0-8.77-8.77 6.2 6.2 0 0 0 8.77 8.77Z"/>
  <path fill="#fff" d="M193.65 49.65a6.2 6.2 0 1 0-8.77-8.77 6.2 6.2 0 0 0 8.77 8.77Z" opacity=".7"/>
  <g fill="#BA68C8" opacity=".2">
    <path d="m188.57 41.54-.14-.3a19.37 19.37 0 0 0-1.1-1.87 6.2 6.2 0 0 0-1.08.47c.38.56.85 1.11 1.19 1.69.25.42.4.9.55 1.36.07.2.14.4.27.57.12.17.3.31.5.34l.1-.01c.08-.03.1-.13.1-.2.06-.68-.12-1.4-.39-2.05Z"/>
    <path d="M193.8 49.48c-1.04-1.02-3-2.93-3.82-3.79-.62-.65-1.48-.95-2.11-1.58-.43-.43-.6-1.04-.77-1.63-.1-.32-.28-1.36-.77-1.24-.01.17.09.56-.1.67-.16.1-.31-.23-.37-.32-.05-.09-.63-1.03-.62-1.04-.18.15-.35.31-.5.48a130.7 130.7 0 0 0 1.62 2.96c.29.5 0 1.04-.37.5a96.49 96.49 0 0 0-1.97-2.53 6.2 6.2 0 0 0-.59 1.2c.58.85 1.23 1.88 2.17 2.37.31.16.7.21 1.01.05.21-.1.38-.3.61-.36.3-.06.58.12.82.3.5.35.98.73 1.44 1.14.21.18.5.38.65.6.1.15.12.45-.04.56 0 .06-.22.05-.26.04-.09-.02-.15-.08-.22-.13l-.64-.4c-.17-.1-.38-.2-.54-.1-.02.18.1.33.21.46.42.45.88.86 1.37 1.23.1.07.2.13.3.17.12.03.25.03.34-.04.1-.07.15-.2.25-.27.1-.05.23-.03.33.02.22.13.39.38.6.53.21.15.89.8 1.03.99.34-.25.66-.53.95-.84Z"/>
    <path d="M189.27 51.47c.8 0 1.56-.16 2.26-.43a49.03 49.03 0 0 0-3.13-2.67c-.43-.28-.73.15-.99.45-.12.14-.27.33-.46.37-.3.06-.57-.25-.58-.52 0-.22.1-.43.25-.6.14-.16.33-.3.4-.51.12-.33-.07-.68-.26-.97-.07-.12-.16-.25-.3-.28-.18-.04-.34.12-.48.26-.16.16-.34.3-.53.43a.73.73 0 0 1-.4.14c-.17 0-.3-.1-.44-.2a3.54 3.54 0 0 1-.82-.77l-.37-.5c-.07-.08-.35-.36-.35-.47v.07a6.2 6.2 0 0 0 6.2 6.2Zm2.53-11.87c-.03.34.11.74.59 1.37.25.33.51.66.78.98.2.25.57.55.57.9 0 .23-.18.43-.36.58a2.7 2.7 0 0 1-.5.33c-.15.08-.32.18-.32.35 0 .15.14.25.27.33.5.3 1 .57 1.52.84.23.11.52.2.71.37.13.12.21.29.35.4a6.2 6.2 0 0 0-3.61-6.44Z"/>
    <path d="M191.76 43.32c.08-.06.16-.1.25-.15.18-.1.4-.21.44-.42.06-.27-.21-.5-.45-.64l-.75-.46a1.44 1.44 0 0 1-.34-.25c-.1-.11-.16-.25-.22-.4a9.11 9.11 0 0 1-.38-1.1c-.04-.15-.12-.77-.33-.8a6.22 6.22 0 0 0-1.48.01c.12 0 .41.75.45.86.17.5.36 1 .46 1.52.1.5.72.76 1.12 1.03.05.04.11.08.14.15.03.08 0 .16-.04.24-.1.23-.28.43-.42.65-.13.22-.23.49-.17.74.06.24.24.42.41.58 1.33 1.27 2.73 2.49 3.98 3.82.26-.4.48-.83.65-1.29.05-.12-.68-.7-.77-.78-.43-.34-.9-.61-1.33-.96l-1.2-.96c-.17-.15-.36-.3-.42-.52a.7.7 0 0 1 .14-.62c.07-.1.16-.18.26-.25Z"/>
  </g>
  <g fill="#fff" opacity=".2">
    <path d="m189.96 48.99.14.3c.09.19 1.03 1.89 1.1 1.87.37-.13.74-.28 1.08-.47-.38-.56-.85-1.11-1.19-1.69-.25-.43-.4-.9-.55-1.36-.07-.2-.14-.4-.27-.57a.78.78 0 0 0-.5-.34.2.2 0 0 0-.1 0c-.08.04-.1.13-.1.21-.06.68.12 1.4.39 2.05Z"/>
    <path d="M184.72 41.05c1.05 1.02 3 2.93 3.83 3.79.63.65 1.49.95 2.11 1.58.43.43.6 1.04.77 1.63.1.32.28 1.36.77 1.24.02-.17-.09-.56.1-.67.16-.1.31.23.37.33.05.08.63 1.02.62 1.03.18-.15.35-.31.5-.48l-1.61-2.96c-.3-.5 0-1.04.36-.5.23.32 1.24 1.6 1.97 2.53.24-.38.44-.78.59-1.2-.57-.85-1.23-1.88-2.17-2.37-.31-.16-.7-.21-1.01-.05-.21.1-.38.3-.61.36-.3.06-.58-.12-.82-.29-.5-.36-.98-.74-1.44-1.15-.21-.18-.5-.38-.65-.6-.1-.14-.12-.45.04-.56 0-.06.22-.05.26-.04.09.02.15.08.22.13l.64.4c.17.1.38.2.54.1.02-.18-.1-.33-.21-.46a9.37 9.37 0 0 0-1.37-1.23c-.1-.06-.2-.13-.3-.17-.12-.03-.25-.03-.34.04-.1.07-.15.2-.25.27a.36.36 0 0 1-.32-.02c-.23-.13-.4-.38-.61-.53-.2-.15-.88-.8-1.02-.99-.35.25-.67.53-.96.84Z"/>
    <path d="M189.27 39.06c-.8 0-1.56.16-2.27.43 1.03.92 2.65 2.36 3.13 2.67.43.28.73-.15.99-.45.12-.14.27-.33.47-.37.28-.06.57.25.57.52a.9.9 0 0 1-.25.6c-.14.16-.33.3-.4.52-.12.32.07.67.26.96.07.12.16.25.3.28.18.04.34-.12.48-.26.16-.16.34-.3.53-.43a.73.73 0 0 1 .41-.14c.16 0 .3.1.43.2.34.24.56.44.82.77l.37.5c.07.08.35.36.35.47v-.07a6.2 6.2 0 0 0-6.2-6.2Zm-2.54 11.86c.03-.33-.11-.73-.59-1.36-.25-.33-.5-.66-.77-.98-.2-.25-.58-.55-.58-.9 0-.24.18-.43.36-.58.16-.13.32-.24.5-.33.15-.08.32-.18.33-.35 0-.15-.15-.25-.28-.33-.5-.3-1-.57-1.52-.84-.23-.11-.52-.2-.7-.37-.14-.12-.22-.29-.36-.4-.05.25-.05.53-.05.78a6.2 6.2 0 0 0 3.66 5.66Z"/>
    <path d="m186.77 47.21-.24.15c-.19.1-.4.21-.45.42-.06.27.21.5.45.64l.75.46c.12.07.24.15.34.25.1.11.16.25.22.4.15.35.28.73.38 1.1.04.15.12.77.33.8a6.22 6.22 0 0 0 1.48-.01c-.12 0-.4-.75-.45-.87-.17-.49-.36-.99-.46-1.5-.1-.51-.72-.77-1.12-1.04a.5.5 0 0 1-.14-.15c-.03-.08 0-.16.04-.24.1-.23.28-.43.42-.65.13-.23.23-.49.17-.74-.05-.24-.24-.42-.41-.58-1.33-1.27-2.72-2.5-3.98-3.82-.26.4-.48.83-.65 1.29-.05.12.68.7.77.78.43.34.9.61 1.33.96l1.2.96c.17.15.36.3.42.52a.7.7 0 0 1-.14.62c-.07.1-.16.18-.26.25Z"/>
  </g>
  <path fill="#000" d="M195.4 46.2c-.46 2.29-4.6 4.4-7.9 2.97-3.53-1.5-4.2-6.27-2.47-8.43a6.19 6.19 0 0 0 4.24 10.73 6.2 6.2 0 0 0 6.13-5.27Z" opacity=".05"/>
  <path fill="#fff" d="M191.97 41.33a1.44 1.44 0 1 1-2.87 0 1.44 1.44 0 0 1 2.88 0Zm1.03 1.54a.66.66 0 1 1-1.32 0 .66.66 0 0 1 1.32 0Z" opacity=".6"/>
  <path fill="#000" d="M183.06 45.26a6.2 6.2 0 0 0 11.48 3.27c-.14.21-1.9 2.97-6.23 2.18-4.51-.83-5.24-5.44-5.17-6.42-.05.32-.07.64-.07.97Z" opacity=".05"/>
  <path fill="#BA68C8" d="M120.37 65.55a3.08 3.08 0 1 1 0-6.16 3.08 3.08 0 0 1 0 6.16Zm0-5.87a2.8 2.8 0 1 0 0 5.59 2.8 2.8 0 0 0 0-5.6Z"/>
  <path fill="#BA68C8" d="M120.37 61.6a.86.86 0 1 1 0 1.73.86.86 0 0 1 0-1.72Z"/>
  <path fill="#fff" d="M120.37 61.6a.86.86 0 1 1 0 1.73.86.86 0 0 1 0-1.72Z" opacity=".8"/>
  <path fill="#BA68C8" d="M206.6 31.3a3.08 3.08 0 1 1 .01-6.17 3.08 3.08 0 0 1 0 6.16Zm0-5.88a2.8 2.8 0 1 0 .01 5.6 2.8 2.8 0 0 0 0-5.6Z"/>
  <path fill="#BA68C8" d="M206.6 27.35a.86.86 0 1 1 0 1.73.86.86 0 0 1 0-1.73Z"/>
  <path fill="#fff" d="M206.6 27.35a.86.86 0 1 1 0 1.73.86.86 0 0 1 0-1.73Z" opacity=".8"/>
  <path fill="#BA68C8" d="M33.34 203.63a3.4 3.4 0 0 1 1.83.34c1.1.53 2.02 1.38 3 2.12.98.74 2.1 1.4 3.33 1.43 1.22.04 2.54-.72 2.77-1.93.03-.2.04-.43.15-.6.2-.34.68-.4 1.05-.28s.67.38 1 .58c1.25.74 2.8.57 4.23.36 1.18-.17 2.68-.7 2.67-1.9 0-.77-.68-1.35-1.22-1.92-.53-.57-.97-1.48-.48-2.08.17-.21.43-.34.68-.42 1.49-.49 3.3.16 4.55-.77.93-.69 1.15-2.09.66-3.14a3.98 3.98 0 0 0-2.67-2.03c-1-.25-2.26-.37-2.63-1.33-.32-.84.33-1.75 1.06-2.26.74-.52 1.63-.88 2.14-1.62.53-.77.53-1.84.07-2.65A3.24 3.24 0 0 0 53.3 184c-.46-.09-.94-.1-1.35-.3-.42-.21-.73-.74-.5-1.14.13-.25.41-.38.57-.6.32-.44.04-1.1-.4-1.41-.44-.32-1-.4-1.51-.58-1.08-.36-1.63-.93-1.3-2.02.32-1.13 1.85-1.05 2.3-2.13.41-.97-.7-3-1.57-3.6-.86-.59-1.9-.82-2.85-1.27-.94-.44-1.86-1.23-1.93-2.27-.08-1.07.72-1.97 1.37-2.82.65-.84 1.2-2.03.64-2.93-.55-.88-1.77-.93-2.75-1.24a4.46 4.46 0 0 1-2.7-2.43c-.26-.6-.38-1.26-.7-1.84-.97-1.8-3.41-2.58-5.3-2.36-1 .12-1.33.5-1.8 1.22-.28.43-.57.65-.67 1.25-.14.86.32 1.97-.5 2.63-1.24 1-3.14-.35-3.08 1.9.03.89.12 1.95.42 2.8.34.94 1.02 1.35.45 2.41-.73 1.37-1.2 1.36-2.67 1.36-1.05 0-1.94-.06-2.72.75-1.36 1.4-.55 2.69.66 3.78 1.38 1.23.65 1.78.47 3.38-.08.77.09 1-.6 1.52-1.3.97-2.03.64-1.67 2.54.34 1.73-.18 1.14-1.68 1.78-1.33.58-2.2 2.01-3.29 2.9-.69.58-1.75 1.02-1.81 2.03-.13 1.93 2.27 1.51 3.42 1.97 1.86.76 1.3 3.2-.15 4.12-1.54.97-3.8 1.33-3.91 3.54-.1 1.7.86 2.07 2.18 2.64 1.05.45.92.58.92 1.84 0 2.53.85 3.24 3.34 2.83.68-.11 1.72-.4 2.4-.2.96.3.64.52.66 1.32.07 2.04 2.45 1.47 3.46.6 1.16-1.01 2.61-2.18 4.19-2.34Z"/>
  <path fill="#000" d="M33.34 203.63a3.4 3.4 0 0 1 1.83.34c1.1.53 2.02 1.38 3 2.12.98.74 2.1 1.4 3.33 1.43 1.22.04 2.54-.72 2.77-1.93.03-.2.04-.43.15-.6.2-.34.68-.4 1.05-.28s.67.38 1 .58c1.25.74 2.8.57 4.23.36 1.18-.17 2.68-.7 2.67-1.9 0-.77-.68-1.35-1.22-1.92-.53-.57-.97-1.48-.48-2.08.17-.21.43-.34.68-.42 1.49-.49 3.3.16 4.55-.77.93-.69 1.15-2.09.66-3.14a3.98 3.98 0 0 0-2.67-2.03c-1-.25-2.26-.37-2.63-1.33-.32-.84.33-1.75 1.06-2.26.74-.52 1.63-.88 2.14-1.62.53-.77.53-1.84.07-2.65A3.24 3.24 0 0 0 53.3 184c-.46-.09-.94-.1-1.35-.3-.42-.21-.73-.74-.5-1.14.13-.25.41-.38.57-.6.32-.44.04-1.1-.4-1.41-.44-.32-1-.4-1.51-.58-1.08-.36-1.63-.93-1.3-2.02.32-1.13 1.85-1.05 2.3-2.13.41-.97-.7-3-1.57-3.6-.86-.59-1.9-.82-2.85-1.27-.94-.44-1.86-1.23-1.93-2.27-.08-1.07.72-1.97 1.37-2.82.65-.84 1.2-2.03.64-2.93-.55-.88-1.77-.93-2.75-1.24a4.46 4.46 0 0 1-2.7-2.43c-.26-.6-.38-1.26-.7-1.84-.97-1.8-3.41-2.58-5.3-2.36-1 .12-1.33.5-1.8 1.22-.28.43-.57.65-.67 1.25-.14.86.32 1.97-.5 2.63-1.24 1-3.14-.35-3.08 1.9.03.89.12 1.95.42 2.8.34.94 1.02 1.35.45 2.41-.73 1.37-1.2 1.36-2.67 1.36-1.05 0-1.94-.06-2.72.75-1.36 1.4-.55 2.69.66 3.78 1.38 1.23.65 1.78.47 3.38-.08.77.09 1-.6 1.52-1.3.97-2.03.64-1.67 2.54.34 1.73-.18 1.14-1.68 1.78-1.33.58-2.2 2.01-3.29 2.9-.69.58-1.75 1.02-1.81 2.03-.13 1.93 2.27 1.51 3.42 1.97 1.86.76 1.3 3.2-.15 4.12-1.54.97-3.8 1.33-3.91 3.54-.1 1.7.86 2.07 2.18 2.64 1.05.45.92.58.92 1.84 0 2.53.85 3.24 3.34 2.83.68-.11 1.72-.4 2.4-.2.96.3.64.52.66 1.32.07 2.04 2.45 1.47 3.46.6 1.16-1.01 2.61-2.18 4.19-2.34Z" opacity=".1"/>
  <path fill="#000" d="M52.35 199.33c1.14-.37 2.48-.08 3.6-.35-.67-.14-1.35-.28-2.01-.31a5.7 5.7 0 0 0-4.35 1.72c.6.73.9 1.67.87 2.6-2.82.78-5.6-3.01-8.3-1.86.17 1.37.02 3.2-1.32 3.5-.79.18-1.57-.34-2.06-.98-.48-.64-.78-1.4-1.27-2.05a4.32 4.32 0 0 0-5.74-.83c-.73.53-1.65 1.33-2.38.8-.78-.57-.3-2.1-1.17-2.54-.57-.28-1.38.17-1.86-.25-.2-.18-.27-.45-.33-.7-.34-1.45-.64-3.12.27-4.3.81-1.04 2.52-1.68 2.34-2.99-.16-1.12-1.58-1.45-2.7-1.58-1.12-.14-2.54-.66-2.49-1.8.06-1.1 1.56-1.63 1.78-2.72.1-.46-.06-.98.15-1.4.32-.64 1.23-.66 1.76-1.13.96-.85.22-2.44.5-3.7.18-.88.9-1.57 1.14-2.45.47-1.74-1.12-3.4-2.78-4.12-.64-.27-1.32-.48-1.9-.88l-.05-.04c.04.79.62 1.52 1.36 2.19 1.38 1.23.65 1.78.47 3.38-.09.77.09 1-.6 1.52-1.3.97-2.04.64-1.67 2.54.34 1.73-.18 1.14-1.68 1.78-1.33.58-2.21 2.01-3.29 2.9-.7.58-1.75 1.02-1.81 2.03-.13 1.93 2.27 1.51 3.41 1.97 1.87.76 1.31 3.2-.14 4.12-1.54.97-3.8 1.33-3.92 3.54-.1 1.7.87 2.07 2.19 2.64 1.05.45.92.58.91 1.84 0 2.53.85 3.24 3.35 2.83.68-.11 1.72-.4 2.4-.2.96.3.64.52.66 1.32.07 2.04 2.45 1.47 3.45.6 1.16-1.01 2.62-2.18 4.2-2.34a3.4 3.4 0 0 1 1.83.34c1.1.53 2.02 1.38 3 2.12.98.74 2.1 1.4 3.33 1.43 1.22.04 2.54-.72 2.77-1.93.03-.2.04-.43.15-.6.2-.34.68-.4 1.05-.28s.67.38 1 .58c1.25.74 2.8.57 4.23.36 1.18-.17 2.68-.7 2.67-1.9 0-.77-.68-1.35-1.22-1.92-.53-.56-.97-1.48-.48-2.08.17-.21.43-.34.68-.42Z" opacity=".2"/>
  <path fill="#000" d="m29.45 182.8 6.8 13.5v-6.22l.7-26.44 1 26.45v4.17l7.48-13.07-7.48 16.05v44.98c0 .12-.08.25-.25.34-.33.2-.87.2-1.2 0-.16-.1-.25-.22-.25-.34v-42.48l-6.8-16.94Z"/>
  <path fill="#BA68C8" d="M162.52 108.35c.6-.06 1.2.03 1.82.33 1.1.52 2 1.36 2.96 2.1a5.98 5.98 0 0 0 3.29 1.41c1.2.04 2.51-.71 2.73-1.9.04-.21.05-.43.16-.61.2-.33.67-.4 1.03-.27.37.12.67.38 1 .58 1.23.72 2.76.56 4.17.35 1.17-.17 2.65-.69 2.64-1.87 0-.77-.67-1.34-1.2-1.9-.53-.56-.97-1.46-.48-2.06.17-.21.42-.34.68-.42 1.46-.48 3.25.16 4.5-.76.9-.68 1.12-2.06.64-3.1a3.93 3.93 0 0 0-2.64-2c-.98-.26-2.23-.37-2.6-1.32-.32-.83.32-1.72 1.05-2.23s1.61-.87 2.12-1.6c1.29-1.87-.15-5.15-1.69-6.4-.76-.63-1.73-1.1-2.16-1.99-.61-1.26.11-2.71.28-4.1a5.21 5.21 0 0 0-2.24-4.86c-.96-.64-2.27-1.14-2.44-2.28-.15-1.07.85-1.96.98-3.03.13-1.1-.69-2.1-1.63-2.67-.94-.57-2.03-.85-2.98-1.4-1.97-1.11-2.08-2.93-3.36-4.46-1.05-1.25-3.11-1.72-4.67-1.54-.98.11-1.3.49-1.78 1.2-.28.43-.56.65-.66 1.24-.14.85.31 1.94-.5 2.6-1.22.99-3.1-.35-3.03 1.87.02.88.11 1.94.41 2.77.34.94 1 1.34.45 2.39-.72 1.35-1.2 1.34-2.64 1.34-1.05 0-1.92-.06-2.69.74-1.35 1.4-.55 2.65.65 3.73 1.37 1.22.64 1.76.47 3.34-.1.77.08 1-.6 1.5-1.29.96-2 .64-1.65 2.52.33 1.7-.18 1.12-1.66 1.76-1.31.57-2.18 1.98-3.25 2.87-.68.56-1.73 1-1.8 2-.11 1.9 2.26 1.5 3.39 1.95 1.84.74 1.3 3.16-.15 4.06-1.52.96-3.74 1.32-3.87 3.5-.09 1.68.86 2.05 2.16 2.61 1.04.45.9.58.9 1.82 0 2.5.85 3.2 3.31 2.8.68-.11 1.7-.4 2.38-.2.94.29.62.52.65 1.3.07 2.02 2.42 1.46 3.41.6 1.15-1 2.59-2.16 4.14-2.31Z"/>
  <path fill="#000" d="M162.52 108.35c.6-.06 1.2.03 1.82.33 1.1.52 2 1.36 2.96 2.1a5.98 5.98 0 0 0 3.29 1.41c1.2.04 2.51-.71 2.73-1.9.04-.21.05-.43.16-.61.2-.33.67-.4 1.03-.27.37.12.67.38 1 .58 1.23.72 2.76.56 4.17.35 1.17-.17 2.65-.69 2.64-1.87 0-.77-.67-1.34-1.2-1.9-.53-.56-.97-1.46-.48-2.06.17-.21.42-.34.68-.42 1.46-.48 3.25.16 4.5-.76.9-.68 1.12-2.06.64-3.1a3.93 3.93 0 0 0-2.64-2c-.98-.26-2.23-.37-2.6-1.32-.32-.83.32-1.72 1.05-2.23s1.61-.87 2.12-1.6c1.29-1.87-.15-5.15-1.69-6.4-.76-.63-1.73-1.1-2.16-1.99-.61-1.26.11-2.71.28-4.1a5.21 5.21 0 0 0-2.24-4.86c-.96-.64-2.27-1.14-2.44-2.28-.15-1.07.85-1.96.98-3.03.13-1.1-.69-2.1-1.63-2.67-.94-.57-2.03-.85-2.98-1.4-1.97-1.11-2.08-2.93-3.36-4.46-1.05-1.25-3.11-1.72-4.67-1.54-.98.11-1.3.49-1.78 1.2-.28.43-.56.65-.66 1.24-.14.85.31 1.94-.5 2.6-1.22.99-3.1-.35-3.03 1.87.02.88.11 1.94.41 2.77.34.94 1 1.34.45 2.39-.72 1.35-1.2 1.34-2.64 1.34-1.05 0-1.92-.06-2.69.74-1.35 1.4-.55 2.65.65 3.73 1.37 1.22.64 1.76.47 3.34-.1.77.08 1-.6 1.5-1.29.96-2 .64-1.65 2.52.33 1.7-.18 1.12-1.66 1.76-1.31.57-2.18 1.98-3.25 2.87-.68.56-1.73 1-1.8 2-.11 1.9 2.26 1.5 3.39 1.95 1.84.74 1.3 3.16-.15 4.06-1.52.96-3.74 1.32-3.87 3.5-.09 1.68.86 2.05 2.16 2.61 1.04.45.9.58.9 1.82 0 2.5.85 3.2 3.31 2.8.68-.11 1.7-.4 2.38-.2.94.29.62.52.65 1.3.07 2.02 2.42 1.46 3.41.6 1.15-1 2.59-2.16 4.14-2.31Z" opacity=".1"/>
  <path fill="#000" d="M181.32 104.1c1.12-.38 2.44-.09 3.55-.35-.67-.14-1.34-.28-2-.31a5.64 5.64 0 0 0-4.29 1.7c.59.72.9 1.65.87 2.58-1.54.42-3.03-.5-4.35-1.17-.67-.33-1.27-.72-2.03-.54-.75.18-1.44.75-1.77 1.45-.36.77-.36 1.65-1.36 1.88-.78.17-1.55-.35-2.03-.98-.48-.63-.78-1.39-1.26-2.02a4.27 4.27 0 0 0-5.68-.83c-.72.53-1.62 1.32-2.34.8-.78-.56-.3-2.08-1.16-2.51-.57-.28-1.36.17-1.84-.25-.2-.18-.26-.45-.32-.7-.34-1.43-.63-3.08.26-4.23.8-1.04 2.5-1.67 2.31-2.96-.15-1.1-1.56-1.44-2.67-1.57-1.1-.13-2.5-.65-2.45-1.77.05-1.09 1.53-1.62 1.75-2.69.1-.46-.06-.97.15-1.39.32-.63 1.22-.65 1.75-1.12.94-.84.2-2.4.48-3.64.19-.88.9-1.56 1.13-2.43.47-1.72-1.1-3.37-2.75-4.07-.63-.27-1.3-.47-1.87-.87l-.06-.04c.04.78.62 1.5 1.35 2.16 1.37 1.22.64 1.76.47 3.34-.09.76.08 1-.6 1.5-1.29.96-2 .64-1.65 2.52.34 1.7-.17 1.12-1.66 1.76-1.31.56-2.18 1.98-3.25 2.86-.68.57-1.73 1.01-1.8 2-.11 1.92 2.26 1.5 3.39 1.95 1.84.75 1.3 3.17-.15 4.07-1.52.96-3.74 1.31-3.87 3.5-.09 1.68.86 2.05 2.16 2.6 1.04.46.9.59.9 1.83 0 2.5.85 3.2 3.31 2.8.68-.11 1.7-.4 2.38-.2.94.28.62.52.65 1.3.07 2.02 2.42 1.45 3.41.59 1.15-1 2.59-2.15 4.14-2.3.6-.06 1.2.03 1.82.32 1.09.53 2 1.37 2.96 2.1a5.99 5.99 0 0 0 3.28 1.42c1.22.04 2.52-.72 2.74-1.9.04-.21.05-.43.16-.61.2-.33.67-.4 1.03-.27.37.12.67.38 1 .58 1.22.72 2.76.56 4.17.35 1.17-.17 2.65-.69 2.64-1.87 0-.77-.67-1.34-1.2-1.9-.54-.56-.97-1.46-.48-2.06.17-.21.42-.34.68-.42Z" opacity=".2"/>
  <path fill="#000" d="m158.68 87.76 6.73 13.33v-6.13l.68-26.13 1 26.13v4.12l7.38-12.92-7.39 15.87v40.06c0 .13-.08.25-.24.34-.33.2-.86.2-1.19 0-.16-.09-.25-.21-.25-.34v-37.6l-6.72-16.73Z"/>
  <path fill="#263238" d="m151.7 260.74-31.98-18.47 7.16-4.13c.61-.36.92-.79.92-1.3 0-.52-.3-.95-.92-1.3l-8.83-5.1a4.44 4.44 0 0 0-2.25-.53c-.89 0-1.64.18-2.25.53l-7.16 4.14-8.5-4.9a4.45 4.45 0 0 0-2.24-.54c-.9 0-1.64.18-2.25.53l-10.92 6.3c-.6.35-.91.79-.91 1.3s.3.95.91 1.3l8.5 4.9-26.24 15.15c-.61.36-.92.79-.92 1.3 0 .52.3.95.92 1.3l8.83 5.1c1.44.83 3 1.31 4.66 1.44l56.31 3.75c1.12.07 1.98.03 2.59-.1.6-.12 1.27-.4 2-.81l12.58-7.26c.6-.35.91-.79.91-1.3 0-.52-.3-.95-.91-1.3Zm-59.14-2.79 12.16-7.02 15.33 8.85-27.49-1.83Zm107.09-45.28a211.2 211.2 0 0 0-14.83-8.56 53.44 53.44 0 0 0-10.33-4 45.59 45.59 0 0 0-11.62-1.6c-4.03-.05-8.15.43-12.37 1.46a47.72 47.72 0 0 0-12.58 5.15c-4.16 2.4-7.13 4.82-8.91 7.26-1.78 2.43-2.62 4.81-2.54 7.14.08 2.32 1.01 4.56 2.79 6.7a29.89 29.89 0 0 0 6.91 5.97 221.65 221.65 0 0 0 14.83 8.56 53.33 53.33 0 0 0 10.33 4 45.51 45.51 0 0 0 11.62 1.6 49.8 49.8 0 0 0 12.37-1.46 47.75 47.75 0 0 0 12.58-5.15c4.16-2.4 7.13-4.82 8.91-7.26 1.78-2.44 2.62-4.82 2.54-7.14-.08-2.33-1.01-4.56-2.79-6.71a29.97 29.97 0 0 0-6.91-5.96Zm-11.66 16.54c-.62.93-1.75 1.88-3.42 2.84s-3.3 1.62-4.91 1.97a16.4 16.4 0 0 1-4.71.36 19.66 19.66 0 0 1-4.54-.89c-1.5-.48-2.97-1.1-4.42-1.88-4.88-2.5-9.55-5.19-13.99-8.08a19.04 19.04 0 0 1-3.3-2.52 5 5 0 0 1-1.53-2.62c-.17-.9.05-1.81.67-2.74.6-.93 1.74-1.88 3.41-2.84 1.67-.96 3.3-1.62 4.91-1.97a17.1 17.1 0 0 1 9.3.5c1.46.5 2.92 1.13 4.37 1.9 4.94 2.6 9.6 5.3 13.99 8.08 1.28.87 2.34 1.72 3.2 2.57a5.37 5.37 0 0 1 1.6 2.6 3.5 3.5 0 0 1-.63 2.72Zm80.84-36.1-31.98-18.47 7.16-4.13c.6-.35.91-.79.92-1.3 0-.51-.31-.95-.92-1.3l-8.83-5.1a4.44 4.44 0 0 0-2.25-.53c-.89 0-1.64.18-2.25.53l-7.16 4.14-8.5-4.9a4.44 4.44 0 0 0-2.25-.54c-.89 0-1.64.18-2.25.53l-10.9 6.3c-.62.36-.93.8-.93 1.3 0 .52.31.95.92 1.3l8.5 4.9L181.87 191c-.61.35-.92.78-.92 1.3 0 .51.3.94.92 1.3l8.83 5.1c1.44.83 3 1.3 4.66 1.44l56.31 3.75c1.11.06 1.98.03 2.59-.1a7 7 0 0 0 2-.82l12.57-7.26c.61-.35.92-.78.92-1.3 0-.51-.3-.94-.92-1.3Zm-59.14-2.79 12.16-7.02 15.33 8.85-27.5-1.83Z"/>
  <path fill="#BA68C8" d="M102.15 190.05a1.37 1.37 0 0 0-.27-.2c-.37-.2-8.12-4.69-8.12-4.69V146.7c0-.9-.22-1.56-.64-1.97a1.4 1.4 0 0 0-.26-.2l-8.67-5c-.38-.23-.8-.2-1.28.07l-12.06 6.97c-.7.4-1.24.86-1.64 1.37-.4.52-.84 1.37-1.32 2.55l-23.88 60.15c-.7 1.8-1.04 3.76-1.04 5.9v13.03c0 .9.21 1.56.64 1.97.09.08.18.15.27.2.37.2 8.59 4.96 8.68 5 .37.22.78.2 1.26-.08l16.47-9.51v2.5c0 .91.21 1.57.64 1.98.08.08.17.14.26.2.37.2 8.6 4.96 8.68 5 .37.22.8.2 1.27-.08l10.46-6.04a4 4 0 0 0 1.52-1.86c.43-.9.64-1.8.64-2.7V213.6l6.87-3.97a4.02 4.02 0 0 0 1.52-1.86c.42-.9.64-1.8.64-2.7v-13.04c0-.9-.22-1.56-.64-1.97Z"/>
  <path fill="#000" d="m77.84 152.94-.04.15c-.37.52-.78 1.32-1.22 2.4L52.7 215.65c-.31.79-.55 1.61-.7 2.47l-8.75-5.05c.17-.84.4-1.66.7-2.44l23.87-60.15a11.1 11.1 0 0 1 1.33-2.55l8.7 5Z" opacity=".15"/>
  <path fill="#000" d="m52.45 236.67-8.57-4.94a1.5 1.5 0 0 1-.27-.21c-.43-.4-.64-1.06-.64-1.97v-13.02c0-1.2.13-2.34.34-3.43l8.68 5.02a16.8 16.8 0 0 0-.33 3.42v13.04c0 .9.22 1.55.63 1.95l.16.14Z" opacity=".3"/>
  <path fill="#000" d="m79.38 202.22-11.66 6.72L72.07 198l7.31 4.23Z" opacity=".4"/>
  <path fill="#000" d="m79.62 236.63.15.13-8.58-4.94a.94.94 0 0 1-.26-.2c-.42-.41-.64-1.07-.64-1.97v-2.52l8.69-5.01v12.54c0 .9.21 1.56.64 1.97Z" opacity=".3"/>
  <path fill="#000" d="M101.78 189.8c-.34-.15-.73-.1-1.15.14l-6.87 3.97v-8.74l8.02 4.63Z" opacity=".15"/>
  <path fill="#BA68C8" d="M92.8 144.49c-.35-.18-.76-.14-1.2.12l-12.06 6.96c-.7.4-1.23.85-1.63 1.37l-8.69-5.02c.4-.51.94-.96 1.63-1.37l12.06-6.96c.48-.28.9-.3 1.27-.08.09.05 7.81 4.5 8.62 4.98Z" opacity=".5"/>
  <path fill="#BA68C8" d="M81.14 236.74c-.59.34-1.1.3-1.52-.1-.43-.42-.64-1.07-.64-1.97v-12.55l-25.16 14.53c-.59.34-1.1.3-1.52-.11-.43-.4-.64-1.06-.64-1.97v-13.03c0-2.14.35-4.1 1.04-5.9l23.88-60.15a11.6 11.6 0 0 1 1.32-2.54c.4-.52.95-.98 1.64-1.38l12.06-6.96c.59-.34 1.1-.3 1.52.1.42.42.64 1.07.64 1.97v47.23l6.87-3.97c.58-.33 1.09-.3 1.52.11.42.41.63 1.07.63 1.97v13.04c0 .9-.2 1.8-.63 2.7-.43.9-.94 1.52-1.52 1.86l-6.87 3.97v12.54c0 .9-.22 1.8-.64 2.7a4.05 4.05 0 0 1-1.52 1.87l-10.46 6.04Zm-1.76-34.53v-22.63l-11.66 29.37 11.66-6.74Z"/>
  <path fill="#fff" d="M81.14 236.74c-.59.34-1.1.3-1.52-.1-.43-.42-.64-1.07-.64-1.97v-12.55l-25.16 14.53c-.59.34-1.1.3-1.52-.11-.43-.4-.64-1.06-.64-1.97v-13.03c0-2.14.35-4.1 1.04-5.9l23.88-60.15a11.6 11.6 0 0 1 1.32-2.54c.4-.52.95-.98 1.64-1.38l12.06-6.96c.59-.34 1.1-.3 1.52.1.42.42.64 1.07.64 1.97v47.23l6.87-3.97c.58-.33 1.09-.3 1.52.11.42.41.63 1.07.63 1.97v13.04c0 .9-.2 1.8-.63 2.7-.43.9-.94 1.52-1.52 1.86l-6.87 3.97v12.54c0 .9-.22 1.8-.64 2.7a4.05 4.05 0 0 1-1.52 1.87l-10.46 6.04Zm-1.76-34.53v-22.63l-11.66 29.37 11.66-6.74Z" opacity=".3"/>
  <path fill="#BA68C8" d="M158.14 138.29c-.16-4.33-.7-8.26-1.64-11.78-.93-3.52-2.34-6.25-4.23-8.2a10.4 10.4 0 0 0-2.18-1.71c-1.45-.85-7.9-4.56-8.7-5.03a10.8 10.8 0 0 0-4.96-1.4c-2.87-.14-6.3.94-10.3 3.24-4 2.3-7.43 5.2-10.3 8.66a51.1 51.1 0 0 0-7.16 11.38 59.75 59.75 0 0 0-4.23 13.08 83.52 83.52 0 0 0-1.64 13.68 374.87 374.87 0 0 0 0 21.89c.16 4.33.7 8.26 1.64 11.78.93 3.53 2.34 6.26 4.23 8.2a9.98 9.98 0 0 0 2.17 1.7c1.45.86 8 4.63 8.84 5.1 1.41.8 3.02 1.25 4.83 1.34 2.88.15 6.31-.94 10.3-3.24 4-2.3 7.44-5.2 10.31-8.66a50.98 50.98 0 0 0 7.15-11.38 59.81 59.81 0 0 0 4.23-13.08 83.7 83.7 0 0 0 1.64-13.68 359.9 359.9 0 0 0 0-21.89Zm-31.56 43.7a37.1 37.1 0 0 1-.31-4.02c-.27-6.81-.27-13.7 0-20.66.05-2.08.24-4.07.56-5.98.32-1.9.8-3.68 1.44-5.32a17.5 17.5 0 0 1 2.55-4.5 13.89 13.89 0 0 1 3.47-3.07c.18 1.21.3 2.54.39 3.98.2 6.69.2 13.57 0 20.67a47.18 47.18 0 0 1-.52 5.95 24.6 24.6 0 0 1-1.44 5.32 18.22 18.22 0 0 1-2.6 4.51 13.63 13.63 0 0 1-3.54 3.13Z"/>
  <path fill="#000" d="m119.44 208.75-8.6-4.96c-.79-.46-1.5-1.04-2.17-1.71-1.89-1.95-3.3-4.68-4.23-8.2a54.07 54.07 0 0 1-1.64-11.78 377.76 377.76 0 0 1 0-21.9c.16-4.51.7-9.07 1.64-13.67a58.74 58.74 0 0 1 2.7-9.36l8.67 5.03c-1.14 3-2.02 6.12-2.67 9.35a82.59 82.59 0 0 0-1.65 13.68 374.36 374.36 0 0 0 0 21.89c.16 4.33.7 8.26 1.65 11.78.91 3.52 2.34 6.26 4.22 8.2.63.65 1.34 1.2 2.08 1.65Z" opacity=".15"/>
  <path fill="#fff" d="M149.76 116.42a11.1 11.1 0 0 0-4.64-1.23c-2.88-.14-6.3.94-10.3 3.24a38.03 38.03 0 0 0-10.3 8.66 50.98 50.98 0 0 0-8.7 15.11h-.01l-8.67-5.03a51.39 51.39 0 0 1 8.68-15.11 38.23 38.23 0 0 1 10.3-8.65c4-2.31 7.44-3.38 10.32-3.24 1.85.1 3.5.56 4.95 1.4.75.44 6.46 3.72 8.37 4.85Z" opacity=".5"/>
  <path fill="#000" d="M143.37 168.1a47.68 47.68 0 0 1-.53 5.96c-.28 1.9-.77 3.66-1.43 5.31a17.3 17.3 0 0 1-1 2.08l-8.68-5.02c.37-.66.7-1.36.99-2.07a24.63 24.63 0 0 0 1.44-5.32c.29-1.89.46-3.88.51-5.95.22-7.1.22-13.98 0-20.67-.07-1.44-.2-2.77-.37-3.98 0 0 .22-.17.51-.34 1.6-.95 2.93-1.31 4-1.2a3.6 3.6 0 0 1 2.56 1.54c.64.9 1.1 2.13 1.4 3.68.29 1.56.49 3.33.6 5.32.2 6.68.2 13.57 0 20.66Z" opacity=".3"/>
  <path fill="#000" d="M140.42 181.45c-.47.86-1.01 1.68-1.6 2.44a13.67 13.67 0 0 1-4 3.4c-1.6.94-2.93 1.33-4 1.2a3.63 3.63 0 0 1-2.6-1.5 8.76 8.76 0 0 1-1.43-3.66c-.09-.43-.15-.88-.21-1.34a13.5 13.5 0 0 0 3.54-3.12c.6-.76 1.14-1.57 1.61-2.44l8.69 5.02Z" opacity=".4"/>
  <path fill="#BA68C8" d="M134.82 118.43c3.99-2.3 7.43-3.39 10.3-3.25a10.4 10.4 0 0 1 7.15 3.13c1.89 1.95 3.3 4.68 4.23 8.2a54 54 0 0 1 1.64 11.78 363.09 363.09 0 0 1 0 21.9 83.7 83.7 0 0 1-1.64 13.67 59.86 59.86 0 0 1-4.23 13.08 51 51 0 0 1-7.15 11.38 37.9 37.9 0 0 1-10.3 8.66c-4 2.3-7.43 3.38-10.3 3.24a10.3 10.3 0 0 1-7.16-3.13c-1.89-1.94-3.3-4.67-4.23-8.2a53.78 53.78 0 0 1-1.64-11.77 374.92 374.92 0 0 1 0-21.9c.16-4.52.7-9.07 1.64-13.67.93-4.6 2.34-8.96 4.23-13.08a51.13 51.13 0 0 1 7.15-11.39 37.93 37.93 0 0 1 10.3-8.65Zm8.54 49.67c.21-7.1.21-13.98 0-20.66-.1-1.99-.3-3.76-.6-5.31a9.38 9.38 0 0 0-1.4-3.69 3.52 3.52 0 0 0-2.55-1.53c-1.07-.13-2.4.28-4 1.2-1.6.92-2.92 2.05-3.99 3.4a17.5 17.5 0 0 0-2.55 4.5 26.88 26.88 0 0 0-1.44 5.32c-.32 1.9-.5 3.9-.56 5.98-.27 6.96-.27 13.85 0 20.66.05 2.02.23 3.8.52 5.36a8.7 8.7 0 0 0 1.44 3.66 3.6 3.6 0 0 0 2.6 1.5c1.06.13 2.39-.27 3.99-1.19 1.6-.92 2.93-2.06 3.99-3.41a18.2 18.2 0 0 0 2.6-4.51 24.08 24.08 0 0 0 1.43-5.32c.3-1.9.47-3.88.52-5.96Z"/>
  <path fill="#fff" d="M134.82 118.43c3.99-2.3 7.43-3.39 10.3-3.25a10.4 10.4 0 0 1 7.15 3.13c1.89 1.95 3.3 4.68 4.23 8.2a54 54 0 0 1 1.64 11.78 363.09 363.09 0 0 1 0 21.9 83.7 83.7 0 0 1-1.64 13.67 59.86 59.86 0 0 1-4.23 13.08 51 51 0 0 1-7.15 11.38 37.9 37.9 0 0 1-10.3 8.66c-4 2.3-7.43 3.38-10.3 3.24a10.3 10.3 0 0 1-7.16-3.13c-1.89-1.94-3.3-4.67-4.23-8.2a53.78 53.78 0 0 1-1.64-11.77 374.92 374.92 0 0 1 0-21.9c.16-4.52.7-9.07 1.64-13.67.93-4.6 2.34-8.96 4.23-13.08a51.13 51.13 0 0 1 7.15-11.39 37.93 37.93 0 0 1 10.3-8.65Zm8.54 49.67c.21-7.1.21-13.98 0-20.66-.1-1.99-.3-3.76-.6-5.31a9.38 9.38 0 0 0-1.4-3.69 3.52 3.52 0 0 0-2.55-1.53c-1.07-.13-2.4.28-4 1.2-1.6.92-2.92 2.05-3.99 3.4a17.5 17.5 0 0 0-2.55 4.5 26.88 26.88 0 0 0-1.44 5.32c-.32 1.9-.5 3.9-.56 5.98-.27 6.96-.27 13.85 0 20.66.05 2.02.23 3.8.52 5.36a8.7 8.7 0 0 0 1.44 3.66 3.6 3.6 0 0 0 2.6 1.5c1.06.13 2.39-.27 3.99-1.19 1.6-.92 2.93-2.06 3.99-3.41a18.2 18.2 0 0 0 2.6-4.51 24.08 24.08 0 0 0 1.43-5.32c.3-1.9.47-3.88.52-5.96Z" opacity=".3"/>
  <path fill="#BA68C8" d="M219.44 122.33a1.34 1.34 0 0 0-.27-.2c-.37-.2-8.12-4.68-8.12-4.68V78.97c0-.9-.22-1.56-.64-1.97a1.38 1.38 0 0 0-.26-.2l-8.67-5c-.37-.23-.8-.2-1.28.07l-12.06 6.97c-.7.4-1.24.86-1.64 1.38-.4.51-.84 1.36-1.31 2.54L161.3 142.9c-.7 1.8-1.04 3.76-1.04 5.9v13.03c0 .9.21 1.56.64 1.97.09.08.18.15.27.2.37.2 8.59 4.96 8.68 5.01.37.22.78.19 1.26-.09l16.47-9.51v2.51c0 .9.21 1.56.64 1.97.08.08.17.15.26.2l8.68 5.01c.37.22.8.19 1.27-.09l10.46-6.04a3.9 3.9 0 0 0 1.52-1.86c.43-.9.64-1.8.64-2.7v-12.55l6.87-3.97a4.02 4.02 0 0 0 1.52-1.86c.42-.9.64-1.8.64-2.7V124.3c0-.9-.22-1.55-.64-1.97Z"/>
  <path fill="#000" d="m195.13 85.22-.04.15a12.7 12.7 0 0 0-1.22 2.4L170 147.94c-.3.8-.55 1.62-.7 2.47l-8.75-5.05c.17-.84.4-1.65.7-2.43l23.87-60.16a11.2 11.2 0 0 1 1.33-2.55h.01l8.68 5.01Z" opacity=".15"/>
  <path fill="#000" d="m169.75 168.96-8.58-4.95a1.48 1.48 0 0 1-.27-.2c-.43-.41-.64-1.07-.64-1.98v-13.02c0-1.2.13-2.33.34-3.42l8.69 5.01a16.78 16.78 0 0 0-.34 3.42v13.04c0 .9.22 1.55.63 1.96l.16.14Zm26.92-57.09v22.63l-7.31-4.22 7.31-18.41Z" opacity=".3"/>
  <path fill="#000" d="m196.67 134.5-11.66 6.73 4.35-10.95 7.31 4.22Z" opacity=".4"/>
  <path fill="#000" d="m196.9 168.91.16.13-8.58-4.94a.96.96 0 0 1-.25-.2c-.43-.4-.65-1.07-.65-1.97v-2.51l8.69-5.02v12.55c0 .9.21 1.56.64 1.96Z" opacity=".3"/>
  <path fill="#000" d="M219.07 122.08c-.34-.15-.73-.1-1.15.14l-6.87 3.97v-8.74l8.02 4.63Z" opacity=".15"/>
  <path fill="#fff" d="M210.1 76.77c-.36-.18-.76-.14-1.21.12l-12.06 6.96c-.7.4-1.23.86-1.63 1.37l-8.69-5.02c.4-.51.95-.96 1.63-1.37l12.06-6.96c.48-.28.9-.3 1.28-.07l8.62 4.97Z" opacity=".5"/>
  <path fill="#BA68C8" d="M198.43 169.02c-.59.34-1.1.3-1.52-.1-.43-.41-.64-1.07-.64-1.97V154.4l-25.16 14.53c-.59.34-1.1.3-1.52-.1-.43-.42-.64-1.07-.64-1.98v-13.03c0-2.13.35-4.1 1.04-5.89l23.88-60.16c.48-1.17.92-2.02 1.32-2.54s.95-.98 1.64-1.38l12.06-6.96c.59-.34 1.1-.3 1.52.1.43.42.64 1.08.64 1.98v47.22l6.87-3.96c.58-.34 1.09-.3 1.52.1.42.42.63 1.07.63 1.97v13.04c0 .9-.2 1.8-.63 2.7-.43.9-.94 1.53-1.52 1.86l-6.87 3.97v12.54c0 .9-.21 1.8-.64 2.7a4.05 4.05 0 0 1-1.52 1.87l-10.46 6.04Zm-1.76-34.53v-22.62L185 141.23l11.66-6.74Z"/>
  <path fill="#fff" d="M198.43 169.02c-.59.34-1.1.3-1.52-.1-.43-.41-.64-1.07-.64-1.97V154.4l-25.16 14.53c-.59.34-1.1.3-1.52-.1-.43-.42-.64-1.07-.64-1.98v-13.03c0-2.13.35-4.1 1.04-5.89l23.88-60.16c.48-1.17.92-2.02 1.32-2.54s.95-.98 1.64-1.38l12.06-6.96c.59-.34 1.1-.3 1.52.1.43.42.64 1.08.64 1.98v47.22l6.87-3.96c.58-.34 1.09-.3 1.52.1.42.42.63 1.07.63 1.97v13.04c0 .9-.2 1.8-.63 2.7-.43.9-.94 1.53-1.52 1.86l-6.87 3.97v12.54c0 .9-.21 1.8-.64 2.7a4.05 4.05 0 0 1-1.52 1.87l-10.46 6.04Zm-1.76-34.53v-22.62L185 141.23l11.66-6.74Z" opacity=".3"/>
  <path fill="#BA68C8" d="M238.05 204.72c.59 5.42 3.92 11.5 3.92 11.5l-1.3-.29c-3-6.92-2.62-11.2-2.62-11.2Z"/>
  <path fill="#000" d="M238.05 204.72c.59 5.42 3.92 11.5 3.92 11.5l-1.3-.29c-3-6.92-2.62-11.2-2.62-11.2Z" opacity=".15"/>
  <path fill="#000" d="M241.29 216.02c0 .02.02.03.03.05l-.64-.14c-3-6.92-2.63-11.2-2.63-11.2-.1 2.74 1.82 8.68 3.24 11.29Z" opacity=".15"/>
  <path fill="#BA68C8" d="M241.97 216.22s-.99-4.77-.48-9.3c.5-4.53 2.14-7 2.14-7s-2.3 2.06-3.17 7.03c-.86 4.97-.19 8.89-.19 8.89l1.7.38Z"/>
  <path fill="#000" d="M241.97 216.22s-.99-4.77-.48-9.3c.5-4.53 2.14-7 2.14-7s-2.3 2.06-3.17 7.03c-.86 4.97-.19 8.89-.19 8.89l1.7.38Z" opacity=".2"/>
  <path fill="#000" d="m241.08 216.02-.8-.18s-.68-3.92.18-8.89c.87-4.97 3.17-7.03 3.17-7.03-2.1 2.5-3.86 9.11-2.55 16.1Z" opacity=".1"/>
  <path fill="#BA68C8" d="M241.97 216.22s-.41-4.04 3.32-8.68c0 0-3.93 3.1-4.61 8.39l1.3.3Z"/>
  <path fill="#000" d="M241.29 216.02v.05l-.61-.14c.68-5.28 4.61-8.4 4.61-8.4-1.8 1.96-3.8 4.95-4 8.49Z" opacity=".1"/>
  <path fill="#000" d="M230.06 218.04s-3.44-3.63-3.05-7.85c0 0 .16 3.54 3.6 6.6 0 0-1.06-2.53-1.1-6.02-.03-3.77.9-5.97 1.77-6.89-.97 2-1.21 4.46-.98 7.14a12.86 12.86 0 0 0 2.92 7.19l-3.16-.17Z"/>
  <path fill="#000" d="m224.48 227.81 4.47 1.28 1.47 2.5 6.2.28 2.54-1.9 2.4.86 2.8.16-.36 1.8 4.7.7 1.54-1.26 2.95-.7 3.7-4.57-2.47-1.48-2.02-.4-1.8-3.06-5.54-1.7-4.57-2.25-13.9 2.96-5.6 4 3.49 2.78Z" opacity=".2"/>
  <path fill="#263238" d="m218.37 223.64-.13-.14c-.08-.09-.16-.19-.16-.3-.01-.19.15-.33.31-.42.3-.17.65-.28 1-.31.2-.02.47-.1.45-.3l-.06-.13a2.88 2.88 0 0 1-.36-1.81c.03-.22.1-.46.3-.54a.64.64 0 0 1 .36 0c.46.1.92.24 1.36.4a6.61 6.61 0 0 1-.05-2.6c.07-.35.19-.73.5-.89.42-.22.92.1 1.3.39l.79.61c.23-.61.56-1.2.98-1.7.15-.19.34-.38.58-.36.33.01.5.4.6.7l.37 1.24a4.6 4.6 0 0 1 1.8-.8c.23-.05.5-.07.7.08.12.1.2.24.25.38.17.37.39.79.44 1.19.84-.45 1.94-.2 2.45.63.5.8.34 1.91-.27 2.64a3.23 3.23 0 0 1-2.5 1.08c.37.27.46.82.29 1.25a2.1 2.1 0 0 1-.94.97 3.95 3.95 0 0 1-4.75-.83c.16.19-1.18.75-1.31.77a4.72 4.72 0 0 1-4.3-1.2Z"/>
  <path fill="#BA68C8" d="m235.18 212.46-5.94 4.46-1.92 3.08 4.06.35 5.26 2.08 1.15-3.32-2.52-3.08-.09-3.57Z"/>
  <path fill="#000" d="m235.18 212.46-5.94 4.46-1.92 3.08 4.06.35 5.26 2.08 1.15-3.32-2.52-3.08-.09-3.57Z" opacity=".3"/>
  <path fill="#BA68C8" d="m235.18 212.46 3.78-.08 1.03 3.78-2.2 2.95-2.52-3.08-.09-3.57Z"/>
  <path fill="#000" d="m235.18 212.46 3.78-.08 1.03 3.78-2.2 2.95-2.52-3.08-.09-3.57Z" opacity=".35"/>
  <path fill="#BA68C8" d="m244.7 216.16.68 2.96-2.77-.72-3.18 1.89-1.35 1.92-.93 3.68-.84 5.12-1.88-4.25 2.21-4.34 2.26-2.87 3.49-1.46 2.3-1.94Z"/>
  <path fill="#BA68C8" d="m241.91 227.77 4.39-4.18-2.18-3.38-2.2 7.56Z"/>
  <g fill="#000" opacity=".5">
    <path d="m244.7 216.16.68 2.96-2.77-.72-3.18 1.89-1.35 1.92-.93 3.68-.84 5.12-1.88-4.25 2.21-4.34 2.26-2.87 3.49-1.46 2.3-1.94Z"/>
    <path d="m241.91 227.77 4.39-4.18-2.18-3.38-2.2 7.56Z"/>
  </g>
  <path fill="#BA68C8" d="m231.71 215.06-2.09 2.74-.43 1.5 2.24-.04 5.21 3.17-5.26-2.08-4.06-.35 1.92-3.08 2.47-1.86Zm7.25-2.68.15 3.65-1.97 2.28.65.8 2.2-2.96-1.03-3.77Z"/>
  <path fill="#BA68C8" d="m234.43 226.76-2.9-.35-5.94-1.46-3.86-2.5 1.2-2.06 2.17-.5-1.72.9-.18 1.4 2.1 1.42 8.75 2.34 2.6-3.52-2.22 4.33Z"/>
  <g fill="#000" opacity=".25">
    <path d="m231.71 215.06-2.09 2.74-.43 1.5 2.24-.04 5.21 3.17-5.26-2.08-4.06-.35 1.92-3.08 2.47-1.86Zm7.25-2.68.15 3.65-1.97 2.28.65.8 2.2-2.96-1.03-3.77Z"/>
    <path d="m234.43 226.76-2.9-.35-5.94-1.46-3.86-2.5 1.2-2.06 2.17-.5-1.72.9-.18 1.4 2.1 1.42 8.75 2.34 2.6-3.52-2.22 4.33Z"/>
  </g>
  <path fill="#BA68C8" d="m229.24 216.92-4.14 2.97-1.72.9-.18 1.4 2.1 1.42 8.75 2.34.74-1-3.15-2.52-2.2.32-2.12-2.75 1.92-3.08Z"/>
  <path fill="#000" d="m229.24 216.92-4.14 2.97-1.72.9-.18 1.4 2.1 1.42 8.75 2.34.74-1-3.15-2.52-2.2.32-2.12-2.75 1.92-3.08Z" opacity=".35"/>
  <path fill="#BA68C8" d="m238.96 212.38 5.73 3.78-2.3 1.93-3.49 1.46-2.26 2.88 1.15-3.32 2.2-2.96-1.03-3.77Z"/>
  <path fill="#BA68C8" d="m242.6 218.4-3.17 1.89-1.35 1.92-.93 3.68 1.21 3.27 3.55-1.39 2.21-7.56-1.51-1.8Zm-15.28 1.6 2.12 2.75 2.2-.32-.26-2.08-4.06-.35Zm-2.46 7.09 1.86.32.84-1.07 3.97.07-5.94-1.46-.73 2.14Z"/>
  <g fill="#000" opacity=".45">
    <path d="m238.96 212.38 5.73 3.78-2.3 1.93-3.49 1.46-2.26 2.88 1.15-3.32 2.2-2.96-1.03-3.77Z"/>
    <path d="m242.6 218.4-3.17 1.89-1.35 1.92-.93 3.68 1.21 3.27 3.55-1.39 2.21-7.56-1.51-1.8Zm-15.28 1.6 2.12 2.75 2.2-.32-.26-2.08-4.06-.35Zm-2.46 7.09 1.86.32.84-1.07 3.97.07-5.94-1.46-.73 2.14Z"/>
  </g>
  <path fill="#BA68C8" d="m233.22 226.61-1.69-.2-1.47 1.98 1.76 2.03 1.4-3.8Z"/>
  <path fill="#000" d="m233.22 226.61-1.69-.2-1.47 1.98 1.76 2.03 1.4-3.8Z" opacity=".35"/>
  <path fill="#BA68C8" d="m245.38 219.12 2.35 2.76-1.43 1.72-2.18-3.4-1.51-1.8 2.77.72Zm-9.08 11.89 2.06-1.85-1.21-3.27-.84 5.12Zm.34-8.58-1.85 2.52-3.15-2.52-.26-2.08 5.26 2.08Zm-14.91.03-.75 2.56 3.88 2.06.72-2.13-3.85-2.5Z"/>
  <path fill="#BA68C8" d="m236.3 231.01-4.48-.6 1.4-3.8 1.21.15 1.88 4.25Zm-9.58-3.6 3.34.98 1.47-1.98-3.97-.07-.84 1.07Z"/>
  <g fill="#000" opacity=".4">
    <path d="m245.38 219.12 2.35 2.76-1.43 1.72-2.18-3.4-1.51-1.8 2.77.72Zm-9.08 11.89 2.06-1.85-1.21-3.27-.84 5.12Zm.34-8.58-1.85 2.52-3.15-2.52-.26-2.08 5.26 2.08Zm-14.91.03-.75 2.56 3.88 2.06.72-2.13-3.85-2.5Z"/>
    <path d="m236.3 231.01-4.48-.6 1.4-3.8 1.21.15 1.88 4.25Zm-9.58-3.6 3.34.98 1.47-1.98-3.97-.07-.84 1.07Z"/>
  </g>
  <path fill="#000" d="m245.38 219.12-.69-2.97-5.73-3.77-3.78.08-5.94 4.46-4.14 2.97-2.17.5-1.2 2.07-.75 2.56 3.88 2.06 1.86.33 3.34.98 1.76 2.03 4.49.6 2.05-1.86 3.55-1.39 4.39-4.18 1.43-1.71-2.35-2.76Z" opacity=".35"/>
  <path fill="#263238" d="M253.99 226.06s4.12-3.99 3.89-8.83c0 0-.37 4.04-4.47 7.38 0 0 1.35-2.86 1.57-6.85.23-4.31-.74-6.87-1.68-7.97 1.02 2.33 1.17 5.16.76 8.22a14.73 14.73 0 0 1-3.7 8.08l3.63-.03Z"/>
  <path fill="#BA68C8" d="m248 221.54-3.27 2.45-1.06 1.7 2.24.2 2.9 1.13.63-1.82-1.39-1.7-.05-1.96Z"/>
  <path fill="#000" d="m248 221.54-3.27 2.45-1.06 1.7 2.24.2 2.9 1.13.63-1.82-1.39-1.7-.05-1.96Z" opacity=".3"/>
  <path fill="#BA68C8" d="m248 221.54 2.08-.04.57 2.07-1.2 1.63-1.4-1.7-.05-1.96Z"/>
  <path fill="#000" d="m248 221.54 2.08-.04.57 2.07-1.2 1.63-1.4-1.7-.05-1.96Z" opacity=".35"/>
  <path fill="#BA68C8" d="m253.24 223.57.38 1.63-1.53-.39-1.75 1.04-.74 1.06-.51 2.02-.47 2.82-1.03-2.34 1.22-2.38 1.24-1.59 1.92-.8 1.27-1.07Z"/>
  <path fill="#BA68C8" d="m251.7 229.97 2.42-2.3-1.2-1.87-1.21 4.17Z"/>
  <g fill="#000" opacity=".5">
    <path d="m253.24 223.57.38 1.63-1.53-.39-1.75 1.04-.74 1.06-.51 2.02-.47 2.82-1.03-2.34 1.22-2.38 1.24-1.59 1.92-.8 1.27-1.07Z"/>
    <path d="m251.7 229.97 2.42-2.3-1.2-1.87-1.21 4.17Z"/>
  </g>
  <path fill="#BA68C8" d="m246.1 222.97-1.16 1.51-.23.82 1.23-.02 2.87 1.74-2.9-1.14-2.24-.2 1.06-1.69 1.36-1.02Zm3.98-1.47.08 2-1.08 1.26.36.44 1.21-1.63-.57-2.07Zm-2.49 7.91-1.6-.2-3.27-.8-2.13-1.37.67-1.13 1.2-.28-.96.5-.1.77 1.16.78 4.82 1.29 1.43-1.95-1.22 2.4Z"/>
  <path fill="#000" d="m246.1 222.97-1.16 1.51-.23.82 1.23-.02 2.87 1.74-2.9-1.14-2.24-.2 1.06-1.69 1.36-1.02Zm3.98-1.47.08 2-1.08 1.26.36.44 1.21-1.63-.57-2.07Zm-2.49 7.91-1.6-.2-3.27-.8-2.13-1.37.67-1.13 1.2-.28-.96.5-.1.77 1.16.78 4.82 1.29 1.43-1.95-1.22 2.4Z" opacity=".25"/>
  <path fill="#BA68C8" d="m244.73 224-2.28 1.63-.95.5-.1.77 1.16.78 4.82 1.29.4-.55-1.73-1.4-1.2.18-1.18-1.51 1.06-1.7Z"/>
  <path fill="#000" d="m244.73 224-2.28 1.63-.95.5-.1.77 1.16.78 4.82 1.29.4-.55-1.73-1.4-1.2.18-1.18-1.51 1.06-1.7Z" opacity=".35"/>
  <path fill="#BA68C8" d="m250.08 221.5 3.16 2.07-1.27 1.07-1.92.8-1.24 1.59.63-1.83 1.21-1.63-.57-2.07Z"/>
  <path fill="#BA68C8" d="m252.09 224.81-1.75 1.04-.74 1.06-.51 2.02.66 1.8 1.96-.76 1.21-4.17-.83-.99Zm-8.42.88 1.17 1.51 1.21-.17-.14-1.15-2.24-.2Zm-1.35 3.9 1.03.18.46-.59 2.18.04-3.27-.8-.4 1.17Z"/>
  <g fill="#000" opacity=".45">
    <path d="m250.08 221.5 3.16 2.07-1.27 1.07-1.92.8-1.24 1.59.63-1.83 1.21-1.63-.57-2.07Z"/>
    <path d="m252.09 224.81-1.75 1.04-.74 1.06-.51 2.02.66 1.8 1.96-.76 1.21-4.17-.83-.99Zm-8.42.88 1.17 1.51 1.21-.17-.14-1.15-2.24-.2Zm-1.35 3.9 1.03.18.46-.59 2.18.04-3.27-.8-.4 1.17Z"/>
  </g>
  <path fill="#BA68C8" d="m246.92 229.33-.93-.11-.8 1.09.96 1.12.77-2.1Z"/>
  <path fill="#000" d="m246.92 229.33-.93-.11-.8 1.09.96 1.12.77-2.1Z" opacity=".35"/>
  <path fill="#BA68C8" d="m253.62 225.2 1.29 1.52-.79.95-1.2-1.87-.83-.99 1.53.4Zm-5 6.55 1.13-1.02-.66-1.8-.47 2.82Zm.18-4.72-1.02 1.39-1.73-1.4-.14-1.14 2.9 1.15Zm-8.2.01-.42 1.42 2.14 1.13.4-1.17-2.13-1.38Zm8.02 4.71-2.47-.32.77-2.1.67.08 1.03 2.34Zm-5.28-1.98 1.84.54.81-1.1-2.19-.03-.46.6Z"/>
  <path fill="#000" d="m253.62 225.2 1.29 1.52-.79.95-1.2-1.87-.83-.99 1.53.4Zm-5 6.55 1.13-1.02-.66-1.8-.47 2.82Zm.18-4.72-1.02 1.39-1.73-1.4-.14-1.14 2.9 1.15Zm-8.2.01-.42 1.42 2.14 1.13.4-1.17-2.13-1.38Zm8.02 4.71-2.47-.32.77-2.1.67.08 1.03 2.34Zm-5.28-1.98 1.84.54.81-1.1-2.19-.03-.46.6Z" opacity=".4"/>
  <path fill="#000" d="m253.62 225.2-.38-1.63-3.16-2.07-2.08.04-3.27 2.45-2.28 1.64-1.2.28-.66 1.13-.4 1.42 2.13 1.13 1.03.18 1.83.54.97 1.12 2.47.32 1.13-1.02 1.96-.76 2.41-2.3.8-.95-1.3-1.52Z" opacity=".2"/>
</svg>
