<svg xmlns="http://www.w3.org/2000/svg" fill="none" viewBox="0 0 361 239">
  <g clip-path="url(#a)">
    <path fill="#263238" d="M112.31 18.388c-28.161 17.354-24.412 33.443-37.983 54.71-12.743 19.97-21.015 22.085-42.65 38.054-19.67 14.52-33.28 49.23-9.692 81.706 25.203 34.697 80.311 45.251 126.011 34.697 58.158-13.431 91.306-69.388 85.91-124.275-4.911-49.955-34.667-78.913-57.903-87.884-23.235-8.97-47.909-6.735-63.693 2.992Z"/>
    <path fill="#BA68C8" d="M22.824 174.467a.107.107 0 0 1-.13-.063l-1.086-2.752a.523.523 0 0 0-.578-.322l-2.287.408a.106.106 0 0 1-.06-.203l2.143-.897a.525.525 0 0 0 .311-.584l-.578-2.902a.107.107 0 0 1 .204-.06l1.087 2.751c.09.23.334.366.578.323l2.287-.408a.106.106 0 0 1 .06.203l-2.143.897a.525.525 0 0 0-.31.584l.577 2.902a.108.108 0 0 1-.075.123Zm-3.171-3.108 1.339-.239a.738.738 0 0 1 .813.454l.653 1.653-.347-1.743a.738.738 0 0 1 .437-.822l1.255-.526-1.34.239a.738.738 0 0 1-.812-.454l-.654-1.653.348 1.743a.737.737 0 0 1-.437.822l-1.255.526Z"/>
    <path fill="#BA68C8" d="M27.693 162.87a.106.106 0 0 1-.129-.063l-.74-1.873a.322.322 0 0 0-.356-.198l-1.556.277a.106.106 0 0 1-.06-.203l1.459-.61a.323.323 0 0 0 .191-.36l-.393-1.975a.107.107 0 0 1 .204-.06l.74 1.873a.321.321 0 0 0 .355.198l1.557-.277a.106.106 0 0 1 .06.203l-1.459.611a.322.322 0 0 0-.19.359l.392 1.976a.107.107 0 0 1-.075.122Zm-1.872-2.235.61-.109a.537.537 0 0 1 .59.33l.307.776-.163-.818a.537.537 0 0 1 .318-.598l.571-.239-.61.109a.538.538 0 0 1-.59-.33l-.307-.776.163.818c.05.248-.085.5-.318.598l-.571.239Z" opacity=".5"/>
    <path fill="#BA68C8" d="M174.575 44.956a.138.138 0 0 1-.167-.082L173 41.312a.677.677 0 0 0-.747-.418l-2.962.529a.137.137 0 0 1-.077-.263l2.775-1.162a.678.678 0 0 0 .401-.756l-.748-3.757a.138.138 0 0 1 .264-.078l1.407 3.563a.68.68 0 0 0 .749.417l2.961-.528a.137.137 0 0 1 .156.097.137.137 0 0 1-.079.166l-2.774 1.161a.679.679 0 0 0-.403.757l.749 3.757a.139.139 0 0 1-.097.159Zm-4.105-4.023 1.734-.31a.954.954 0 0 1 1.052.588l.846 2.141-.449-2.258a.955.955 0 0 1 .566-1.064l1.625-.68-1.735.308a.954.954 0 0 1-1.052-.587l-.846-2.14.449 2.257a.955.955 0 0 1-.565 1.064l-1.625.68Z"/>
    <path fill="#BA68C8" d="M166.902 51.182a.112.112 0 0 1-.136-.067l-.783-1.982a.341.341 0 0 0-.377-.21l-1.648.294a.112.112 0 0 1-.127-.079.112.112 0 0 1 .064-.136l1.544-.646a.34.34 0 0 0 .202-.381l-.416-2.09a.112.112 0 0 1 .079-.13.112.112 0 0 1 .136.067l.783 1.982a.34.34 0 0 0 .376.21l1.648-.294a.113.113 0 0 1 .063.215l-1.544.647a.34.34 0 0 0-.202.38l.416 2.09a.11.11 0 0 1-.078.13Zm-1.98-2.365.645-.115a.567.567 0 0 1 .625.349l.324.82-.172-.865a.566.566 0 0 1 .336-.632l.605-.253-.646.115a.567.567 0 0 1-.625-.349l-.324-.82.172.864a.568.568 0 0 1-.336.633l-.604.253Z" opacity=".5"/>
    <path fill="#BA68C8" d="M55.729 209.017a.128.128 0 0 1-.154-.075l-1.3-3.29a.626.626 0 0 0-.691-.386l-2.736.487a.127.127 0 0 1-.072-.242l2.564-1.073a.628.628 0 0 0 .371-.699l-.691-3.47a.126.126 0 0 1 .089-.146.127.127 0 0 1 .154.075l1.3 3.29c.109.276.4.438.691.386l2.736-.487a.127.127 0 0 1 .072.242l-2.564 1.073a.627.627 0 0 0-.371.699l.69 3.47a.128.128 0 0 1-.088.146Zm-3.792-3.716 1.602-.286a.882.882 0 0 1 .971.543l.782 1.977-.415-2.085a.882.882 0 0 1 .523-.983l1.5-.629-1.602.285a.881.881 0 0 1-.972-.542l-.782-1.977.416 2.085a.882.882 0 0 1-.523.983l-1.5.629Z"/>
    <path fill="#BA68C8" d="M62.778 213.304a.103.103 0 0 1-.126-.061l-.723-1.831a.316.316 0 0 0-.348-.194l-1.522.271a.104.104 0 0 1-.058-.198l1.426-.597a.316.316 0 0 0 .187-.352l-.384-1.93a.103.103 0 0 1 .072-.12.103.103 0 0 1 .126.061l.723 1.831c.055.138.201.22.348.194l1.521-.271a.104.104 0 0 1 .059.198l-1.425.597a.317.317 0 0 0-.188.352l.385 1.93a.104.104 0 0 1-.073.12Zm-1.83-2.184.596-.106a.524.524 0 0 1 .578.322l.3.757-.16-.798a.525.525 0 0 1 .311-.585l.559-.233-.596.106a.524.524 0 0 1-.578-.322v-.001l-.298-.756.158.797a.524.524 0 0 1-.31.585l-.56.234Z" opacity=".5"/>
    <path fill="#BA68C8" d="M220.469 130.09a.116.116 0 0 1-.14-.069l-1.183-2.992a.57.57 0 0 0-.628-.351l-2.487.444a.115.115 0 0 1-.065-.22l2.331-.976a.571.571 0 0 0 .337-.636l-.628-3.156a.115.115 0 0 1 .081-.133.115.115 0 0 1 .14.068l1.183 2.993a.57.57 0 0 0 .628.351l2.488-.444a.116.116 0 0 1 .065.221l-2.331.976a.57.57 0 0 0-.337.635l.628 3.156a.118.118 0 0 1-.082.133Zm-3.449-3.38 1.457-.26a.802.802 0 0 1 .884.494l.711 1.798-.378-1.896a.802.802 0 0 1 .475-.894l1.366-.572-1.457.26a.802.802 0 0 1-.884-.493l-.711-1.799.378 1.897a.801.801 0 0 1-.476.893l-1.365.572ZM138.793 24.677a.06.06 0 0 1-.072-.035l-.606-1.532a.29.29 0 0 0-.321-.179l-1.274.227a.06.06 0 0 1-.067-.041.06.06 0 0 1 .034-.071l1.193-.5c.127-.053.2-.19.173-.325l-.322-1.616a.06.06 0 0 1 .042-.068.059.059 0 0 1 .071.035l.606 1.532c.05.128.186.204.321.18l1.274-.227a.06.06 0 0 1 .067.041.06.06 0 0 1-.034.071l-1.193.5a.292.292 0 0 0-.173.326l.322 1.615a.059.059 0 0 1-.041.067Zm-1.765-1.73.746-.133a.41.41 0 0 1 .452.253l.364.92-.193-.97a.41.41 0 0 1 .243-.458l.699-.293-.746.133a.411.411 0 0 1-.453-.253l-.363-.92.193.97a.41.41 0 0 1-.243.458l-.699.293Z"/>
    <path fill="#BA68C8" d="M222.118 118.192a.095.095 0 0 1-.115-.056l-.658-1.665a.287.287 0 0 0-.316-.176l-1.384.247a.094.094 0 0 1-.107-.067.094.094 0 0 1 .054-.114l1.296-.543a.285.285 0 0 0 .17-.319l-.349-1.756a.094.094 0 0 1 .066-.109.093.093 0 0 1 .114.056l.658 1.664c.05.126.183.2.316.177l1.384-.247a.095.095 0 0 1 .054.181l-1.297.543a.286.286 0 0 0-.17.32l.35 1.755a.096.096 0 0 1-.066.109Zm-1.664-1.987.542-.096a.475.475 0 0 1 .525.293l.272.689-.144-.726a.474.474 0 0 1 .282-.531l.508-.213-.542.097a.478.478 0 0 1-.526-.293v-.001l-.272-.688.144.726a.476.476 0 0 1-.282.531l-.507.212Zm-4.446-48.9a.094.094 0 0 1-.114-.056l-.658-1.664a.286.286 0 0 0-.316-.176l-1.384.246a.095.095 0 0 1-.108-.066.095.095 0 0 1 .054-.114l1.297-.543a.286.286 0 0 0 .17-.32l-.35-1.755a.095.095 0 0 1 .066-.11.094.094 0 0 1 .115.056l.658 1.665c.049.126.183.2.316.176l1.384-.247a.094.094 0 0 1 .107.066.094.094 0 0 1-.054.115l-1.296.543a.288.288 0 0 0-.171.32l.35 1.755a.094.094 0 0 1-.066.11Zm-1.664-1.987.542-.097a.475.475 0 0 1 .525.293l.273.69-.145-.727a.477.477 0 0 1 .283-.531l.508-.212-.542.096a.477.477 0 0 1-.526-.293l-.272-.689.144.726a.476.476 0 0 1-.282.531l-.508.213Z" opacity=".5"/>
    <path fill="#BA68C8" d="M138.51 166.474a.093.093 0 0 1-.112-.055l-.944-2.388a.454.454 0 0 0-.501-.279l-1.985.353a.091.091 0 0 1-.104-.065.09.09 0 0 1 .053-.111l1.859-.779a.454.454 0 0 0 .27-.506l-.501-2.518a.09.09 0 0 1 .064-.106.092.092 0 0 1 .112.054l.943 2.388c.079.2.29.317.501.279l1.985-.353a.09.09 0 0 1 .104.065.09.09 0 0 1-.053.111l-1.859.779a.455.455 0 0 0-.27.507l.502 2.517a.092.092 0 0 1-.064.107Zm-2.752-2.697 1.163-.207a.64.64 0 0 1 .705.393l.567 1.435-.301-1.513a.64.64 0 0 1 .379-.713l1.09-.456-1.163.207a.64.64 0 0 1-.705-.394l-.567-1.435.301 1.513c.06.297-.1.596-.379.713l-1.09.457Z"/>
    <path fill="#BA68C8" d="M150.261 163.204a.094.094 0 0 1-.113-.055l-.642-1.625a.28.28 0 0 0-.308-.172l-1.351.241a.093.093 0 0 1-.105-.065.094.094 0 0 1 .053-.112l1.266-.53a.279.279 0 0 0 .165-.312l-.341-1.714a.092.092 0 0 1 .065-.106.094.094 0 0 1 .112.054l.642 1.626a.28.28 0 0 0 .308.172l1.351-.241a.093.093 0 0 1 .053.176l-1.267.53a.282.282 0 0 0-.166.313l.342 1.713a.093.093 0 0 1-.064.107Zm-1.624-1.94.529-.094a.465.465 0 0 1 .512.287l.266.673-.141-.71a.464.464 0 0 1 .275-.518l.496-.208-.529.094a.466.466 0 0 1-.513-.286l-.266-.673.141.71a.467.467 0 0 1-.275.519l-.495.206Zm1.14-9.042a.093.093 0 0 1-.112-.055l-.642-1.625a.28.28 0 0 0-.309-.172l-1.351.241a.093.093 0 0 1-.105-.065.094.094 0 0 1 .053-.112l1.266-.529a.28.28 0 0 0 .166-.312l-.341-1.715a.091.091 0 0 1 .064-.106.092.092 0 0 1 .112.054l.643 1.626a.28.28 0 0 0 .308.172l1.351-.241a.094.094 0 0 1 .105.065.093.093 0 0 1-.053.111l-1.267.53a.281.281 0 0 0-.166.312l.342 1.714a.092.092 0 0 1-.064.107Zm-1.624-1.94.528-.094a.464.464 0 0 1 .513.286l.266.673-.142-.71a.468.468 0 0 1 .276-.519l.495-.207-.529.094a.465.465 0 0 1-.512-.286l-.266-.673.141.71a.464.464 0 0 1-.276.518l-.494.208Zm42.694 43.462a.104.104 0 0 1-.128-.063l-.741-1.873a.322.322 0 0 0-.355-.198l-1.557.278a.107.107 0 0 1-.121-.075.106.106 0 0 1 .06-.128l1.459-.611a.324.324 0 0 0 .192-.36l-.394-1.974a.107.107 0 0 1 .074-.123.105.105 0 0 1 .129.063l.741 1.873a.322.322 0 0 0 .355.198l1.557-.277a.105.105 0 0 1 .12.074.109.109 0 0 1-.06.129l-1.459.611a.322.322 0 0 0-.191.36l.393 1.974a.104.104 0 0 1-.074.122Zm-1.871-2.234.61-.109a.534.534 0 0 1 .59.33l.307.775-.163-.817a.536.536 0 0 1 .317-.598l.572-.239-.61.109a.535.535 0 0 1-.59-.33l-.307-.776.163.818c.05.249-.084.5-.317.598l-.572.239Z" opacity=".5"/>
    <path fill="#BA68C8" d="M42.8 184.968h-1.564a.317.317 0 0 1-.307-.284l-.153-1.392c-.005-.045-.06-.11-.126-.13a4.737 4.737 0 0 1-.772-.319c-.077-.041-.157-.042-.176-.032l-1.153.926c-.11.089-.293.051-.436-.091l-1.007-1.006c-.142-.143-.18-.326-.09-.437l.927-1.156c.008-.017.007-.096-.034-.173a4.648 4.648 0 0 1-.318-.772c-.02-.066-.086-.121-.13-.126l-1.392-.152a.317.317 0 0 1-.285-.307v-1.564c0-.154.117-.288.266-.305l1.428-.156c.042-.005.09-.047.099-.077.092-.309.217-.609.372-.893.007-.02-.01-.103-.067-.176l-.806-1.003c-.124-.154-.141-.34-.042-.44l1.15-1.15c.1-.1.289-.081.44.041l1.005.806a.28.28 0 0 0 .177.066c.283-.154.583-.279.89-.37a.137.137 0 0 0 .078-.1l.157-1.427a.306.306 0 0 1 .305-.267h1.563c.155 0 .29.125.307.285l.153 1.391c.005.046.06.111.125.131.266.082.526.189.774.318.075.04.155.043.175.032l1.153-.925c.11-.087.297-.049.436.091l1.007 1.006c.14.14.178.327.09.436l-.927 1.156c-.009.017-.006.097.034.173.129.248.236.507.319.772.02.067.085.121.13.126l1.392.153a.316.316 0 0 1 .284.307v1.563a.308.308 0 0 1-.266.306l-1.428.156c-.042.005-.09.047-.099.078a4.658 4.658 0 0 1-.371.892c-.008.021.009.104.066.175l.806 1.004c.122.153.14.342.042.441l-1.15 1.15c-.098.099-.288.08-.441-.042l-1.004-.806c-.07-.057-.152-.074-.178-.065a4.567 4.567 0 0 1-.889.37c-.03.009-.073.057-.078.099l-.157 1.428a.306.306 0 0 1-.305.265Zm-3.063-2.401c.087 0 .178.027.25.064.236.123.482.225.734.303a.42.42 0 0 1 .292.332l.152 1.392c.005.041.04.071.07.071h1.563c.036 0 .066-.028.069-.053l.156-1.428a.372.372 0 0 1 .248-.302 4.35 4.35 0 0 0 .845-.352c.129-.069.318-.007.44.09l1.003.806c.063.05.12.056.133.052l1.14-1.143c-.003-.004-.011-.063-.06-.122l-.805-1.004c-.097-.122-.16-.312-.09-.44a4.38 4.38 0 0 0 .352-.845.37.37 0 0 1 .302-.247l1.428-.156c.025-.003.053-.032.053-.068v-1.564c0-.029-.03-.065-.072-.07l-1.391-.152a.419.419 0 0 1-.333-.293 4.408 4.408 0 0 0-.302-.732c-.068-.129-.099-.319-.008-.432l.927-1.156c-.003-.003-.015-.06-.074-.118l-1.006-1.007a.218.218 0 0 0-.128-.069l-1.147.923c-.113.091-.303.059-.432-.009a4.44 4.44 0 0 0-.733-.302.42.42 0 0 1-.291-.332l-.153-1.392c-.005-.041-.04-.072-.07-.072h-1.563c-.035 0-.066.029-.068.054l-.157 1.428a.37.37 0 0 1-.247.301 4.386 4.386 0 0 0-.845.353c-.129.07-.318.008-.44-.091l-1.004-.805c-.06-.048-.114-.055-.132-.052l-1.14 1.143c.003.003.009.06.06.123l.805 1.004c.097.121.159.311.09.439a4.377 4.377 0 0 0-.353.845.37.37 0 0 1-.301.247l-1.429.157c-.025.002-.053.032-.053.068v1.563c0 .033.034.067.072.07l1.392.153a.417.417 0 0 1 .332.292c.078.251.18.498.302.732.068.129.1.321.008.433l-.926 1.156c.003.003.014.059.073.118l1.006 1.007a.222.222 0 0 0 .129.068l1.145-.923a.284.284 0 0 1 .182-.056Zm2.28-1.071a2.765 2.765 0 0 1-2.76-2.761 2.764 2.764 0 0 1 2.76-2.761 2.764 2.764 0 0 1 2.761 2.761 2.764 2.764 0 0 1-2.76 2.761Zm0-5.284a2.526 2.526 0 0 0-2.522 2.523 2.526 2.526 0 0 0 2.523 2.522 2.525 2.525 0 0 0 2.521-2.522 2.525 2.525 0 0 0-2.521-2.523Z"/>
    <path fill="#fff" d="M42.8 184.968h-1.564a.317.317 0 0 1-.307-.284l-.153-1.392c-.005-.045-.06-.11-.126-.13a4.737 4.737 0 0 1-.772-.319c-.077-.041-.157-.042-.176-.032l-1.153.926c-.11.089-.293.051-.436-.091l-1.007-1.006c-.142-.143-.18-.326-.09-.437l.927-1.156c.008-.017.007-.096-.034-.173a4.648 4.648 0 0 1-.318-.772c-.02-.066-.086-.121-.13-.126l-1.392-.152a.317.317 0 0 1-.285-.307v-1.564c0-.154.117-.288.266-.305l1.428-.156c.042-.005.09-.047.099-.077.092-.309.217-.609.372-.893.007-.02-.01-.103-.067-.176l-.806-1.003c-.124-.154-.141-.34-.042-.44l1.15-1.15c.1-.1.289-.081.44.041l1.005.806a.28.28 0 0 0 .177.066c.283-.154.583-.279.89-.37a.137.137 0 0 0 .078-.1l.157-1.427a.306.306 0 0 1 .305-.267h1.563c.155 0 .29.125.307.285l.153 1.391c.005.046.06.111.125.131.266.082.526.189.774.318.075.04.155.043.175.032l1.153-.925c.11-.087.297-.049.436.091l1.007 1.006c.14.14.178.327.09.436l-.927 1.156c-.009.017-.006.097.034.173.129.248.236.507.319.772.02.067.085.121.13.126l1.392.153a.316.316 0 0 1 .284.307v1.563a.308.308 0 0 1-.266.306l-1.428.156c-.042.005-.09.047-.099.078a4.658 4.658 0 0 1-.371.892c-.008.021.009.104.066.175l.806 1.004c.122.153.14.342.042.441l-1.15 1.15c-.098.099-.288.08-.441-.042l-1.004-.806c-.07-.057-.152-.074-.178-.065a4.567 4.567 0 0 1-.889.37c-.03.009-.073.057-.078.099l-.157 1.428a.306.306 0 0 1-.305.265Zm-3.063-2.401c.087 0 .178.027.25.064.236.123.482.225.734.303a.42.42 0 0 1 .292.332l.152 1.392c.005.041.04.071.07.071h1.563c.036 0 .066-.028.069-.053l.156-1.428a.372.372 0 0 1 .248-.302 4.35 4.35 0 0 0 .845-.352c.129-.069.318-.007.44.09l1.003.806c.063.05.12.056.133.052l1.14-1.143c-.003-.004-.011-.063-.06-.122l-.805-1.004c-.097-.122-.16-.312-.09-.44a4.38 4.38 0 0 0 .352-.845.37.37 0 0 1 .302-.247l1.428-.156c.025-.003.053-.032.053-.068v-1.564c0-.029-.03-.065-.072-.07l-1.391-.152a.419.419 0 0 1-.333-.293 4.408 4.408 0 0 0-.302-.732c-.068-.129-.099-.319-.008-.432l.927-1.156c-.003-.003-.015-.06-.074-.118l-1.006-1.007a.218.218 0 0 0-.128-.069l-1.147.923c-.113.091-.303.059-.432-.009a4.44 4.44 0 0 0-.733-.302.42.42 0 0 1-.291-.332l-.153-1.392c-.005-.041-.04-.072-.07-.072h-1.563c-.035 0-.066.029-.068.054l-.157 1.428a.37.37 0 0 1-.247.301 4.386 4.386 0 0 0-.845.353c-.129.07-.318.008-.44-.091l-1.004-.805c-.06-.048-.114-.055-.132-.052l-1.14 1.143c.003.003.009.06.06.123l.805 1.004c.097.121.159.311.09.439a4.377 4.377 0 0 0-.353.845.37.37 0 0 1-.301.247l-1.429.157c-.025.002-.053.032-.053.068v1.563c0 .033.034.067.072.07l1.392.153a.417.417 0 0 1 .332.292c.078.251.18.498.302.732.068.129.1.321.008.433l-.926 1.156c.003.003.014.059.073.118l1.006 1.007a.222.222 0 0 0 .129.068l1.145-.923a.284.284 0 0 1 .182-.056Zm2.28-1.071a2.765 2.765 0 0 1-2.76-2.761 2.764 2.764 0 0 1 2.76-2.761 2.764 2.764 0 0 1 2.761 2.761 2.764 2.764 0 0 1-2.76 2.761Zm0-5.284a2.526 2.526 0 0 0-2.522 2.523 2.526 2.526 0 0 0 2.523 2.522 2.525 2.525 0 0 0 2.521-2.522 2.525 2.525 0 0 0-2.521-2.523Z" opacity=".6"/>
    <path fill="#BA68C8" d="M107.055 222.198h-1.145a.232.232 0 0 1-.225-.208l-.111-1.02c-.004-.032-.044-.081-.092-.095a3.439 3.439 0 0 1-.566-.233c-.055-.029-.112-.031-.128-.024l-.845.678c-.08.063-.218.035-.32-.067l-.737-.737c-.102-.102-.13-.24-.066-.319l.679-.847c.006-.013.004-.071-.025-.127a3.32 3.32 0 0 1-.233-.566c-.015-.048-.063-.088-.096-.091l-1.018-.111a.233.233 0 0 1-.209-.226v-1.144c0-.113.085-.212.195-.224l1.045-.114c.031-.003.066-.034.072-.057.067-.226.158-.445.272-.653.005-.015-.007-.076-.049-.129l-.59-.735c-.089-.112-.102-.25-.03-.323l.842-.842c.072-.072.21-.059.323.031l.735.59c.053.042.115.054.13.048.205-.113.424-.204.651-.272a.097.097 0 0 0 .057-.072l.115-1.045a.224.224 0 0 1 .223-.195h1.145c.113 0 .212.091.225.209l.111 1.019c.004.032.044.08.092.095.194.06.384.138.566.233.056.03.112.03.128.024l.845-.678c.079-.065.217-.036.32.066l.737.737c.102.103.13.24.067.32l-.68.846c-.006.013-.005.07.025.127.095.182.173.371.233.566.015.048.063.088.096.091l1.019.112a.23.23 0 0 1 .208.225v1.145a.225.225 0 0 1-.195.223l-1.045.114c-.031.004-.066.035-.072.057a3.354 3.354 0 0 1-.273.653c-.004.015.008.076.05.129l.589.735c.09.111.103.25.031.323l-.842.842c-.073.071-.211.058-.323-.031l-.735-.59c-.052-.042-.111-.053-.13-.048a3.359 3.359 0 0 1-.651.272c-.023.006-.054.041-.057.072l-.115 1.045a.225.225 0 0 1-.223.196Zm-2.242-1.758c.063 0 .13.019.184.048.172.089.352.164.536.22.112.035.203.137.214.244l.112 1.02c.003.027.027.052.051.052h1.144c.026 0 .048-.021.05-.039l.115-1.046a.273.273 0 0 1 .181-.221c.212-.063.421-.15.619-.258.093-.05.232-.006.321.066l.735.59c.048.038.088.041.098.038l.834-.837c-.002-.002-.006-.043-.043-.09l-.59-.735c-.071-.088-.116-.227-.066-.321.108-.198.195-.406.258-.619a.273.273 0 0 1 .22-.181l1.047-.115c.018-.002.039-.024.039-.049v-1.145c0-.024-.026-.048-.053-.052l-1.019-.111a.31.31 0 0 1-.244-.214 3.128 3.128 0 0 0-.221-.537c-.05-.094-.072-.234-.007-.316l.68-.846c-.002-.003-.011-.044-.054-.087l-.737-.737c-.042-.042-.09-.052-.093-.05l-.84.675c-.082.067-.221.044-.316-.006a3.128 3.128 0 0 0-.537-.221.31.31 0 0 1-.214-.244l-.111-1.019c-.003-.03-.03-.053-.051-.053h-1.145c-.026 0-.048.021-.05.039l-.114 1.046a.274.274 0 0 1-.182.221 3.19 3.19 0 0 0-.618.258c-.094.052-.233.006-.322-.066l-.735-.59c-.046-.037-.089-.041-.096-.038l-.836.837c.002.002.007.044.043.09l.59.735c.071.089.117.228.066.322a3.188 3.188 0 0 0-.258.619.273.273 0 0 1-.221.181l-1.045.114c-.018.003-.039.024-.039.05v1.144c0 .022.023.049.052.052l1.019.111c.107.011.21.102.244.214a3.2 3.2 0 0 0 .221.536c.05.095.072.235.007.317l-.68.846c.002.002.011.044.054.087l.737.737c.043.043.079.049.094.05l.839-.676a.216.216 0 0 1 .133-.04Zm1.669-.785a2.024 2.024 0 0 1-2.021-2.021c0-1.115.907-2.022 2.021-2.022 1.115 0 2.022.907 2.022 2.022a2.024 2.024 0 0 1-2.022 2.021Zm0-3.868a1.849 1.849 0 0 0-1.847 1.847 1.85 1.85 0 0 0 1.847 1.847 1.849 1.849 0 0 0 1.847-1.847 1.848 1.848 0 0 0-1.847-1.847Z"/>
    <path fill="#fff" d="M107.055 222.198h-1.145a.232.232 0 0 1-.225-.208l-.111-1.02c-.004-.032-.044-.081-.092-.095a3.439 3.439 0 0 1-.566-.233c-.055-.029-.112-.031-.128-.024l-.845.678c-.08.063-.218.035-.32-.067l-.737-.737c-.102-.102-.13-.24-.066-.319l.679-.847c.006-.013.004-.071-.025-.127a3.32 3.32 0 0 1-.233-.566c-.015-.048-.063-.088-.096-.091l-1.018-.111a.233.233 0 0 1-.209-.226v-1.144c0-.113.085-.212.195-.224l1.045-.114c.031-.003.066-.034.072-.057.067-.226.158-.445.272-.653.005-.015-.007-.076-.049-.129l-.59-.735c-.089-.112-.102-.25-.03-.323l.842-.842c.072-.072.21-.059.323.031l.735.59c.053.042.115.054.13.048.205-.113.424-.204.651-.272a.097.097 0 0 0 .057-.072l.115-1.045a.224.224 0 0 1 .223-.195h1.145c.113 0 .212.091.225.209l.111 1.019c.004.032.044.08.092.095.194.06.384.138.566.233.056.03.112.03.128.024l.845-.678c.079-.065.217-.036.32.066l.737.737c.102.103.13.24.067.32l-.68.846c-.006.013-.005.07.025.127.095.182.173.371.233.566.015.048.063.088.096.091l1.019.112a.23.23 0 0 1 .208.225v1.145a.225.225 0 0 1-.195.223l-1.045.114c-.031.004-.066.035-.072.057a3.354 3.354 0 0 1-.273.653c-.004.015.008.076.05.129l.589.735c.09.111.103.25.031.323l-.842.842c-.073.071-.211.058-.323-.031l-.735-.59c-.052-.042-.111-.053-.13-.048a3.359 3.359 0 0 1-.651.272c-.023.006-.054.041-.057.072l-.115 1.045a.225.225 0 0 1-.223.196Zm-2.242-1.758c.063 0 .13.019.184.048.172.089.352.164.536.22.112.035.203.137.214.244l.112 1.02c.003.027.027.052.051.052h1.144c.026 0 .048-.021.05-.039l.115-1.046a.273.273 0 0 1 .181-.221c.212-.063.421-.15.619-.258.093-.05.232-.006.321.066l.735.59c.048.038.088.041.098.038l.834-.837c-.002-.002-.006-.043-.043-.09l-.59-.735c-.071-.088-.116-.227-.066-.321.108-.198.195-.406.258-.619a.273.273 0 0 1 .22-.181l1.047-.115c.018-.002.039-.024.039-.049v-1.145c0-.024-.026-.048-.053-.052l-1.019-.111a.31.31 0 0 1-.244-.214 3.128 3.128 0 0 0-.221-.537c-.05-.094-.072-.234-.007-.316l.68-.846c-.002-.003-.011-.044-.054-.087l-.737-.737c-.042-.042-.09-.052-.093-.05l-.84.675c-.082.067-.221.044-.316-.006a3.128 3.128 0 0 0-.537-.221.31.31 0 0 1-.214-.244l-.111-1.019c-.003-.03-.03-.053-.051-.053h-1.145c-.026 0-.048.021-.05.039l-.114 1.046a.274.274 0 0 1-.182.221 3.19 3.19 0 0 0-.618.258c-.094.052-.233.006-.322-.066l-.735-.59c-.046-.037-.089-.041-.096-.038l-.836.837c.002.002.007.044.043.09l.59.735c.071.089.117.228.066.322a3.188 3.188 0 0 0-.258.619.273.273 0 0 1-.221.181l-1.045.114c-.018.003-.039.024-.039.05v1.144c0 .022.023.049.052.052l1.019.111c.107.011.21.102.244.214a3.2 3.2 0 0 0 .221.536c.05.095.072.235.007.317l-.68.846c.002.002.011.044.054.087l.737.737c.043.043.079.049.094.05l.839-.676a.216.216 0 0 1 .133-.04Zm1.669-.785a2.024 2.024 0 0 1-2.021-2.021c0-1.115.907-2.022 2.021-2.022 1.115 0 2.022.907 2.022 2.022a2.024 2.024 0 0 1-2.022 2.021Zm0-3.868a1.849 1.849 0 0 0-1.847 1.847 1.85 1.85 0 0 0 1.847 1.847 1.849 1.849 0 0 0 1.847-1.847 1.848 1.848 0 0 0-1.847-1.847Z" opacity=".6"/>
    <path fill="#BA68C8" d="M154.619 38.889h-1.521a.31.31 0 0 1-.299-.276l-.148-1.354c-.005-.044-.058-.107-.122-.127a4.436 4.436 0 0 1-.751-.31c-.073-.038-.152-.041-.17-.03l-1.122.9c-.107.085-.289.047-.424-.089l-.979-.978c-.135-.136-.174-.318-.088-.424l.902-1.124c.008-.017.006-.093-.033-.168a4.477 4.477 0 0 1-.309-.751c-.02-.064-.084-.117-.127-.122l-1.354-.148a.308.308 0 0 1-.276-.299v-1.52a.3.3 0 0 1 .258-.297l1.389-.152c.041-.004.087-.045.096-.076.09-.3.211-.592.362-.867.006-.02-.01-.1-.065-.17l-.784-.976c-.119-.148-.137-.332-.04-.429l1.118-1.117c.095-.096.279-.079.428.04l.976.784c.07.056.151.072.172.063a4.46 4.46 0 0 1 .866-.36c.03-.009.071-.055.076-.096l.152-1.389a.297.297 0 0 1 .296-.258h1.52c.151 0 .282.12.299.277l.148 1.352c.005.044.058.108.122.127.258.08.51.185.751.31.074.039.151.04.17.032l1.122-.9c.106-.086.288-.048.425.088l.978.979c.136.136.174.318.089.424l-.902 1.123c-.008.017-.006.094.033.168.126.241.23.494.309.752.02.064.083.117.127.121l1.353.149a.31.31 0 0 1 .277.298v1.52a.3.3 0 0 1-.259.297l-1.388.153c-.041.004-.087.045-.096.075-.089.298-.21.59-.361.867-.008.02.008.1.064.17l.784.976c.118.148.136.332.04.428l-1.118 1.118c-.097.096-.281.078-.428-.04l-.976-.783c-.07-.056-.152-.072-.172-.064-.275.15-.567.271-.865.36a.133.133 0 0 0-.076.096l-.152 1.389a.3.3 0 0 1-.297.258Zm-2.978-2.334c.085 0 .174.026.245.062.228.12.467.218.712.294a.41.41 0 0 1 .284.324l.148 1.353c.005.04.04.07.068.07h1.52c.035 0 .064-.028.067-.052l.152-1.389a.358.358 0 0 1 .24-.293c.283-.084.559-.199.822-.342.124-.067.309-.008.427.087l.976.783c.061.05.117.056.128.051l1.108-1.111c-.002-.003-.008-.058-.057-.12l-.783-.975c-.095-.118-.156-.303-.087-.428.143-.262.258-.539.342-.822a.362.362 0 0 1 .293-.24l1.388-.152c.025-.002.052-.032.052-.066v-1.52c0-.029-.03-.063-.069-.068l-1.353-.148a.409.409 0 0 1-.324-.285 4.162 4.162 0 0 0-.294-.711c-.065-.126-.095-.311-.008-.421l.902-1.124c-.003-.002-.014-.057-.071-.115l-.979-.978c-.057-.057-.107-.07-.125-.066l-1.114.896c-.11.088-.295.057-.42-.008a4.254 4.254 0 0 0-.713-.294.409.409 0 0 1-.284-.323l-.148-1.353c-.005-.04-.04-.07-.069-.07h-1.52c-.034 0-.063.027-.066.052l-.152 1.388a.361.361 0 0 1-.24.294 4.22 4.22 0 0 0-.823.342c-.124.068-.308.008-.427-.087l-.976-.783c-.061-.05-.115-.056-.128-.051l-1.108 1.112c.002.002.008.057.057.119l.783.975c.095.119.155.303.087.428-.142.26-.257.537-.342.822a.36.36 0 0 1-.293.24l-1.389.152c-.024.003-.051.032-.051.066v1.52c0 .029.03.063.07.068l1.353.149a.412.412 0 0 1 .324.284c.075.245.174.485.293.712.065.126.096.311.008.42l-.902 1.124c.003.003.015.058.072.115l.979.978c.053.054.108.07.124.067l1.114-.896a.275.275 0 0 1 .177-.056Zm2.217-1.042a2.687 2.687 0 0 1-2.684-2.684 2.687 2.687 0 0 1 2.684-2.684 2.687 2.687 0 0 1 2.684 2.684 2.688 2.688 0 0 1-2.684 2.684Zm0-5.136a2.455 2.455 0 0 0-2.452 2.452c0 1.352 1.1 2.452 2.452 2.452 1.352 0 2.452-1.1 2.452-2.452 0-1.352-1.1-2.452-2.452-2.452Z"/>
    <path fill="#fff" d="M154.619 38.889h-1.521a.31.31 0 0 1-.299-.276l-.148-1.354c-.005-.044-.058-.107-.122-.127a4.436 4.436 0 0 1-.751-.31c-.073-.038-.152-.041-.17-.03l-1.122.9c-.107.085-.289.047-.424-.089l-.979-.978c-.135-.136-.174-.318-.088-.424l.902-1.124c.008-.017.006-.093-.033-.168a4.477 4.477 0 0 1-.309-.751c-.02-.064-.084-.117-.127-.122l-1.354-.148a.308.308 0 0 1-.276-.299v-1.52a.3.3 0 0 1 .258-.297l1.389-.152c.041-.004.087-.045.096-.076.09-.3.211-.592.362-.867.006-.02-.01-.1-.065-.17l-.784-.976c-.119-.148-.137-.332-.04-.429l1.118-1.117c.095-.096.279-.079.428.04l.976.784c.07.056.151.072.172.063a4.46 4.46 0 0 1 .866-.36c.03-.009.071-.055.076-.096l.152-1.389a.297.297 0 0 1 .296-.258h1.52c.151 0 .282.12.299.277l.148 1.352c.005.044.058.108.122.127.258.08.51.185.751.31.074.039.151.04.17.032l1.122-.9c.106-.086.288-.048.425.088l.978.979c.136.136.174.318.089.424l-.902 1.123c-.008.017-.006.094.033.168.126.241.23.494.309.752.02.064.083.117.127.121l1.353.149a.31.31 0 0 1 .277.298v1.52a.3.3 0 0 1-.259.297l-1.388.153c-.041.004-.087.045-.096.075-.089.298-.21.59-.361.867-.008.02.008.1.064.17l.784.976c.118.148.136.332.04.428l-1.118 1.118c-.097.096-.281.078-.428-.04l-.976-.783c-.07-.056-.152-.072-.172-.064-.275.15-.567.271-.865.36a.133.133 0 0 0-.076.096l-.152 1.389a.3.3 0 0 1-.297.258Zm-2.978-2.334c.085 0 .174.026.245.062.228.12.467.218.712.294a.41.41 0 0 1 .284.324l.148 1.353c.005.04.04.07.068.07h1.52c.035 0 .064-.028.067-.052l.152-1.389a.358.358 0 0 1 .24-.293c.283-.084.559-.199.822-.342.124-.067.309-.008.427.087l.976.783c.061.05.117.056.128.051l1.108-1.111c-.002-.003-.008-.058-.057-.12l-.783-.975c-.095-.118-.156-.303-.087-.428.143-.262.258-.539.342-.822a.362.362 0 0 1 .293-.24l1.388-.152c.025-.002.052-.032.052-.066v-1.52c0-.029-.03-.063-.069-.068l-1.353-.148a.409.409 0 0 1-.324-.285 4.162 4.162 0 0 0-.294-.711c-.065-.126-.095-.311-.008-.421l.902-1.124c-.003-.002-.014-.057-.071-.115l-.979-.978c-.057-.057-.107-.07-.125-.066l-1.114.896c-.11.088-.295.057-.42-.008a4.254 4.254 0 0 0-.713-.294.409.409 0 0 1-.284-.323l-.148-1.353c-.005-.04-.04-.07-.069-.07h-1.52c-.034 0-.063.027-.066.052l-.152 1.388a.361.361 0 0 1-.24.294 4.22 4.22 0 0 0-.823.342c-.124.068-.308.008-.427-.087l-.976-.783c-.061-.05-.115-.056-.128-.051l-1.108 1.112c.002.002.008.057.057.119l.783.975c.095.119.155.303.087.428-.142.26-.257.537-.342.822a.36.36 0 0 1-.293.24l-1.389.152c-.024.003-.051.032-.051.066v1.52c0 .029.03.063.07.068l1.353.149a.412.412 0 0 1 .324.284c.075.245.174.485.293.712.065.126.096.311.008.42l-.902 1.124c.003.003.015.058.072.115l.979.978c.053.054.108.07.124.067l1.114-.896a.275.275 0 0 1 .177-.056Zm2.217-1.042a2.687 2.687 0 0 1-2.684-2.684 2.687 2.687 0 0 1 2.684-2.684 2.687 2.687 0 0 1 2.684 2.684 2.688 2.688 0 0 1-2.684 2.684Zm0-5.136a2.455 2.455 0 0 0-2.452 2.452c0 1.352 1.1 2.452 2.452 2.452 1.352 0 2.452-1.1 2.452-2.452 0-1.352-1.1-2.452-2.452-2.452Z" opacity=".6"/>
    <path fill="#BA68C8" d="M212.273 153.877h-1.52a.308.308 0 0 1-.299-.276l-.148-1.353c-.005-.044-.058-.108-.122-.128a4.514 4.514 0 0 1-.751-.309c-.075-.039-.152-.042-.17-.031l-1.122.9c-.107.085-.289.047-.424-.089l-.979-.978c-.136-.136-.174-.318-.089-.424l.902-1.124c.009-.016.006-.093-.032-.168a4.52 4.52 0 0 1-.31-.751c-.02-.065-.084-.117-.127-.123l-1.353-.148a.307.307 0 0 1-.276-.298v-1.52a.295.295 0 0 1 .258-.296l1.389-.153c.041-.004.087-.045.095-.076.09-.3.211-.591.362-.866.007-.02-.009-.101-.065-.171l-.783-.975c-.119-.149-.136-.333-.041-.429l1.118-1.117c.095-.097.28-.08.428.04l.976.783c.07.056.149.07.172.064.273-.15.565-.271.866-.361.03-.008.071-.054.075-.095l.153-1.389a.297.297 0 0 1 .296-.258h1.52c.15 0 .282.121.298.276l.149 1.353c.005.044.058.108.122.127.259.081.512.185.751.31.074.038.151.04.17.031l1.122-.9c.106-.086.287-.048.424.088l.979.979c.135.135.173.317.088.423l-.902 1.124c-.009.017-.006.094.032.168.126.241.231.494.31.751.02.065.083.118.127.123l1.353.148a.309.309 0 0 1 .277.298v1.521c0 .15-.114.281-.259.296l-1.388.152c-.042.005-.087.045-.096.076-.089.298-.21.589-.361.866-.007.02.008.101.064.171l.783.976c.119.148.136.332.041.428l-1.118 1.117c-.096.096-.281.079-.428-.04l-.976-.783c-.075-.06-.154-.07-.172-.064a4.497 4.497 0 0 1-.865.361.128.128 0 0 0-.076.095l-.153 1.389a.296.296 0 0 1-.295.259Zm-2.977-2.335c.084 0 .174.026.244.063.23.12.469.219.712.293.15.047.269.183.284.324l.149 1.353c.005.04.04.069.068.069h1.521c.034 0 .063-.027.066-.051l.152-1.388a.36.36 0 0 1 .24-.293c.283-.084.559-.199.822-.343.124-.069.309-.007.427.088l.976.783a.2.2 0 0 0 .129.051l1.108-1.111c-.002-.005-.01-.061-.057-.119l-.783-.976c-.095-.118-.155-.303-.088-.428.144-.262.259-.539.343-.821a.356.356 0 0 1 .293-.24l1.388-.153c.025-.003.051-.031.051-.066v-1.52c0-.029-.03-.064-.07-.068l-1.352-.149c-.14-.014-.279-.137-.324-.285a4.179 4.179 0 0 0-.294-.711c-.065-.126-.096-.311-.008-.421l.902-1.124c-.002-.004-.018-.061-.071-.114l-.979-.979c-.057-.057-.111-.068-.125-.067l-1.114.897c-.11.089-.294.057-.42-.008a4.228 4.228 0 0 0-.713-.294.406.406 0 0 1-.283-.324l-.149-1.353c-.005-.04-.04-.069-.068-.069h-1.52c-.034 0-.063.027-.066.051l-.153 1.389a.359.359 0 0 1-.24.293 4.185 4.185 0 0 0-.822.342c-.124.069-.309.008-.427-.087l-.976-.783c-.061-.049-.116-.055-.128-.051l-1.109 1.111c.003.003.009.058.058.12l.783.975c.094.118.155.303.087.427a4.185 4.185 0 0 0-.342.822.359.359 0 0 1-.293.24l-1.389.153c-.024.003-.051.031-.051.065v1.521c0 .028.03.063.07.068l1.353.148a.41.41 0 0 1 .323.284c.075.244.174.483.294.712.066.126.096.311.008.421l-.902 1.124c.003.002.015.057.072.114l.978.979a.232.232 0 0 0 .125.066l1.114-.896a.28.28 0 0 1 .176-.054Zm2.216-1.041a2.687 2.687 0 0 1-2.684-2.684 2.687 2.687 0 0 1 2.684-2.684 2.687 2.687 0 0 1 2.684 2.684 2.688 2.688 0 0 1-2.684 2.684Zm0-5.136a2.455 2.455 0 0 0-2.452 2.452c0 1.352 1.1 2.452 2.452 2.452 1.352 0 2.452-1.1 2.452-2.452 0-1.352-1.1-2.452-2.452-2.452Z"/>
    <path fill="#fff" d="M212.273 153.877h-1.52a.308.308 0 0 1-.299-.276l-.148-1.353c-.005-.044-.058-.108-.122-.128a4.514 4.514 0 0 1-.751-.309c-.075-.039-.152-.042-.17-.031l-1.122.9c-.107.085-.289.047-.424-.089l-.979-.978c-.136-.136-.174-.318-.089-.424l.902-1.124c.009-.016.006-.093-.032-.168a4.52 4.52 0 0 1-.31-.751c-.02-.065-.084-.117-.127-.123l-1.353-.148a.307.307 0 0 1-.276-.298v-1.52a.295.295 0 0 1 .258-.296l1.389-.153c.041-.004.087-.045.095-.076.09-.3.211-.591.362-.866.007-.02-.009-.101-.065-.171l-.783-.975c-.119-.149-.136-.333-.041-.429l1.118-1.117c.095-.097.28-.08.428.04l.976.783c.07.056.149.07.172.064.273-.15.565-.271.866-.361.03-.008.071-.054.075-.095l.153-1.389a.297.297 0 0 1 .296-.258h1.52c.15 0 .282.121.298.276l.149 1.353c.005.044.058.108.122.127.259.081.512.185.751.31.074.038.151.04.17.031l1.122-.9c.106-.086.287-.048.424.088l.979.979c.135.135.173.317.088.423l-.902 1.124c-.009.017-.006.094.032.168.126.241.231.494.31.751.02.065.083.118.127.123l1.353.148a.309.309 0 0 1 .277.298v1.521c0 .15-.114.281-.259.296l-1.388.152c-.042.005-.087.045-.096.076-.089.298-.21.589-.361.866-.007.02.008.101.064.171l.783.976c.119.148.136.332.041.428l-1.118 1.117c-.096.096-.281.079-.428-.04l-.976-.783c-.075-.06-.154-.07-.172-.064a4.497 4.497 0 0 1-.865.361.128.128 0 0 0-.076.095l-.153 1.389a.296.296 0 0 1-.295.259Zm-2.977-2.335c.084 0 .174.026.244.063.23.12.469.219.712.293.15.047.269.183.284.324l.149 1.353c.005.04.04.069.068.069h1.521c.034 0 .063-.027.066-.051l.152-1.388a.36.36 0 0 1 .24-.293c.283-.084.559-.199.822-.343.124-.069.309-.007.427.088l.976.783a.2.2 0 0 0 .129.051l1.108-1.111c-.002-.005-.01-.061-.057-.119l-.783-.976c-.095-.118-.155-.303-.088-.428.144-.262.259-.539.343-.821a.356.356 0 0 1 .293-.24l1.388-.153c.025-.003.051-.031.051-.066v-1.52c0-.029-.03-.064-.07-.068l-1.352-.149c-.14-.014-.279-.137-.324-.285a4.179 4.179 0 0 0-.294-.711c-.065-.126-.096-.311-.008-.421l.902-1.124c-.002-.004-.018-.061-.071-.114l-.979-.979c-.057-.057-.111-.068-.125-.067l-1.114.897c-.11.089-.294.057-.42-.008a4.228 4.228 0 0 0-.713-.294.406.406 0 0 1-.283-.324l-.149-1.353c-.005-.04-.04-.069-.068-.069h-1.52c-.034 0-.063.027-.066.051l-.153 1.389a.359.359 0 0 1-.24.293 4.185 4.185 0 0 0-.822.342c-.124.069-.309.008-.427-.087l-.976-.783c-.061-.049-.116-.055-.128-.051l-1.109 1.111c.003.003.009.058.058.12l.783.975c.094.118.155.303.087.427a4.185 4.185 0 0 0-.342.822.359.359 0 0 1-.293.24l-1.389.153c-.024.003-.051.031-.051.065v1.521c0 .028.03.063.07.068l1.353.148a.41.41 0 0 1 .323.284c.075.244.174.483.294.712.066.126.096.311.008.421l-.902 1.124c.003.002.015.057.072.114l.978.979a.232.232 0 0 0 .125.066l1.114-.896a.28.28 0 0 1 .176-.054Zm2.216-1.041a2.687 2.687 0 0 1-2.684-2.684 2.687 2.687 0 0 1 2.684-2.684 2.687 2.687 0 0 1 2.684 2.684 2.688 2.688 0 0 1-2.684 2.684Zm0-5.136a2.455 2.455 0 0 0-2.452 2.452c0 1.352 1.1 2.452 2.452 2.452 1.352 0 2.452-1.1 2.452-2.452 0-1.352-1.1-2.452-2.452-2.452Z" opacity=".6"/>
    <path fill="#BA68C8" d="M119.94 192.724v.001l2.117 4.024.001-.002c.057.108.175.187.345.212l2.922.418c-.098.21-.242.401-.418.508l-5.981 3.624a.705.705 0 0 0-.256.918l1.803 3.451.012.014 2.102 4.004c.167.32.571.461.9.314l6.391-2.842c.184-.082.417-.092.641-.056l-1.333 2.652c-.077.154-.079.296-.023.405l-.002.001 2.121 4.03v-.001c.065.114.196.188.378.196l6.042.254c.361.015.832-.205 1.052-.491l3.566-4.639c.22-.286.688-.563 1.044-.627a31.565 31.565 0 0 0 4.107-1.04c.343-.112.801.022 1.025.305l2.209 2.793a.82.82 0 0 0 .984.21l6.825-3.567a.819.819 0 0 0 .39-.928l-1.031-3.408c-.105-.346.047-.798.335-1.017a31.413 31.413 0 0 0 3.199-2.778c.255-.254.749-.48 1.11-.497l5.845-.28c.36-.017.809-.278 1.003-.583l3.241-5.106c.1-.157.111-.31.052-.428l.001-.001-2.116-4.022-.002.001c-.057-.109-.174-.188-.345-.213l-2.923-.418c.099-.21.243-.401.419-.508l5.981-3.624a.705.705 0 0 0 .256-.918l-2.539-4.835-.004-.005-1.374-2.629a.706.706 0 0 0-.9-.314l-6.391 2.841c-.183.082-.417.093-.641.057l1.332-2.653c.079-.156.08-.3.021-.409h.002l-2.113-4.018-.002.001c-.063-.118-.195-.196-.381-.203l-6.043-.254c-.361-.015-.831.205-1.051.491l-3.567 4.639c-.22.286-.688.563-1.043.627-1.364.245-2.74.597-4.107 1.04-.343.111-.801-.022-1.025-.305l-2.21-2.793a.821.821 0 0 0-.985-.21l-6.826 3.567a.82.82 0 0 0-.389.928l1.031 3.408c.105.346-.047.798-.335 1.017a31.53 31.53 0 0 0-3.199 2.777c-.256.255-.749.481-1.11.498l-5.845.28c-.361.017-.81.278-1.003.583l-3.242 5.106c-.098.156-.109.309-.05.427Zm35.511-1.557c-3.024 4.764-10.047 8.433-15.685 8.197-2.204-.093-3.868-.772-4.899-1.846-.072-1.278.436-2.828 1.545-4.575 3.025-4.765 10.047-8.434 15.685-8.197 2.205.092 3.767.662 4.681 1.6.202 1.407-.213 3.065-1.327 4.821Z"/>
    <path fill="#fff" d="M119.94 192.724v.001l2.117 4.024.001-.002c.057.108.175.187.345.212l2.922.418c-.098.21-.242.401-.418.508l-5.981 3.624a.705.705 0 0 0-.256.918l1.803 3.451.012.014 2.102 4.004c.167.32.571.461.9.314l6.391-2.842c.184-.082.417-.092.641-.056l-1.333 2.652c-.077.154-.079.296-.023.405l-.002.001 2.121 4.03v-.001c.065.114.196.188.378.196l6.042.254c.361.015.832-.205 1.052-.491l3.566-4.639c.22-.286.688-.563 1.044-.627a31.565 31.565 0 0 0 4.107-1.04c.343-.112.801.022 1.025.305l2.209 2.793a.82.82 0 0 0 .984.21l6.825-3.567a.819.819 0 0 0 .39-.928l-1.031-3.408c-.105-.346.047-.798.335-1.017a31.413 31.413 0 0 0 3.199-2.778c.255-.254.749-.48 1.11-.497l5.845-.28c.36-.017.809-.278 1.003-.583l3.241-5.106c.1-.157.111-.31.052-.428l.001-.001-2.116-4.022-.002.001c-.057-.109-.174-.188-.345-.213l-2.923-.418c.099-.21.243-.401.419-.508l5.981-3.624a.705.705 0 0 0 .256-.918l-2.539-4.835-.004-.005-1.374-2.629a.706.706 0 0 0-.9-.314l-6.391 2.841c-.183.082-.417.093-.641.057l1.332-2.653c.079-.156.08-.3.021-.409h.002l-2.113-4.018-.002.001c-.063-.118-.195-.196-.381-.203l-6.043-.254c-.361-.015-.831.205-1.051.491l-3.567 4.639c-.22.286-.688.563-1.043.627-1.364.245-2.74.597-4.107 1.04-.343.111-.801-.022-1.025-.305l-2.21-2.793a.821.821 0 0 0-.985-.21l-6.826 3.567a.82.82 0 0 0-.389.928l1.031 3.408c.105.346-.047.798-.335 1.017a31.53 31.53 0 0 0-3.199 2.777c-.256.255-.749.481-1.11.498l-5.845.28c-.361.017-.81.278-1.003.583l-3.242 5.106c-.098.156-.109.309-.05.427Zm35.511-1.557c-3.024 4.764-10.047 8.433-15.685 8.197-2.204-.093-3.868-.772-4.899-1.846-.072-1.278.436-2.828 1.545-4.575 3.025-4.765 10.047-8.434 15.685-8.197 2.205.092 3.767.662 4.681 1.6.202 1.407-.213 3.065-1.327 4.821Z" opacity=".2"/>
    <path fill="#000" d="M164.67 187.089c-.093.349.105.669.463.72l2.131.306c.098-.212.249-.402.427-.508l5.983-3.623a.71.71 0 0 0 .255-.921l-2.539-4.833.425.818a.701.701 0 0 1-.253.916l-5.984 3.623c-.307.188-.54.631-.545.993-.014.8-.133 1.639-.363 2.509Zm-3.323-15.948a.525.525 0 0 1-.045.368l-2.297 4.568c-.163.323-.015.666.325.792.844.31 1.603.688 2.269 1.135a1.2 1.2 0 0 0 .483.179l1.332-2.655c.076-.159.081-.301.021-.407l.003-.004-2.091-3.976Zm-26.311 19.168c3.024-4.765 10.043-8.437 15.682-8.199 3.564.15 5.721 1.824 6.063 4.239-.906-.941-2.475-1.51-4.685-1.604-5.639-.238-12.658 3.434-15.682 8.198-1.108 1.745-1.622 3.293-1.552 4.573-1.606-1.671-1.666-4.309.174-7.207Z" opacity=".1"/>
    <path fill="#BA68C8" d="M122.587 209.899a.701.701 0 0 0 .9.309l6.393-2.839a.968.968 0 0 1 .349-.07l-2.113-4.027a.956.956 0 0 0-.355.079l-6.388 2.842a.72.72 0 0 1-.854-.237l2.068 3.943Zm-.53-13.146.002-.004c.054.107.176.184.346.213l2.926.415c.073-.161.113-.33.119-.484.016-.763.123-1.565.337-2.391a.736.736 0 0 1 .026-.118.657.657 0 0 0 .012-.278c-.006-.028-.012-.057-.023-.088a.54.54 0 0 0-.321-.319.415.415 0 0 0-.13-.035l-5.062-.723a.518.518 0 0 1-.122-.029.28.28 0 0 1-.137-.081.264.264 0 0 1-.088-.111l-.003.005 2.118 4.028Zm9.226 17.65c.063.112.194.183.378.191l6.042.255c.248.012.545-.092.781-.253l-2.107-4.016c-.236.161-.538.261-.786.25l-6.044-.251c-.17-.011-.295-.072-.366-.172l2.102 3.996Zm30.714-15.106c.174-.072.36-.125.518-.134l5.844-.277c.15-.008.309-.066.465-.138l-2.111-4.012a1.101 1.101 0 0 1-.466.13l-5.844.278a1.715 1.715 0 0 0-.522.131l2.116 4.022Zm-11.083 12.032a.828.828 0 0 0 .778.031l6.823-3.565a.799.799 0 0 0 .335-.366l-2.109-4.023a.789.789 0 0 1-.338.37l-6.83 3.566a.804.804 0 0 1-.732-.008l2.073 3.995Z"/>
    <path fill="#fff" d="M122.587 209.899a.701.701 0 0 0 .9.309l6.393-2.839a.968.968 0 0 1 .349-.07l-2.113-4.027a.956.956 0 0 0-.355.079l-6.388 2.842a.72.72 0 0 1-.854-.237l2.068 3.943Zm-.53-13.146.002-.004c.054.107.176.184.346.213l2.926.415c.073-.161.113-.33.119-.484.016-.763.123-1.565.337-2.391a.736.736 0 0 1 .026-.118.657.657 0 0 0 .012-.278c-.006-.028-.012-.057-.023-.088a.54.54 0 0 0-.321-.319.415.415 0 0 0-.13-.035l-5.062-.723a.518.518 0 0 1-.122-.029.28.28 0 0 1-.137-.081.264.264 0 0 1-.088-.111l-.003.005 2.118 4.028Zm9.226 17.65c.063.112.194.183.378.191l6.042.255c.248.012.545-.092.781-.253l-2.107-4.016c-.236.161-.538.261-.786.25l-6.044-.251c-.17-.011-.295-.072-.366-.172l2.102 3.996Zm30.714-15.106c.174-.072.36-.125.518-.134l5.844-.277c.15-.008.309-.066.465-.138l-2.111-4.012a1.101 1.101 0 0 1-.466.13l-5.844.278a1.715 1.715 0 0 0-.522.131l2.116 4.022Zm-11.083 12.032a.828.828 0 0 0 .778.031l6.823-3.565a.799.799 0 0 0 .335-.366l-2.109-4.023a.789.789 0 0 1-.338.37l-6.83 3.566a.804.804 0 0 1-.732-.008l2.073 3.995Z" opacity=".7"/>
    <path fill="#BA68C8" d="m123.234 187.19-3.241 5.106c-.193.305-.061.593.297.644l5.062.725c.358.051.556.371.463.72-.23.868-.348 1.707-.361 2.508-.006.361-.237.805-.546.992l-5.981 3.624a.704.704 0 0 0-.256.918l1.803 3.451c.167.32.57.46.9.313l6.391-2.841c.33-.147.826-.083 1.126.118.665.447 1.421.829 2.266 1.136.339.123.488.468.326.79l-2.295 4.57c-.163.323-.001.596.36.611l6.042.255c.361.015.831-.204 1.051-.491l3.567-4.639c.22-.286.688-.562 1.043-.627a31.33 31.33 0 0 0 4.107-1.041c.344-.111.801.023 1.025.306l2.209 2.793a.821.821 0 0 0 .985.21l6.826-3.567a.822.822 0 0 0 .39-.928l-1.032-3.409c-.105-.345.047-.798.335-1.016a31.537 31.537 0 0 0 3.199-2.778c.255-.255.749-.48 1.109-.498l5.845-.279c.361-.017.81-.279 1.003-.583l3.242-5.106c.193-.305.061-.593-.297-.644l-5.062-.725c-.358-.051-.556-.371-.463-.72a10.41 10.41 0 0 0 .362-2.508c.005-.361.237-.805.546-.992l5.981-3.624a.705.705 0 0 0 .256-.918l-1.803-3.451a.705.705 0 0 0-.9-.313l-6.391 2.841c-.329.146-.826.083-1.126-.119a10.434 10.434 0 0 0-2.266-1.135c-.339-.123-.488-.468-.326-.791l2.295-4.57c.162-.322.001-.596-.359-.611l-6.043-.254c-.361-.015-.832.204-1.052.491l-3.566 4.639c-.22.287-.688.563-1.043.627-1.364.246-2.74.597-4.107 1.04-.343.111-.801-.022-1.025-.305l-2.21-2.793a.82.82 0 0 0-.984-.21l-6.826 3.567a.82.82 0 0 0-.39.929l1.032 3.408c.104.346-.048.798-.335 1.016a31.566 31.566 0 0 0-3.2 2.778c-.255.255-.749.48-1.109.498l-5.845.279c-.361.017-.81.278-1.004.583Zm27.485-5.079c5.638.237 7.757 4.292 4.733 9.055-3.024 4.764-10.047 8.434-15.685 8.197-5.638-.237-7.757-4.292-4.732-9.056 3.024-4.763 10.046-8.433 15.684-8.196Z"/>
    <path fill="#fff" d="m123.234 187.19-3.241 5.106c-.193.305-.061.593.297.644l5.062.725c.358.051.556.371.463.72-.23.868-.348 1.707-.361 2.508-.006.361-.237.805-.546.992l-5.981 3.624a.704.704 0 0 0-.256.918l1.803 3.451c.167.32.57.46.9.313l6.391-2.841c.33-.147.826-.083 1.126.118.665.447 1.421.829 2.266 1.136.339.123.488.468.326.79l-2.295 4.57c-.163.323-.001.596.36.611l6.042.255c.361.015.831-.204 1.051-.491l3.567-4.639c.22-.286.688-.562 1.043-.627a31.33 31.33 0 0 0 4.107-1.041c.344-.111.801.023 1.025.306l2.209 2.793a.821.821 0 0 0 .985.21l6.826-3.567a.822.822 0 0 0 .39-.928l-1.032-3.409c-.105-.345.047-.798.335-1.016a31.537 31.537 0 0 0 3.199-2.778c.255-.255.749-.48 1.109-.498l5.845-.279c.361-.017.81-.279 1.003-.583l3.242-5.106c.193-.305.061-.593-.297-.644l-5.062-.725c-.358-.051-.556-.371-.463-.72a10.41 10.41 0 0 0 .362-2.508c.005-.361.237-.805.546-.992l5.981-3.624a.705.705 0 0 0 .256-.918l-1.803-3.451a.705.705 0 0 0-.9-.313l-6.391 2.841c-.329.146-.826.083-1.126-.119a10.434 10.434 0 0 0-2.266-1.135c-.339-.123-.488-.468-.326-.791l2.295-4.57c.162-.322.001-.596-.359-.611l-6.043-.254c-.361-.015-.832.204-1.052.491l-3.566 4.639c-.22.287-.688.563-1.043.627-1.364.246-2.74.597-4.107 1.04-.343.111-.801-.022-1.025-.305l-2.21-2.793a.82.82 0 0 0-.984-.21l-6.826 3.567a.82.82 0 0 0-.39.929l1.032 3.408c.104.346-.048.798-.335 1.016a31.566 31.566 0 0 0-3.2 2.778c-.255.255-.749.48-1.109.498l-5.845.279c-.361.017-.81.278-1.004.583Zm27.485-5.079c5.638.237 7.757 4.292 4.733 9.055-3.024 4.764-10.047 8.434-15.685 8.197-5.638-.237-7.757-4.292-4.732-9.056 3.024-4.763 10.046-8.433 15.684-8.196Z" opacity=".55"/>
    <path fill="#fff" d="M120.952 205.764a.246.246 0 0 1-.085-.091l-1.804-3.452a.262.262 0 0 1 .093-.332l5.982-3.625c.432-.261.751-.835.76-1.364a9.994 9.994 0 0 1 .346-2.402c.118-.446-.045-.886-.417-1.123a1.047 1.047 0 0 0-.412-.15l-5.029-.72 3.224-5.078c.117-.183.432-.367.65-.377l5.845-.279c.462-.022 1.066-.292 1.402-.627.95-.949 2.012-1.87 3.154-2.739.438-.332.649-.977.491-1.498l-1.031-3.409a.38.38 0 0 1 .17-.406l6.826-3.567a.383.383 0 0 1 .359.029.277.277 0 0 1 .072.063l2.209 2.793c.085.108.192.203.316.282a1.45 1.45 0 0 0 1.194.17 31.243 31.243 0 0 1 4.048-1.026c.468-.084 1.034-.425 1.317-.793l3.566-4.639c.132-.173.464-.327.681-.318l6.009.252-2.28 4.54a.99.99 0 0 0 .354 1.301c.067.043.14.079.217.107a10.11 10.11 0 0 1 2.169 1.087l.03.019c.437.277 1.079.335 1.525.136l6.39-2.841a.262.262 0 0 1 .327.114l1.803 3.451a.262.262 0 0 1-.093.332l-5.981 3.625c-.432.261-.751.835-.76 1.364a10.004 10.004 0 0 1-.347 2.402c-.118.446.045.887.417 1.123.123.078.262.129.412.15l5.029.72-3.224 5.078c-.116.183-.431.367-.649.377l-5.845.279c-.463.022-1.066.292-1.402.627a31.2 31.2 0 0 1-3.154 2.739c-.438.332-.649.977-.491 1.498l1.031 3.409a.38.38 0 0 1-.17.406l-6.826 3.567a.383.383 0 0 1-.359-.029.277.277 0 0 1-.072-.063l-2.209-2.793a1.265 1.265 0 0 0-.316-.282 1.45 1.45 0 0 0-1.194-.17 31.257 31.257 0 0 1-4.049 1.026c-.468.084-1.034.425-1.317.793l-3.566 4.639c-.133.172-.464.327-.681.317l-6.009-.253 2.281-4.539a.99.99 0 0 0-.355-1.301 1.095 1.095 0 0 0-.217-.107 10.147 10.147 0 0 1-1.976-.96l-.194-.127-.029-.019c-.437-.277-1.079-.335-1.525-.136l-6.391 2.841a.252.252 0 0 1-.24-.021Zm33.989-22.93c-1.108-.704-2.522-1.096-4.204-1.167-5.77-.242-12.983 3.527-16.078 8.403-1.091 1.719-1.581 3.43-1.417 4.948.165 1.518.961 2.771 2.302 3.623 1.108.703 2.523 1.095 4.203 1.166 5.771.242 12.984-3.527 16.079-8.403 2.202-3.467 1.854-6.831-.885-8.57Zm-34.227 23.305c.192.122.442.15.659.054l6.391-2.842c.323-.144.805-.085 1.107.106a10.586 10.586 0 0 0 2.285 1.148.613.613 0 0 1 .131.064.544.544 0 0 1 .195.727l-2.295 4.569c-.115.228-.067.433.098.538a.532.532 0 0 0 .261.074l6.043.254c.36.015.831-.204 1.051-.491l3.567-4.639c.22-.286.688-.562 1.043-.626a31.49 31.49 0 0 0 4.107-1.041c.258-.084.58-.029.819.123.08.05.15.111.206.182l2.209 2.794a.745.745 0 0 0 .182.163.827.827 0 0 0 .803.047l6.826-3.567a.822.822 0 0 0 .39-.928l-1.032-3.409c-.105-.346.047-.798.335-1.016a31.663 31.663 0 0 0 3.199-2.778c.255-.255.749-.481 1.109-.498l5.845-.279c.361-.017.81-.278 1.004-.583l3.241-5.106c.147-.231.106-.452-.077-.568a.556.556 0 0 0-.22-.077l-5.062-.724a.6.6 0 0 1-.237-.086c-.202-.128-.295-.372-.226-.634.231-.869.349-1.707.362-2.508.006-.361.237-.805.546-.992l5.981-3.624a.704.704 0 0 0 .256-.918l-1.803-3.451a.703.703 0 0 0-.9-.314l-6.391 2.841c-.322.144-.805.085-1.106-.106l-.019-.012a10.55 10.55 0 0 0-2.266-1.136.655.655 0 0 1-.13-.064.544.544 0 0 1-.196-.727l2.296-4.569c.114-.229.067-.433-.098-.538a.536.536 0 0 0-.262-.074l-6.043-.254c-.36-.015-.831.205-1.051.491l-3.567 4.639c-.22.286-.687.563-1.043.627a31.35 31.35 0 0 0-4.106 1.04c-.258.083-.58.029-.82-.123a.802.802 0 0 1-.206-.182l-2.209-2.793a.745.745 0 0 0-.182-.163.822.822 0 0 0-.803-.047l-6.825 3.567a.819.819 0 0 0-.39.928l1.032 3.408c.104.346-.048.798-.335 1.016a31.566 31.566 0 0 0-3.2 2.778c-.255.255-.749.481-1.109.498l-5.845.28c-.361.017-.81.278-1.004.583l-3.241 5.106c-.147.23-.106.452.077.568a.55.55 0 0 0 .219.076l5.063.725a.594.594 0 0 1 .236.085c.202.128.296.373.226.634-.23.869-.348 1.707-.361 2.509-.006.361-.237.804-.545.992l-5.982 3.624a.706.706 0 0 0-.256.918l1.804 3.451a.666.666 0 0 0 .239.26Zm33.989-22.93c2.451 1.556 2.894 4.578.749 7.958-3.024 4.764-10.047 8.433-15.685 8.197-1.638-.07-2.98-.461-3.984-1.098-2.451-1.556-2.894-4.578-.748-7.958 3.024-4.764 10.046-8.434 15.684-8.197 1.638.069 2.98.46 3.984 1.098Z" opacity=".55"/>
    <path fill="#BA68C8" d="M79.662 182.109c-.445.081-1.115-.02-1.504-.249l-3.227-1.906c-.389-.229-1.032-.251-1.435-.049l-2.73 1.368c-.185.092-.29.227-.322.373l-.004-.002-.858 3.674.005-.002c-.044.176.023.37.216.532l1.09.908-3.296-.199a.681.681 0 0 0-.728.552l-.012-.011-.859 3.677.004.001a.757.757 0 0 0-.021.232l.157 2.124c.033.45.42.883.863.969l4.129.791c.312.06.654.278.914.536l-.26.172a.606.606 0 0 0-.269.356l-.003.001-.861 3.688.003-.002c-.047.197.037.408.26.563l3.244 2.271c.37.259 1.013.341 1.436.183l2.781-1.036c.423-.157 1.097-.128 1.513.048.731.312 1.484.589 2.25.83.43.135.872.588.981 1.026l.486 1.945c.11.438.56.839 1.009.895l4.583.579c.41.052.78-.212.876-.601h.004l.583-2.494a.97.97 0 0 1 .534-.216 18.496 18.496 0 0 0 2.027-.252c.444-.08 1.115.02 1.504.25l3.227 1.906c.389.229 1.03.251 1.434.049l2.73-1.368c.178-.089.282-.217.317-.356l.004.003.864-3.699-.004.002c.04-.175-.027-.366-.218-.524l-1.09-.909 3.296.199a.69.69 0 0 0 .729-.508l.004.001.862-3.693-.01-.001a.731.731 0 0 0 .032-.25l-.157-2.123c-.033-.45-.42-.884-.863-.969l-4.13-.791c-.311-.06-.653-.279-.913-.536l.259-.172a.606.606 0 0 0 .271-.362l.003.002.852-3.657.001-.005.01-.042-.003.002c.037-.191-.048-.393-.262-.544l-3.245-2.271c-.37-.259-1.013-.341-1.436-.183l-2.781 1.036c-.423.157-1.097.128-1.513-.049a24.792 24.792 0 0 0-2.25-.829c-.43-.136-.872-.589-.982-1.027l-.485-1.944c-.11-.438-.561-.839-1.009-.895l-4.583-.579a.8.8 0 0 0-.9.71l-.192 1.747c-.05.449-.456.823-.906.854a18.72 18.72 0 0 0-2.026.25Zm13.577 13.251c-3.215 1.611-8.673.922-12.19-1.539-1.297-.908-2.145-1.929-2.543-2.938a5.32 5.32 0 0 1 1.136-.751c3.216-1.611 8.673-.922 12.19 1.54 1.292.904 2.138 1.921 2.538 2.926a5.096 5.096 0 0 1-1.13.762Z"/>
    <path fill="#fff" d="M79.662 182.109c-.445.081-1.115-.02-1.504-.249l-3.227-1.906c-.389-.229-1.032-.251-1.435-.049l-2.73 1.368c-.185.092-.29.227-.322.373l-.004-.002-.858 3.674.005-.002c-.044.176.023.37.216.532l1.09.908-3.296-.199a.681.681 0 0 0-.728.552l-.012-.011-.859 3.677.004.001a.757.757 0 0 0-.021.232l.157 2.124c.033.45.42.883.863.969l4.129.791c.312.06.654.278.914.536l-.26.172a.606.606 0 0 0-.269.356l-.003.001-.861 3.688.003-.002c-.047.197.037.408.26.563l3.244 2.271c.37.259 1.013.341 1.436.183l2.781-1.036c.423-.157 1.097-.128 1.513.048.731.312 1.484.589 2.25.83.43.135.872.588.981 1.026l.486 1.945c.11.438.56.839 1.009.895l4.583.579c.41.052.78-.212.876-.601h.004l.583-2.494a.97.97 0 0 1 .534-.216 18.496 18.496 0 0 0 2.027-.252c.444-.08 1.115.02 1.504.25l3.227 1.906c.389.229 1.03.251 1.434.049l2.73-1.368c.178-.089.282-.217.317-.356l.004.003.864-3.699-.004.002c.04-.175-.027-.366-.218-.524l-1.09-.909 3.296.199a.69.69 0 0 0 .729-.508l.004.001.862-3.693-.01-.001a.731.731 0 0 0 .032-.25l-.157-2.123c-.033-.45-.42-.884-.863-.969l-4.13-.791c-.311-.06-.653-.279-.913-.536l.259-.172a.606.606 0 0 0 .271-.362l.003.002.852-3.657.001-.005.01-.042-.003.002c.037-.191-.048-.393-.262-.544l-3.245-2.271c-.37-.259-1.013-.341-1.436-.183l-2.781 1.036c-.423.157-1.097.128-1.513-.049a24.792 24.792 0 0 0-2.25-.829c-.43-.136-.872-.589-.982-1.027l-.485-1.944c-.11-.438-.561-.839-1.009-.895l-4.583-.579a.8.8 0 0 0-.9.71l-.192 1.747c-.05.449-.456.823-.906.854a18.72 18.72 0 0 0-2.026.25Zm13.577 13.251c-3.215 1.611-8.673.922-12.19-1.539-1.297-.908-2.145-1.929-2.543-2.938a5.32 5.32 0 0 1 1.136-.751c3.216-1.611 8.673-.922 12.19 1.54 1.292.904 2.138 1.921 2.538 2.926a5.096 5.096 0 0 1-1.13.762Z" opacity=".2"/>
    <path fill="#000" d="M100.464 196.402c-.282.354-.269.84.081 1.131l1.446 1.207 3.297.198c.355.02.64-.194.726-.509l.85-3.649c-.092.296-.37.488-.717.472l-4.05-.245c-.445-.027-.937.297-1.162.688a5.36 5.36 0 0 1-.471.707Zm1.764-10.548a.587.587 0 0 1-.268.356l-2.03 1.347c-.375.248-.427.72-.146 1.072.298.36.558.732.777 1.101.068.114.164.233.277.34l.263-.174a.614.614 0 0 0 .266-.363l.007-.002.854-3.677Zm-9.536 2.134c3.034 2.124 3.637 4.87 1.673 6.613-.393-1.009-1.243-2.021-2.532-2.928-3.519-2.46-8.974-3.153-12.193-1.541-.454.232-.829.48-1.129.752-.69-1.725-.04-3.419 1.988-4.436 3.22-1.614 8.675-.921 12.193 1.54Z" opacity=".1"/>
    <path fill="#BA68C8" d="M82.834 203.014c.13.162.243.336.283.512l.489 1.948c.07.274.27.536.529.706l.859-3.685c-.253-.172-.46-.432-.53-.706l-.489-1.947a1.321 1.321 0 0 0-.27-.516l-.87 3.688Zm-12.182-3.371c-.048.196.035.406.257.56l3.247 2.275c.24.169.593.25.93.256l.86-3.686c-.336.001-.692-.086-.93-.255l-3.24-2.27c-.223-.161-.313-.369-.259-.567l-.006.002-.859 3.685Zm24.11 4.012 3.189 1.882c.238.143.561.193.873.179l.855-3.677a1.59 1.59 0 0 1-.87-.187l-3.182-1.884-.865 3.687ZM66 190.775a.603.603 0 0 0-.017.234l.152 2.123c.035.446.421.88.864.967l4.128.792c.2.041.413.144.609.28l.859-3.686a1.705 1.705 0 0 0-.608-.279l-4.129-.792c-.44-.082-.827-.515-.864-.968l-.152-2.123a1.04 1.04 0 0 1 .013-.225L66 190.775Zm3.58-5.456.006-.002c-.041.174.025.369.216.533l1.093.905.747.049c.45.025.943-.299 1.166-.695.135-.243.294-.472.473-.701a1.72 1.72 0 0 0 .113-.182c.02-.046.037-.099.051-.143a.78.78 0 0 0-.1-.641.554.554 0 0 0-.144-.165l-2.534-2.114a.851.851 0 0 1-.152-.169.409.409 0 0 1-.08-.217.44.44 0 0 1 0-.135l-.855 3.677Z"/>
    <path fill="#fff" d="M82.834 203.014c.13.162.243.336.283.512l.489 1.948c.07.274.27.536.529.706l.859-3.685c-.253-.172-.46-.432-.53-.706l-.489-1.947a1.321 1.321 0 0 0-.27-.516l-.87 3.688Zm-12.182-3.371c-.048.196.035.406.257.56l3.247 2.275c.24.169.593.25.93.256l.86-3.686c-.336.001-.692-.086-.93-.255l-3.24-2.27c-.223-.161-.313-.369-.259-.567l-.006.002-.859 3.685Zm24.11 4.012 3.189 1.882c.238.143.561.193.873.179l.855-3.677a1.59 1.59 0 0 1-.87-.187l-3.182-1.884-.865 3.687ZM66 190.775a.603.603 0 0 0-.017.234l.152 2.123c.035.446.421.88.864.967l4.128.792c.2.041.413.144.609.28l.859-3.686a1.705 1.705 0 0 0-.608-.279l-4.129-.792c-.44-.082-.827-.515-.864-.968l-.152-2.123a1.04 1.04 0 0 1 .013-.225L66 190.775Zm3.58-5.456.006-.002c-.041.174.025.369.216.533l1.093.905.747.049c.45.025.943-.299 1.166-.695.135-.243.294-.472.473-.701a1.72 1.72 0 0 0 .113-.182c.02-.046.037-.099.051-.143a.78.78 0 0 0-.1-.641.554.554 0 0 0-.144-.165l-2.534-2.114a.851.851 0 0 1-.152-.169.409.409 0 0 1-.08-.217.44.44 0 0 1 0-.135l-.855 3.677Z" opacity=".7"/>
    <path fill="#BA68C8" d="m73.496 179.905-2.73 1.368c-.404.202-.45.6-.103.889l2.535 2.113c.347.289.36.777.082 1.132a5.656 5.656 0 0 0-.474.705c-.223.392-.713.716-1.163.689l-4.047-.244a.695.695 0 0 0-.756.766l.158 2.124c.033.45.42.884.863.969l4.13.791c.443.085.957.486 1.19.872.224.37.483.738.776 1.103.284.351.231.82-.145 1.07l-2.028 1.347c-.376.25-.38.663-.01.922l3.244 2.27c.37.259 1.013.341 1.436.184l2.78-1.037c.424-.157 1.098-.128 1.513.049.732.311 1.485.588 2.25.829.431.136.873.589.982 1.027l.486 1.944c.109.438.56.839 1.009.896l4.583.579a.802.802 0 0 0 .9-.71l.192-1.748c.049-.448.455-.822.905-.854a18.747 18.747 0 0 0 2.027-.251c.445-.081 1.116.02 1.504.249l3.227 1.906c.389.229 1.031.251 1.435.049l2.729-1.367c.404-.203.45-.601.103-.89l-2.534-2.113c-.347-.289-.361-.777-.082-1.131.18-.228.338-.464.475-.705.222-.393.712-.717 1.163-.69l4.046.244a.694.694 0 0 0 .755-.766l-.157-2.123c-.033-.45-.42-.884-.863-.969l-4.129-.791c-.444-.085-.959-.487-1.192-.873a9.882 9.882 0 0 0-.775-1.102c-.284-.351-.231-.82.145-1.07l2.028-1.348c.376-.25.381-.662.011-.921l-3.245-2.271c-.37-.259-1.013-.341-1.436-.183l-2.781 1.036c-.423.157-1.097.128-1.512-.049a24.78 24.78 0 0 0-2.25-.829c-.431-.136-.873-.589-.982-1.027l-.486-1.944c-.11-.438-.561-.839-1.009-.895l-4.583-.579a.801.801 0 0 0-.9.71l-.192 1.748c-.049.448-.455.822-.905.853-.694.05-1.372.133-2.027.252-.444.081-1.115-.02-1.504-.25l-3.227-1.905c-.39-.23-1.032-.252-1.435-.05Zm19.197 8.082c3.517 2.461 3.761 5.763.546 7.373-3.215 1.612-8.673.922-12.19-1.539-3.517-2.461-3.762-5.762-.547-7.373 3.216-1.612 8.674-.922 12.191 1.539Z"/>
    <path fill="#fff" d="m73.496 179.905-2.73 1.368c-.404.202-.45.6-.103.889l2.535 2.113c.347.289.36.777.082 1.132a5.656 5.656 0 0 0-.474.705c-.223.392-.713.716-1.163.689l-4.047-.244a.695.695 0 0 0-.756.766l.158 2.124c.033.45.42.884.863.969l4.13.791c.443.085.957.486 1.19.872.224.37.483.738.776 1.103.284.351.231.82-.145 1.07l-2.028 1.347c-.376.25-.38.663-.01.922l3.244 2.27c.37.259 1.013.341 1.436.184l2.78-1.037c.424-.157 1.098-.128 1.513.049.732.311 1.485.588 2.25.829.431.136.873.589.982 1.027l.486 1.944c.109.438.56.839 1.009.896l4.583.579a.802.802 0 0 0 .9-.71l.192-1.748c.049-.448.455-.822.905-.854a18.747 18.747 0 0 0 2.027-.251c.445-.081 1.116.02 1.504.249l3.227 1.906c.389.229 1.031.251 1.435.049l2.729-1.367c.404-.203.45-.601.103-.89l-2.534-2.113c-.347-.289-.361-.777-.082-1.131.18-.228.338-.464.475-.705.222-.393.712-.717 1.163-.69l4.046.244a.694.694 0 0 0 .755-.766l-.157-2.123c-.033-.45-.42-.884-.863-.969l-4.129-.791c-.444-.085-.959-.487-1.192-.873a9.882 9.882 0 0 0-.775-1.102c-.284-.351-.231-.82.145-1.07l2.028-1.348c.376-.25.381-.662.011-.921l-3.245-2.271c-.37-.259-1.013-.341-1.436-.183l-2.781 1.036c-.423.157-1.097.128-1.512-.049a24.78 24.78 0 0 0-2.25-.829c-.431-.136-.873-.589-.982-1.027l-.486-1.944c-.11-.438-.561-.839-1.009-.895l-4.583-.579a.801.801 0 0 0-.9.71l-.192 1.748c-.049.448-.455.822-.905.853-.694.05-1.372.133-2.027.252-.444.081-1.115-.02-1.504-.25l-3.227-1.905c-.39-.23-1.032-.252-1.435-.05Zm19.197 8.082c3.517 2.461 3.761 5.763.546 7.373-3.215 1.612-8.673.922-12.19-1.539-3.517-2.461-3.762-5.762-.547-7.373 3.216-1.612 8.674-.922 12.191 1.539Z" opacity=".55"/>
    <path fill="#fff" d="M67.51 189.502a.422.422 0 0 1-.017-.093l-.158-2.123c-.005-.074.013-.135.055-.177.041-.042.102-.062.176-.057l4.047.244c.611.037 1.294-.358 1.624-.94a5.11 5.11 0 0 1 .433-.643c.278-.355.371-.81.247-1.218a1.256 1.256 0 0 0-.401-.602l-2.535-2.113a.262.262 0 0 1-.038-.036.333.333 0 0 1 .046-.028l2.73-1.367c.25-.126.717-.11.96.033l3.226 1.905c.477.282 1.27.415 1.845.311a18.077 18.077 0 0 1 1.973-.245c.69-.049 1.29-.617 1.364-1.296l.192-1.747a.304.304 0 0 1 .345-.272l4.583.579c.234.03.512.269.589.523v.001l.485 1.944c.006.023.012.047.02.071.174.577.719 1.127 1.294 1.309a24.1 24.1 0 0 1 2.205.812c.541.231 1.35.255 1.88.058l2.782-1.036c.268-.1.743-.04.978.125l3.244 2.27c.035.025.052.044.059.048a.242.242 0 0 1-.06.054l-2.028 1.348c-.457.303-.65.833-.494 1.349a1.3 1.3 0 0 0 .237.446c.277.342.525.695.737 1.047.276.456.887.982 1.523 1.104l4.129.791c.188.036.383.223.444.425.01.032.016.063.018.093l.157 2.123c.006.074-.013.135-.055.177a.224.224 0 0 1-.176.057l-4.046-.244c-.611-.037-1.295.358-1.624.94a5.245 5.245 0 0 1-.433.643c-.279.354-.37.81-.247 1.217.07.234.209.443.401.602l2.535 2.113a.462.462 0 0 1 .038.037.25.25 0 0 1-.046.028l-2.729 1.367c-.252.126-.718.11-.96-.032l-3.227-1.906c-.477-.282-1.27-.415-1.845-.311-.629.114-1.292.197-1.973.245-.69.049-1.29.618-1.364 1.295l-.192 1.748a.309.309 0 0 1-.115.209.31.31 0 0 1-.23.063l-4.583-.579c-.234-.03-.512-.27-.589-.523v-.001l-.486-1.944a1.339 1.339 0 0 0-.02-.071c-.174-.577-.718-1.128-1.294-1.309a24.455 24.455 0 0 1-2.205-.812c-.54-.231-1.349-.255-1.88-.057l-2.782 1.036c-.268.1-.743.039-.978-.125l-3.245-2.271c-.034-.024-.051-.044-.058-.047a.216.216 0 0 1 .06-.054l2.028-1.348c.457-.303.65-.833.494-1.349a1.308 1.308 0 0 0-.237-.446 9.454 9.454 0 0 1-.737-1.047c-.276-.456-.887-.982-1.524-1.104l-4.128-.791c-.188-.037-.382-.223-.444-.426Zm28.312 1.589c-.382-1.262-1.365-2.476-2.844-3.511-3.645-2.551-9.34-3.258-12.697-1.576-2.06 1.031-2.942 2.793-2.361 4.712.382 1.262 1.365 2.476 2.844 3.511 3.645 2.551 9.341 3.259 12.697 1.577 2.06-1.031 2.943-2.793 2.361-4.713Zm-28.787-1.445c.113.372.449.697.826.769l4.13.791c.443.085.957.487 1.19.873.224.369.483.737.776 1.102a.84.84 0 0 1 .15.278.69.69 0 0 1-.295.792l-2.028 1.348c-.24.159-.329.385-.265.595a.63.63 0 0 0 .254.326l3.245 2.271c.37.259 1.013.341 1.436.183l2.78-1.036c.424-.158 1.098-.129 1.513.048.732.312 1.485.588 2.25.83.415.13.841.556.97.978l.012.048.486 1.944c.004.015.007.029.012.043.127.421.564.798.997.852l4.583.579a.802.802 0 0 0 .9-.71l.192-1.747c.049-.449.455-.823.905-.854a18.721 18.721 0 0 0 2.027-.252c.444-.08 1.115.021 1.504.25l3.227 1.906c.388.229 1.03.251 1.434.049l2.73-1.367c.274-.138.384-.366.316-.589a.633.633 0 0 0-.213-.301l-2.535-2.113a.753.753 0 0 1-.244-.364.851.851 0 0 1 .162-.767c.18-.229.338-.464.475-.705.222-.393.712-.717 1.163-.69l4.046.244a.695.695 0 0 0 .755-.766l-.157-2.123a.991.991 0 0 0-.037-.2c-.113-.373-.449-.697-.826-.769l-4.129-.791c-.443-.085-.958-.487-1.191-.873a9.954 9.954 0 0 0-.776-1.102.828.828 0 0 1-.148-.278.691.691 0 0 1 .293-.793l2.028-1.348c.24-.159.329-.385.266-.595a.63.63 0 0 0-.255-.326l-3.244-2.27c-.37-.259-1.013-.341-1.436-.184l-2.782 1.036c-.422.158-1.097.129-1.512-.048a24.502 24.502 0 0 0-2.25-.83c-.415-.13-.841-.556-.969-.979a1.131 1.131 0 0 1-.013-.047l-.485-1.945-.012-.043c-.128-.421-.564-.798-.997-.852l-4.583-.579a.802.802 0 0 0-.9.71l-.192 1.748c-.05.449-.456.822-.906.854-.694.048-1.372.132-2.026.251-.445.081-1.115-.02-1.504-.249l-3.227-1.905c-.389-.23-1.032-.252-1.435-.05l-2.73 1.368c-.274.137-.384.365-.316.588a.639.639 0 0 0 .213.301l2.535 2.113a.756.756 0 0 1 .245.364.85.85 0 0 1-.163.767 5.73 5.73 0 0 0-.474.705c-.223.393-.713.717-1.163.69l-4.047-.244a.695.695 0 0 0-.756.766l.157 2.123a.921.921 0 0 0 .038.201Zm28.312 1.589c.49 1.618-.2 3.169-2.108 4.125-3.215 1.611-8.673.922-12.19-1.539-1.43-1.001-2.319-2.14-2.654-3.249-.49-1.617.2-3.168 2.108-4.125 3.216-1.611 8.674-.922 12.19 1.54 1.43 1 2.319 2.14 2.654 3.248Z" opacity=".55"/>
    <path fill="#BA68C8" d="M81.066 169.924c41.441 0 75.035-33.594 75.035-75.034 0-41.44-33.594-75.034-75.035-75.034-41.44 0-75.034 33.593-75.034 75.034 0 41.44 33.594 75.034 75.034 75.034Z" opacity=".2"/>
    <path fill="#BA68C8" d="M126.079 139.904c24.861-24.861 24.861-65.167 0-90.028-24.86-24.86-65.167-24.86-90.028 0-24.86 24.86-24.86 65.167 0 90.028 24.86 24.86 65.168 24.86 90.028 0Z" opacity=".2"/>
    <path fill="#BA68C8" d="M119.891 133.715c21.442-21.442 21.442-56.208 0-77.65-21.443-21.443-56.208-21.443-77.651 0-21.443 21.442-21.443 56.208 0 77.65 21.443 21.443 56.208 21.443 77.651 0Z" opacity=".2"/>
    <path fill="#BA68C8" d="M115.045 128.869c18.766-18.766 18.766-49.192 0-67.959-18.767-18.766-49.193-18.766-67.96 0-18.765 18.767-18.765 49.193 0 67.959 18.767 18.767 49.193 18.767 67.96 0Z" opacity=".2"/>
    <path fill="#263238" d="M102.135 159.564c-3.497-.446-4.602-3.082-2.467-5.887 2.135-2.805 6.7-4.718 10.197-4.272 3.497.446 4.601 3.082 2.467 5.887-2.135 2.805-6.7 4.718-10.197 4.272Z"/>
    <path fill="#BA68C8" d="m113.386 152.992-1.17.49c-.489-.435-1.202-.74-2.122-.858-2.844-.363-6.556 1.193-8.292 3.474-.562.738-.843 1.461-.877 2.114l-1.169.49 2.232 1.563.004-.002c.466.309 1.072.528 1.816.623 2.844.363 6.556-1.193 8.292-3.474.454-.597.724-1.182.83-1.731l.004-.001.452-2.688Z"/>
    <path fill="#000" d="m113.386 152.992-1.17.49c-.489-.435-1.202-.74-2.122-.858-2.844-.363-6.556 1.193-8.292 3.474-.562.738-.843 1.461-.877 2.114l-1.169.49 2.232 1.563.004-.002c.466.309 1.072.528 1.816.623 2.844.363 6.556-1.193 8.292-3.474.454-.597.724-1.182.83-1.731l.004-.001.452-2.688Z" opacity=".4"/>
    <path fill="#BA68C8" d="M107.196 157.344c5.894-2.452 9.525-7.198 8.11-10.601-1.416-3.403-7.341-4.174-13.236-1.722-5.894 2.451-9.525 7.197-8.11 10.6 1.416 3.403 7.341 4.174 13.236 1.723Z"/>
    <path fill="#BA68C8" d="M106.637 155.999c6.113-2.542 9.879-7.465 8.411-10.994-1.468-3.53-7.614-4.33-13.727-1.787-6.113 2.542-9.88 7.465-8.411 10.994 1.468 3.529 7.614 4.33 13.727 1.787Z"/>
    <path fill="#000" d="M106.637 155.999c6.113-2.542 9.879-7.465 8.411-10.994-1.468-3.53-7.614-4.33-13.727-1.787-6.113 2.542-9.88 7.465-8.411 10.994 1.468 3.529 7.614 4.33 13.727 1.787Z" opacity=".2"/>
    <path fill="#BA68C8" d="M106.001 154.474c6.268-2.607 10.13-7.654 8.624-11.273-1.505-3.619-7.806-4.439-14.074-1.832s-10.13 7.653-8.624 11.272c1.505 3.619 7.806 4.439 14.074 1.833Z"/>
    <path fill="#BA68C8" d="M105.367 152.946c6.422-2.671 10.379-7.842 8.837-11.551-1.543-3.708-7.999-4.548-14.422-1.877-6.423 2.671-10.379 7.842-8.837 11.551 1.542 3.708 8 4.548 14.422 1.877Z"/>
    <path fill="#000" d="M105.367 152.946c6.422-2.671 10.379-7.842 8.837-11.551-1.543-3.708-7.999-4.548-14.422-1.877-6.423 2.671-10.379 7.842-8.837 11.551 1.542 3.708 8 4.548 14.422 1.877Z" opacity=".2"/>
    <path fill="#BA68C8" d="M95.473 152.918c-5.768-.751-7.578-5.105-4.044-9.724 3.534-4.62 11.076-7.756 16.843-7.004 5.768.751 7.578 5.104 4.044 9.724-3.534 4.619-11.075 7.755-16.843 7.004Z"/>
    <path fill="#37474F" d="M94.62 151.426c-5.904-.769-7.757-5.225-4.14-9.953 3.618-4.728 11.337-7.938 17.24-7.169 5.904.769 7.757 5.225 4.139 9.953-3.617 4.728-11.335 7.938-17.239 7.169Z"/>
    <path fill="#BA68C8" d="M65.084 56.067c-21.19 8.811-31.223 33.131-22.411 54.319 12.665 30.457 39.897 25.064 45.002 37.34.813 1.955 2.92 3.374 6.124 3.791 6.41.835 14.791-2.65 18.719-7.784 1.964-2.567 2.443-5.06 1.629-7.016h.001c-5.105-12.276 17.921-27.783 5.256-58.239-8.812-21.189-33.132-31.222-54.32-22.411Z"/>
    <path fill="#fff" d="M65.084 56.067c-21.19 8.811-31.223 33.131-22.411 54.319 12.665 30.457 39.897 25.064 45.002 37.34.813 1.955 2.92 3.374 6.124 3.791 6.41.835 14.791-2.65 18.719-7.784 1.964-2.567 2.443-5.06 1.629-7.016h.001c-5.105-12.276 17.921-27.783 5.256-58.239-8.812-21.189-33.132-31.222-54.32-22.411Z" opacity=".9"/>
    <path fill="#fff" d="M91.044 63.436a6.58 6.58 0 0 0-1.011 1.36c-1.03 1.83-.77 4.203.309 6.005 2.087 3.485 6.621 4.312 9.89 6.338a35.672 35.672 0 0 1 9.35 8.38c.772.991 1.94 2.68 2.933 3.447 1.561 1.206 3.557.667 4.354-.303 1.16-1.413 1.155-3.599.757-5.146-2.365-9.2-6.84-14.955-13.994-19.815-3.899-2.649-8.896-4.061-12.588-.266Z"/>
    <path fill="#fff" d="M98.957 108.102c11.572-11.572 11.572-30.335 0-41.908-11.573-11.572-30.335-11.572-41.908 0-11.572 11.573-11.572 30.336 0 41.908 11.573 11.573 30.335 11.573 41.908 0Z" opacity=".6"/>
    <path fill="#fff" d="M114.008 95.337c.099 1.331.795 2.46 1.829 3.27 1.13.883 2.893.502 3.687-.633.816-1.168 1.01-2.767.441-4.08-.606-1.398-2.14-2.52-3.764-2.025-1.513.46-2.292 2.126-2.193 3.468Z"/>
    <path fill="#BA68C8" d="M91.617 141.534c-2.874-4.506-5.285-6.564-12.55-7.143-7.263-.58-19.563-.937-29.114-11.64 13.756 16.791 33.458 14.721 37.722 24.975.813 1.956 2.92 3.374 6.124 3.791 1.322.173 2.73.152 4.164-.02-1.817-2.855-4.558-7.16-6.346-9.963Zm15.36-6.388c-1.168-5.215-.927-8.376 3.785-13.936 4.71-5.559 13.13-14.532 12.275-28.852 2.207 21.593-13.154 34.105-8.889 44.359.813 1.956.334 4.449-1.63 7.015-.811 1.059-1.818 2.043-2.951 2.938-.743-3.3-1.862-8.28-2.59-11.524Z" opacity=".15"/>
    <path fill="#BA68C8" d="M73.669 79.329a6.399 6.399 0 1 1-9.326 8.763 6.399 6.399 0 0 1 9.326-8.763Z"/>
    <path fill="#000" d="M69.957 87.846c-3.261.83-6.256-1.23-7.346-4.318a6.398 6.398 0 0 0 10.777 4.844 6.397 6.397 0 0 0 1.65-6.79c.436 1.725-1.614 5.382-5.08 6.264Z" opacity=".2"/>
    <path fill="#BA68C8" d="M73.066 92.35a6.399 6.399 0 1 1-9.327 8.764 6.399 6.399 0 0 1 9.327-8.764Z"/>
    <path fill="#fff" d="M73.066 92.35a6.399 6.399 0 1 1-9.327 8.764 6.399 6.399 0 0 1 9.327-8.764Z" opacity=".45"/>
    <path fill="#BA68C8" d="M69.354 100.867c-3.262.831-6.257-1.228-7.346-4.317a6.397 6.397 0 1 0 12.427-1.946c.437 1.725-1.614 5.382-5.08 6.263Z" opacity=".2"/>
    <path fill="#BA68C8" d="M82.796 98.749a6.398 6.398 0 0 1-.28 9.044 6.398 6.398 0 1 1 .281-9.044Z"/>
    <path fill="#fff" d="M82.796 98.749a6.398 6.398 0 0 1-.28 9.044 6.398 6.398 0 1 1 .281-9.044Z" opacity=".15"/>
    <path fill="#BA68C8" d="M79.085 107.266c-3.262.83-6.257-1.229-7.347-4.317a6.397 6.397 0 1 0 12.427-1.945c.437 1.724-1.614 5.38-5.08 6.262Z" opacity=".4"/>
    <path fill="#BA68C8" d="M93.59 93.566a6.398 6.398 0 1 1-9.325 8.763 6.398 6.398 0 0 1 9.325-8.763Z"/>
    <path fill="#000" d="M89.878 102.083c-3.261.83-6.257-1.229-7.346-4.318a6.397 6.397 0 1 0 12.427-1.946c.437 1.725-1.615 5.381-5.08 6.264Z" opacity=".2"/>
    <path fill="#BA68C8" d="M93.846 82.203a6.399 6.399 0 1 1-9.326 8.763 6.399 6.399 0 0 1 9.326-8.763Z"/>
    <path fill="#fff" d="M93.846 82.203a6.399 6.399 0 1 1-9.326 8.763 6.399 6.399 0 0 1 9.326-8.763Z" opacity=".45"/>
    <path fill="#BA68C8" d="M90.134 90.72c-3.261.83-6.257-1.23-7.346-4.317a6.398 6.398 0 0 0 10.777 4.844 6.397 6.397 0 0 0 1.65-6.79c.437 1.725-1.615 5.38-5.08 6.263Z" opacity=".2"/>
    <path fill="#BA68C8" d="M91.5 87.755a5.08 5.08 0 1 1-7.405 6.96 5.08 5.08 0 0 1 7.405-6.96Z"/>
    <path fill="#fff" d="M91.5 87.755a5.08 5.08 0 1 1-7.405 6.96 5.08 5.08 0 0 1 7.405-6.96Z" opacity=".3"/>
    <path fill="#BA68C8" d="M88.553 94.52c-2.59.659-4.968-.977-5.834-3.429a5.08 5.08 0 1 0 9.868-1.545c.347 1.369-1.281 4.272-4.034 4.973Z" opacity=".5"/>
    <path fill="#BA68C8" d="M87.967 81.25a7.682 7.682 0 1 0-15.365-.044 7.682 7.682 0 0 0 15.365.045Z"/>
    <path fill="#fff" d="M87.967 81.25a7.682 7.682 0 1 0-15.365-.044 7.682 7.682 0 0 0 15.365.045Z" opacity=".15"/>
    <path fill="#BA68C8" d="M81.425 86.192c-3.916.997-7.512-1.475-8.82-5.182a7.682 7.682 0 0 0 12.94 5.816 7.68 7.68 0 0 0 1.98-8.153c.525 2.07-1.938 6.46-6.1 7.52Z" opacity=".4"/>
    <path fill="#BA68C8" d="M78.767 100.369a7.683 7.683 0 1 0 0-15.365 7.683 7.683 0 0 0 0 15.365Z"/>
    <path fill="#000" d="M79.91 97.652c-3.917.997-7.513-1.475-8.82-5.183a7.682 7.682 0 0 0 12.94 5.816 7.68 7.68 0 0 0 1.98-8.153c.524 2.07-1.939 6.46-6.1 7.52Z" opacity=".2"/>
    <path fill="#BA68C8" d="M75.815 90.705a5.081 5.081 0 1 0-10.157-.316 5.081 5.081 0 0 0 10.157.316Z"/>
    <path fill="#fff" d="M75.815 90.705a5.081 5.081 0 1 0-10.157-.316 5.081 5.081 0 0 0 10.157.316Z" opacity=".3"/>
    <path fill="#BA68C8" d="M71.492 93.828c-2.59.66-4.969-.975-5.834-3.428a5.08 5.08 0 1 0 9.868-1.545c.347 1.37-1.282 4.273-4.034 4.973Z" opacity=".5"/>
    <path fill="#fff" d="M129.969 133.443c-.378 0-.765-.007-1.159-.02a.427.427 0 0 1-.412-.441c.008-.236.22-.431.441-.413 1.522.05 2.938 0 4.197-.152a.426.426 0 0 1 .476.372.428.428 0 0 1-.373.476c-.976.118-2.043.178-3.17.178Zm-5.398-.378a.507.507 0 0 1-.055-.003 65.91 65.91 0 0 1-4.241-.697.428.428 0 0 1 .165-.838 64.73 64.73 0 0 0 4.185.687.428.428 0 0 1-.054.851Zm12.637-.854a.429.429 0 0 1-.175-.818 8.246 8.246 0 0 0 1.15-.621c.394-.24.724-.535.939-.736.376-.353.697-.744.954-1.163a.426.426 0 1 1 .727.446 6.499 6.499 0 0 1-1.097 1.339 6.618 6.618 0 0 1-1.068.837 9.199 9.199 0 0 1-1.257.679.428.428 0 0 1-.173.037Zm-21.016-.771a.412.412 0 0 1-.104-.013 106.367 106.367 0 0 1-4.138-1.124.427.427 0 1 1 .24-.82c1.392.408 2.772.783 4.104 1.115a.427.427 0 0 1-.102.842Zm-8.198-2.389a.441.441 0 0 1-.134-.021 145.575 145.575 0 0 1-4.047-1.402.426.426 0 1 1 .291-.802c1.356.491 2.71.96 4.023 1.393a.426.426 0 0 1-.133.832Zm-8.031-2.905a.406.406 0 0 1-.156-.03 177.306 177.306 0 0 1-3.966-1.609.427.427 0 0 1 .33-.788c1.323.555 2.652 1.095 3.947 1.602a.427.427 0 0 1-.155.825Zm41.369-.581a.428.428 0 0 1-.426-.405c-.062-1.196-.391-2.538-.978-3.989a.427.427 0 1 1 .792-.32c.623 1.539.972 2.974 1.039 4.265a.426.426 0 0 1-.404.448l-.023.001Zm-49.247-2.719a.428.428 0 0 1-.173-.037 213.67 213.67 0 0 1-3.891-1.779.427.427 0 0 1 .362-.773c1.296.608 2.6 1.204 3.876 1.772a.427.427 0 0 1-.174.817Zm-7.732-3.627a.425.425 0 0 1-.188-.044 219.788 219.788 0 0 1-3.822-1.932.427.427 0 0 1 .4-.755c.478.253.953.499 1.436.739.794.402 1.58.795 2.364 1.182a.427.427 0 0 1-.19.81Zm54.019-1.573a.424.424 0 0 1-.364-.204 42.85 42.85 0 0 0-2.4-3.478.426.426 0 1 1 .68-.517 43.547 43.547 0 0 1 2.448 3.549.427.427 0 0 1-.364.65Zm-61.598-2.361a.418.418 0 0 1-.2-.051 319.897 319.897 0 0 1-3.754-2.049.427.427 0 0 1 .415-.747c1.208.671 2.456 1.352 3.742 2.044a.427.427 0 0 1-.203.803Zm-7.457-4.157a.433.433 0 0 1-.216-.058 238.398 238.398 0 0 1-3.671-2.198.426.426 0 1 1 .445-.728c1.205.736 2.436 1.472 3.659 2.189a.427.427 0 0 1-.218.795Zm63.925-.297a.426.426 0 0 1-.322-.146 80.368 80.368 0 0 0-2.882-3.119.427.427 0 1 1 .612-.595 84.112 84.112 0 0 1 2.913 3.152.427.427 0 0 1-.321.708Zm-71.215-4.155a.427.427 0 0 1-.229-.067 228.596 228.596 0 0 1-3.59-2.33.427.427 0 0 1 .471-.712 239.38 239.38 0 0 0 3.577 2.322.427.427 0 0 1-.23.787Zm65.278-1.982a.424.424 0 0 1-.294-.117 127.021 127.021 0 0 0-3.138-2.875.427.427 0 0 1 .567-.639c1.094.969 2.156 1.943 3.16 2.895a.427.427 0 0 1-.295.736Zm-72.4-2.738a.427.427 0 0 1-.242-.075 218.378 218.378 0 0 1-3.496-2.468.427.427 0 1 1 .5-.693c1.138.822 2.31 1.649 3.482 2.459a.427.427 0 0 1-.243.777Zm-6.927-4.998a.424.424 0 0 1-.256-.087c-1.15-.867-2.29-1.749-3.388-2.619a.427.427 0 0 1 .53-.669c1.094.866 2.228 1.743 3.372 2.607a.427.427 0 0 1-.258.768Zm-6.693-5.308a.425.425 0 0 1-.273-.1 149.4 149.4 0 0 1-3.25-2.792.427.427 0 1 1 .567-.64c1.036.919 2.122 1.853 3.23 2.777a.427.427 0 0 1-.274.755Zm-6.388-5.67a.426.426 0 0 1-.294-.117 106.638 106.638 0 0 1-3.053-3.012.427.427 0 1 1 .612-.595c.952.978 1.97 1.984 3.029 2.987a.427.427 0 0 1-.294.737Zm-5.943-6.134a.426.426 0 0 1-.32-.145 63.355 63.355 0 0 1-2.731-3.321.427.427 0 1 1 .678-.518 62.53 62.53 0 0 0 2.694 3.276.427.427 0 0 1-.32.708ZM23.81 73.04a.426.426 0 0 1-.363-.203c-.831-1.344-1.504-2.637-1.999-3.845a.427.427 0 0 1 .79-.324c.478 1.164 1.13 2.416 1.936 3.72a.427.427 0 0 1-.363.652Zm-3.004-7.898a.427.427 0 0 1-.426-.408l-.003-.051a9.837 9.837 0 0 1-.015-.522c0-1.435.34-2.702 1.012-3.767a.426.426 0 1 1 .723.455c-.585.926-.88 2.041-.88 3.312 0 .154.003.311.012.47l.004.065a.427.427 0 0 1-.408.446h-.019Zm33.416-3.531a.425.425 0 0 1-.134-.021 125.487 125.487 0 0 0-4.063-1.268.428.428 0 0 1 .24-.82c1.329.39 2.705.82 4.091 1.277a.427.427 0 0 1-.133.832Zm-8.195-2.392a.433.433 0 0 1-.104-.013 85.41 85.41 0 0 0-4.146-.931.428.428 0 0 1 .165-.838c1.342.265 2.75.581 4.187.94a.427.427 0 0 1-.102.841Zm-21.022-.816a.427.427 0 0 1-.172-.819c1.183-.516 2.612-.875 4.247-1.067a.427.427 0 1 1 .1.848c-1.552.182-2.9.52-4.005 1.002a.42.42 0 0 1-.17.036Zm12.643-.816a.549.549 0 0 1-.056-.003 45.223 45.223 0 0 0-4.213-.36.426.426 0 1 1 .03-.853c1.335.046 2.78.17 4.293.366.234.03.399.245.369.479a.428.428 0 0 1-.423.371Z"/>
    <path fill="#fff" d="M63.028 161.172a6.456 6.456 0 0 1-2.2-.379.427.427 0 1 1 .29-.803 5.592 5.592 0 0 0 1.91.328h.004c.639 0 1.314-.101 2.007-.299l.13.406.092.417c-.756.218-1.51.33-2.23.33h-.003Zm5.93-2.242a.427.427 0 0 1-.247-.776 24.817 24.817 0 0 0 2.636-2.178c.185-.174.372-.353.559-.538a.426.426 0 0 1 .599.608 32.54 32.54 0 0 1-.574.553 25.52 25.52 0 0 1-2.728 2.252.417.417 0 0 1-.246.079Zm-11.281-.719a.428.428 0 0 1-.345-.175c-.762-1.042-1.427-2.356-1.976-3.904a.426.426 0 1 1 .805-.286c.521 1.471 1.147 2.71 1.86 3.686a.427.427 0 0 1-.344.679Zm17.402-5.195a.428.428 0 0 1-.328-.7 62.656 62.656 0 0 0 2.588-3.358.427.427 0 0 1 .692.5 63.819 63.819 0 0 1-2.623 3.403.426.426 0 0 1-.329.155Zm-20.41-2.721a.426.426 0 0 1-.419-.347 46.54 46.54 0 0 1-.601-4.264.427.427 0 1 1 .85-.082c.144 1.491.342 2.9.59 4.185a.427.427 0 0 1-.42.508Zm25.418-4.187a.426.426 0 0 1-.358-.659 104.447 104.447 0 0 0 2.23-3.619.428.428 0 0 1 .735.433 105.65 105.65 0 0 1-2.248 3.65.427.427 0 0 1-.359.195Zm-26.28-4.297a.426.426 0 0 1-.426-.413 81.326 81.326 0 0 1-.039-2.566c0-.566.005-1.14.016-1.723.004-.236.193-.405.435-.419a.427.427 0 0 1 .42.434 94.02 94.02 0 0 0-.016 1.708c0 .868.012 1.722.038 2.539a.426.426 0 0 1-.413.44h-.014Zm30.62-3.054a.428.428 0 0 1-.374-.631 149.04 149.04 0 0 0 1.978-3.77.428.428 0 0 1 .762.386 147.235 147.235 0 0 1-1.99 3.792.426.426 0 0 1-.376.223Zm-30.474-5.478-.026-.001a.427.427 0 0 1-.401-.452c.081-1.381.19-2.818.325-4.269a.427.427 0 0 1 .85.078 127.907 127.907 0 0 0-.322 4.241.428.428 0 0 1-.426.403Zm34.338-2.135a.428.428 0 0 1-.386-.61 182.71 182.71 0 0 0 1.78-3.869.426.426 0 0 1 .78.347 182.217 182.217 0 0 1-1.788 3.888.428.428 0 0 1-.386.244Zm3.48-7.796a.426.426 0 0 1-.393-.593c.543-1.293 1.084-2.62 1.609-3.945a.428.428 0 0 1 .794.315 206.935 206.935 0 0 1-1.617 3.961.428.428 0 0 1-.393.262Zm3.146-7.938a.427.427 0 0 1-.4-.576 224.9 224.9 0 0 0 1.455-4.005.428.428 0 0 1 .806.284 227.38 227.38 0 0 1-1.46 4.02.428.428 0 0 1-.4.277Zm2.84-8.051a.427.427 0 0 1-.406-.562c.444-1.333.885-2.697 1.309-4.055a.427.427 0 1 1 .815.254 234.557 234.557 0 0 1-1.313 4.07.426.426 0 0 1-.404.293Zm2.548-8.149a.427.427 0 0 1-.41-.547c.401-1.365.791-2.743 1.162-4.094a.427.427 0 0 1 .824.225 241.1 241.1 0 0 1-1.166 4.11.428.428 0 0 1-.41.306Zm2.254-8.225a.427.427 0 0 1-.414-.533 249.851 249.851 0 0 0 1.017-4.137.426.426 0 1 1 .831.197 274.462 274.462 0 0 1-1.021 4.15.427.427 0 0 1-.413.322Zm1.961-8.308a.427.427 0 0 1-.418-.517c.303-1.402.592-2.806.859-4.172a.427.427 0 1 1 .838.164 211.363 211.363 0 0 1-.862 4.189.427.427 0 0 1-.417.336Zm1.633-8.377a.427.427 0 0 1-.422-.5c.243-1.406.471-2.821.677-4.204a.427.427 0 1 1 .844.126c-.206 1.39-.435 2.81-.679 4.224a.427.427 0 0 1-.42.354Zm1.252-8.443c-.017 0-.034 0-.052-.003a.427.427 0 0 1-.372-.476c.175-1.432.329-2.855.456-4.23a.428.428 0 0 1 .851.078 146.679 146.679 0 0 1-.459 4.255.428.428 0 0 1-.424.376Zm.782-8.498-.026-.001a.427.427 0 0 1-.401-.451c.086-1.457.142-2.886.167-4.247a.42.42 0 0 1 .435-.42.426.426 0 0 1 .419.435 105.184 105.184 0 0 1-.169 4.282.426.426 0 0 1-.425.402Zm-30.471-5.486a.427.427 0 0 1-.375-.631c.7-1.286 1.41-2.54 2.11-3.729a.427.427 0 1 1 .736.434 125.76 125.76 0 0 0-2.096 3.703.427.427 0 0 1-.375.223Zm30.616-3.046a.427.427 0 0 1-.426-.414 65.501 65.501 0 0 0-.262-4.23.427.427 0 1 1 .849-.083c.13 1.344.22 2.787.266 4.286a.426.426 0 0 1-.413.44h-.014Zm-26.273-4.304a.427.427 0 0 1-.358-.659 83.813 83.813 0 0 1 2.416-3.547.426.426 0 1 1 .692.5 83.587 83.587 0 0 0-2.391 3.51.426.426 0 0 1-.359.196Zm25.414-4.18a.427.427 0 0 1-.419-.346c-.288-1.5-.648-2.866-1.071-4.06a.428.428 0 0 1 .805-.286c.437 1.236.809 2.644 1.105 4.184a.428.428 0 0 1-.42.508Zm-20.403-2.73a.427.427 0 0 1-.328-.7 43.575 43.575 0 0 1 2.903-3.184.428.428 0 0 1 .6.608 42.675 42.675 0 0 0-2.847 3.122.422.422 0 0 1-.328.155Zm17.402-5.189a.427.427 0 0 1-.345-.175 8.412 8.412 0 0 0-.947-1.097c-.66-.63-1.383-1.09-2.145-1.366a.427.427 0 1 1 .29-.803c.875.316 1.698.839 2.446 1.553.366.353.718.76 1.045 1.21a.425.425 0 0 1-.344.678Zm-11.276-.72a.427.427 0 0 1-.246-.776c1.354-.95 2.67-1.614 3.91-1.974a.427.427 0 0 1 .247.818l-.006.002c-1.154.333-2.384.956-3.66 1.853a.42.42 0 0 1-.245.078Z"/>
    <path fill="#fff" d="M40.48 120.676c-1.486 0-2.922-.03-4.287-.088a.427.427 0 0 1-.409-.445.423.423 0 0 1 .445-.408c1.354.057 2.777.087 4.231.087.236 0 .437.191.437.427a.42.42 0 0 1-.417.427Zm4.268-.079a.427.427 0 0 1-.015-.854c1.378-.049 2.808-.122 4.252-.218a.428.428 0 0 1 .056.852c-1.452.096-2.891.17-4.278.22h-.015Zm-12.797-.302-.041-.002a59.004 59.004 0 0 1-4.264-.564.427.427 0 1 1 .145-.841 58.99 58.99 0 0 0 4.2.555.427.427 0 0 1-.04.852Zm21.318-.258a.427.427 0 0 1-.039-.853c1.396-.13 2.821-.281 4.236-.447a.427.427 0 1 1 .1.848c-1.422.167-2.854.319-4.257.45l-.04.002Zm8.481-.996a.427.427 0 0 1-.06-.85c1.38-.194 2.797-.407 4.214-.636a.425.425 0 0 1 .49.353.425.425 0 0 1-.354.489c-1.423.23-2.847.445-4.23.639a.296.296 0 0 1-.06.005Zm-38.195-.236a.429.429 0 0 1-.117-.016c-1.53-.437-2.898-.953-4.063-1.534a.427.427 0 1 1 .381-.764c1.118.557 2.436 1.053 3.916 1.476a.428.428 0 0 1-.117.838Zm46.626-1.123a.427.427 0 0 1-.075-.847c1.268-.23 2.57-.478 3.868-.736l.314-.065a.427.427 0 0 1 .175.835l-.318.067c-1.307.26-2.613.508-3.886.739a.42.42 0 0 1-.078.007Zm8.38-1.647a.427.427 0 0 1-.085-.846c1.423-.291 2.822-.598 4.157-.914a.427.427 0 1 1 .196.831c-1.344.318-2.751.627-4.183.92a.417.417 0 0 1-.085.009Zm-62.432-1.223a.425.425 0 0 1-.315-.139l-.054-.06c-1.06-1.215-1.644-2.574-1.733-4.04a.427.427 0 1 1 .853-.051c.077 1.273.59 2.46 1.522 3.528l.043.047a.428.428 0 0 1-.316.715Zm70.739-.752a.426.426 0 0 1-.113-.839 97.86 97.86 0 0 0 1.381-.392 223.86 223.86 0 0 0 2.737-.738.427.427 0 0 1 .228.823c-.908.25-1.82.497-2.736.738-.45.131-.914.263-1.382.392a.456.456 0 0 1-.115.016Zm8.225-2.303a.427.427 0 0 1-.121-.837c1.365-.403 2.737-.823 4.077-1.245a.426.426 0 1 1 .257.814c-1.345.425-2.722.846-4.092 1.251a.469.469 0 0 1-.121.017Zm8.144-2.573a.427.427 0 0 1-.136-.832c1.345-.454 2.699-.925 4.025-1.402a.427.427 0 0 1 .289.805c-1.33.478-2.691.951-4.042 1.407a.46.46 0 0 1-.136.022Zm-87.81-2.313a.426.426 0 0 1-.38-.621c.582-1.148 1.427-2.348 2.51-3.566a.428.428 0 0 1 .639.568c-1.035 1.162-1.838 2.301-2.388 3.385a.428.428 0 0 1-.381.234Zm95.847-.578a.428.428 0 0 1-.154-.826c1.337-.513 2.67-1.042 3.961-1.571a.426.426 0 1 1 .324.789 181.273 181.273 0 0 1-3.979 1.579.406.406 0 0 1-.152.029Zm7.901-3.245a.427.427 0 0 1-.173-.818c1.32-.58 2.624-1.176 3.875-1.768a.426.426 0 1 1 .366.771 149.572 149.572 0 0 1-3.897 1.779.414.414 0 0 1-.171.036Zm-98.234-2.622a.427.427 0 0 1-.278-.752 49.763 49.763 0 0 1 3.399-2.644.427.427 0 1 1 .497.695 49.076 49.076 0 0 0-3.34 2.599.429.429 0 0 1-.278.102Zm105.949-1.04a.427.427 0 0 1-.196-.807 111.211 111.211 0 0 0 3.747-2.015.426.426 0 1 1 .419.744c-1.201.676-2.471 1.36-3.775 2.03a.425.425 0 0 1-.195.047Zm-99.027-3.953a.428.428 0 0 1-.228-.789 91.812 91.812 0 0 1 3.693-2.188.427.427 0 1 1 .418.745 91.415 91.415 0 0 0-3.657 2.167.425.425 0 0 1-.226.065Zm106.459-.25a.427.427 0 0 1-.227-.79 69.206 69.206 0 0 0 3.526-2.36.427.427 0 0 1 .498.694 69.87 69.87 0 0 1-3.571 2.39.424.424 0 0 1-.226.065Zm-99.02-3.948a.427.427 0 0 1-.196-.806 132.79 132.79 0 0 1 3.844-1.895.427.427 0 1 1 .365.772 134.118 134.118 0 0 0-3.82 1.882.421.421 0 0 1-.193.047Zm105.934-1.055a.427.427 0 0 1-.278-.751c.427-.366.836-.734 1.216-1.092a28.16 28.16 0 0 0 1.799-1.844.425.425 0 0 1 .602-.036.426.426 0 0 1 .037.603 28.972 28.972 0 0 1-1.853 1.9c-.389.367-.808.743-1.245 1.117a.427.427 0 0 1-.278.103Zm5.49-6.47a.428.428 0 0 1-.382-.617c.203-.41.373-.818.506-1.216.277-.798.416-1.572.416-2.303a5.8 5.8 0 0 0-.012-.375.427.427 0 0 1 .852-.057c.009.143.014.287.014.432 0 .826-.155 1.694-.461 2.578-.144.43-.329.876-.55 1.32a.427.427 0 0 1-.383.238Zm-.656-7.836a.424.424 0 0 1-.321-.146c-.786-.895-1.893-1.706-3.291-2.41a.426.426 0 1 1 .384-.762c1.497.753 2.69 1.631 3.549 2.609a.427.427 0 0 1-.321.709Zm-7.404-4.025a.418.418 0 0 1-.118-.017 39.044 39.044 0 0 0-4.118-.928.427.427 0 0 1 .146-.842 39.79 39.79 0 0 1 4.208.95.427.427 0 0 1-.118.837Zm-8.394-1.505c-.015 0-.028 0-.043-.002a78.2 78.2 0 0 0-4.235-.296.427.427 0 0 1-.408-.445.44.44 0 0 1 .445-.408c1.484.065 2.924.165 4.283.3a.427.427 0 0 1-.042.851Zm-12.798-.312a.427.427 0 0 1-.015-.853c1.436-.051 2.855-.077 4.218-.077h.065a.427.427 0 0 1 0 .854h-.065c-1.353 0-2.762.025-4.188.076h-.015Z"/>
    <path fill="#BA68C8" d="M19.136 96.361a4.902 4.902 0 1 1 2.025 9.592 4.902 4.902 0 0 1-2.025-9.592Z"/>
    <path fill="#fff" d="M19.136 96.361a4.902 4.902 0 1 1 2.025 9.592 4.902 4.902 0 0 1-2.025-9.592Z" opacity=".2"/>
    <path fill="#fff" d="M23.234 102.18c-.755 2.466-3.295 3.607-5.75 3.092a4.903 4.903 0 0 0 7.46-5.128 4.9 4.9 0 0 0-3.788-3.782c1.303.4 2.88 3.198 2.078 5.818Z" opacity=".15"/>
    <path fill="#BA68C8" d="M112.903 51.441a4.902 4.902 0 1 0-9.058-3.751 4.902 4.902 0 0 0 9.058 3.751Z"/>
    <path fill="#fff" d="M112.903 51.441a4.902 4.902 0 1 0-9.058-3.751 4.902 4.902 0 0 0 9.058 3.751Z" opacity=".5"/>
    <path fill="#fff" d="M106.733 52.375c-2.257-1.248-2.849-3.969-1.837-6.265a4.902 4.902 0 1 0 7.959 5.433c-.661 1.193-3.724 2.157-6.122.832Z" opacity=".35"/>
    <path fill="#BA68C8" d="M138.782 118.353a4.903 4.903 0 1 1-6.62-7.234 4.903 4.903 0 0 1 6.62 7.234Z"/>
    <path fill="#fff" d="M138.782 118.353a4.903 4.903 0 1 1-6.62-7.234 4.903 4.903 0 0 1 6.62 7.234Z" opacity=".5"/>
    <path fill="#fff" d="M132.294 115.425c-.604-2.507 1.003-4.781 3.38-5.585a4.901 4.901 0 1 0 1.368 9.539c-1.326.318-4.106-1.29-4.748-3.954Z" opacity=".35"/>
  </g>
  <g filter="url(#b)">
    <path fill="#CF95D8" d="m220.638 72.947-29.881-3.292v14.98c1.277-1.45 3.065-2.557 5.363-3.317 2.299-.76 4.789-.992 7.47-.697 4.789.528 8.747 2.194 11.876 5 3.192 2.812 5.523 6.253 6.991 10.323 1.469 4.07 2.203 8.384 2.203 12.944 0 8.467-2.107 14.965-6.321 19.495-4.214 4.457-10.152 6.263-17.813 5.419-5.108-.563-9.546-2.029-13.313-4.398-3.767-2.441-6.672-5.547-8.715-9.318-2.043-3.772-3.16-7.984-3.352-12.637l15.994 1.762c.383 2.286 1.309 4.27 2.777 5.951 1.469 1.609 3.48 2.555 6.034 2.836 3.001.331 5.235-.509 6.704-2.518 1.468-2.009 2.203-4.823 2.203-8.442 0-3.546-.766-6.344-2.299-8.395-1.532-2.05-3.767-3.237-6.704-3.56-2.171-.24-3.958.178-5.363 1.254-1.405 1.003-2.331 2.457-2.777 4.362l-15.803-1.741V51.736l44.726 4.927v16.284ZM233.7 96.748c0-12.448 2.107-22.022 6.321-28.722 4.278-6.694 11.141-9.52 20.591-8.479 9.449 1.041 16.281 5.376 20.495 13.005 4.278 7.636 6.417 17.678 6.417 30.126 0 12.592-2.139 22.235-6.417 28.928-4.214 6.701-11.046 9.531-20.495 8.49-9.45-1.041-16.313-5.38-20.591-13.016-4.214-7.629-6.321-17.739-6.321-30.332Zm37.734 4.157c0-7.31-.702-12.996-2.107-17.058-1.404-4.135-4.31-6.446-8.715-6.93-4.406-.486-7.311 1.184-8.715 5.01-1.405 3.753-2.107 9.284-2.107 16.594 0 4.921.255 9.038.766 12.351.511 3.24 1.532 5.958 3.065 8.154 1.596 2.129 3.926 3.363 6.991 3.701 3.065.337 5.363-.386 6.896-2.172 1.596-1.85 2.649-4.339 3.16-7.468.511-3.2.766-7.261.766-12.182Zm24.742 2.726c0-12.448 2.107-22.022 6.321-28.723 4.278-6.693 11.141-9.52 20.591-8.478 9.449 1.04 16.281 5.376 20.495 13.005C347.861 87.07 350 97.112 350 109.56c0 12.593-2.139 22.236-6.417 28.929-4.214 6.7-11.046 9.53-20.495 8.489-9.45-1.041-16.313-5.379-20.591-13.015-4.214-7.629-6.321-17.74-6.321-30.332Zm37.734 4.157c0-7.31-.702-12.996-2.107-17.059-1.404-4.135-4.31-6.445-8.715-6.93-4.406-.486-7.311 1.184-8.715 5.01-1.405 3.753-2.107 9.285-2.107 16.594 0 4.921.255 9.038.766 12.351.511 3.241 1.532 5.959 3.065 8.154 1.596 2.13 3.926 3.364 6.991 3.701 3.065.338 5.363-.386 6.896-2.171 1.596-1.851 2.649-4.34 3.16-7.468.511-3.2.766-7.261.766-12.182Z"/>
    <path fill="#BA68C8" fill-rule="evenodd" stroke="#734D7A" stroke-linejoin="round" stroke-width=".3" d="m214.494 74.977-29.881-3.292 6.144-2.03 29.881 3.291-6.144 2.03Z" clip-rule="evenodd"/>
    <path fill="#BA68C8" fill-rule="evenodd" stroke="#734D7A" stroke-linejoin="round" stroke-width=".3" d="M184.613 71.685v14.98l6.144-2.03v-14.98l-6.144 2.03Z" clip-rule="evenodd"/>
    <path fill="#BA68C8" fill-rule="evenodd" stroke="#734D7A" stroke-linejoin="round" stroke-width=".3" d="M184.613 86.666c1.277-1.452 3.065-2.557 5.364-3.317l6.143-2.03c-2.298.76-4.086 1.865-5.363 3.316l-6.144 2.03Z" clip-rule="evenodd"/>
    <path fill="#BA68C8" fill-rule="evenodd" stroke="#734D7A" stroke-linejoin="round" stroke-width=".3" d="M189.977 83.349c2.298-.76 4.788-.993 7.47-.697 4.788.528 8.747 2.194 11.875 5 3.193 2.811 5.523 6.252 6.992 10.322 1.468 4.07 2.203 8.385 2.203 12.944 0 8.467-2.107 14.966-6.321 19.495a17.106 17.106 0 0 1-6.564 4.344l6.144-2.031a17.089 17.089 0 0 0 6.563-4.343c4.214-4.53 6.321-11.028 6.321-19.496 0-4.559-.734-8.873-2.202-12.943-1.469-4.07-3.799-7.511-6.992-10.323-3.128-2.806-7.087-4.472-11.875-5-2.682-.295-5.172-.063-7.471.697l-6.143 2.03Z" clip-rule="evenodd"/>
    <path fill="#BA68C8" fill-rule="evenodd" stroke="#734D7A" stroke-linejoin="round" stroke-width=".3" d="M205.632 134.757c-3.209 1.19-6.959 1.548-11.25 1.076-5.108-.563-9.545-2.029-13.312-4.398-3.767-2.441-6.672-5.548-8.716-9.319-2.043-3.771-3.16-7.983-3.352-12.636l6.144-2.03c.192 4.652 1.309 8.864 3.352 12.636 2.043 3.771 4.948 6.877 8.715 9.319 3.767 2.369 8.205 3.834 13.313 4.397 4.29.473 8.04.114 11.25-1.075l-6.144 2.03Z" clip-rule="evenodd"/>
    <path fill="#BA68C8" fill-rule="evenodd" stroke="#734D7A" stroke-linejoin="round" stroke-width=".3" d="m169.002 109.48 15.994 1.762c.383 2.286 1.309 4.269 2.778 5.951 1.468 1.609 3.479 2.554 6.033 2.836 1.321.145 2.493.064 3.516-.243l6.144-2.031c-1.023.308-2.196.389-3.516.243-2.554-.281-4.565-1.226-6.034-2.836-1.468-1.681-2.394-3.665-2.777-5.95l-15.994-1.762-6.144 2.03Z" clip-rule="evenodd"/>
    <path fill="#BA68C8" fill-rule="evenodd" stroke="#734D7A" stroke-linejoin="round" stroke-width=".3" d="M197.323 119.786c1.303-.392 2.366-1.15 3.188-2.275 1.469-2.01 2.203-4.824 2.203-8.442 0-3.546-.766-6.345-2.298-8.395-1.533-2.05-3.767-3.238-6.704-3.561-1.303-.144-2.468-.05-3.494.28l6.144-2.031c1.026-.33 2.191-.423 3.493-.28 2.937.324 5.172 1.51 6.704 3.561 1.533 2.051 2.299 4.849 2.299 8.395 0 3.619-.734 6.433-2.203 8.442-.822 1.125-1.885 1.884-3.188 2.275l-6.144 2.031Z" clip-rule="evenodd"/>
    <path fill="#BA68C8" fill-rule="evenodd" stroke="#734D7A" stroke-linejoin="round" stroke-width=".3" d="M190.218 97.392a6.142 6.142 0 0 0-1.869.975c-1.405 1.004-2.331 2.458-2.778 4.362l6.144-2.03c.447-1.905 1.373-3.359 2.777-4.362a6.136 6.136 0 0 1 1.87-.975l-6.144 2.03Z" clip-rule="evenodd"/>
    <path fill="#BA68C8" fill-rule="evenodd" stroke="#734D7A" stroke-linejoin="round" stroke-width=".3" d="m185.571 102.729-15.802-1.741V53.766l6.143-2.03v47.222l15.803 1.741-6.144 2.03Z" clip-rule="evenodd"/>
    <path fill="#BA68C8" fill-rule="evenodd" stroke="#734D7A" stroke-linejoin="round" stroke-width=".3" d="m169.769 53.766 44.725 4.927v16.284l6.144-2.03V56.662l-44.726-4.927-6.143 2.03Zm72.879 8.985c3.345-1.282 7.285-1.673 11.82-1.174 9.45 1.041 16.281 5.376 20.495 13.005 4.278 7.636 6.417 17.678 6.417 30.126 0 12.592-2.139 22.235-6.417 28.929-2.359 3.752-5.54 6.29-9.542 7.615l6.144-2.031c4.002-1.324 7.182-3.862 9.542-7.615 4.278-6.693 6.417-16.336 6.417-28.929 0-12.447-2.139-22.49-6.417-30.125-4.214-7.63-11.045-11.964-20.495-13.005-4.536-.5-8.476-.108-11.82 1.174l-6.144 2.03Z" clip-rule="evenodd"/>
    <path fill="#BA68C8" fill-rule="evenodd" stroke="#734D7A" stroke-linejoin="round" stroke-width=".3" d="M265.421 141.252c-3.144 1.041-6.795 1.332-10.952.874-9.45-1.041-16.314-5.38-20.591-13.015-4.214-7.629-6.321-17.74-6.321-30.333 0-12.447 2.107-22.021 6.321-28.722 2.224-3.48 5.148-5.915 8.771-7.305l6.143-2.03c-3.623 1.39-6.546 3.824-8.771 7.305-4.214 6.7-6.321 16.274-6.321 28.722 0 12.592 2.107 22.703 6.321 30.332 4.278 7.636 11.142 11.975 20.591 13.016 4.158.458 7.809.166 10.953-.875l-6.144 2.031Z" clip-rule="evenodd"/>
    <path fill="#BA68C8" fill-rule="evenodd" stroke="#734D7A" stroke-linejoin="round" stroke-width=".3" d="M250.294 79.26c-2.128.683-3.642 2.249-4.541 4.697-1.404 3.753-2.107 9.285-2.107 16.594 0 4.921.256 9.038.767 12.351.51 3.241 1.532 5.959 3.064 8.154 1.597 2.13 3.927 3.364 6.992 3.701 1.471.162 2.765.08 3.883-.247l6.144-2.031c-1.118.327-2.412.41-3.884.248-3.064-.338-5.395-1.572-6.991-3.701-1.532-2.196-2.554-4.913-3.065-8.154-.51-3.313-.766-7.43-.766-12.351 0-7.31.703-12.841 2.107-16.594.899-2.449 2.413-4.014 4.541-4.697l-6.144 2.03Z" clip-rule="evenodd"/>
    <path fill="#BA68C8" fill-rule="evenodd" stroke="#734D7A" stroke-linejoin="round" stroke-width=".3" d="M258.352 124.509c1.211-.354 2.215-.995 3.012-1.923 1.596-1.851 2.65-4.34 3.161-7.468.51-3.201.766-7.262.766-12.183 0-7.31-.703-12.995-2.107-17.058-1.405-4.135-4.31-6.445-8.715-6.93-1.586-.175-2.978-.07-4.175.313l6.144-2.03c1.197-.384 2.588-.489 4.174-.314 4.406.485 7.311 2.795 8.716 6.93 1.404 4.063 2.107 9.75 2.107 17.059 0 4.921-.256 8.982-.767 12.182-.51 3.128-1.564 5.618-3.16 7.468-.797.928-1.801 1.57-3.012 1.924l-6.144 2.03Zm46.772-54.875c3.344-1.282 7.284-1.674 11.82-1.174 9.449 1.04 16.281 5.376 20.495 13.005 4.278 7.636 6.417 17.677 6.417 30.125 0 12.593-2.139 22.236-6.417 28.929-2.36 3.752-5.54 6.291-9.542 7.615l6.144-2.03c4.001-1.325 7.182-3.863 9.542-7.615 4.278-6.694 6.417-16.337 6.417-28.929 0-12.448-2.139-22.49-6.417-30.126-4.214-7.629-11.046-11.964-20.495-13.005-4.536-.5-8.476-.108-11.82 1.174l-6.144 2.03Z" clip-rule="evenodd"/>
    <path fill="#BA68C8" fill-rule="evenodd" stroke="#734D7A" stroke-linejoin="round" stroke-width=".3" d="M327.897 148.134c-3.144 1.041-6.795 1.332-10.953.874-9.449-1.041-16.313-5.379-20.591-13.015-4.214-7.629-6.321-17.74-6.321-30.332 0-12.448 2.107-22.022 6.321-28.722 2.225-3.481 5.148-5.916 8.771-7.305l6.144-2.03c-3.623 1.389-6.547 3.823-8.771 7.304-4.214 6.7-6.321 16.275-6.321 28.722 0 12.593 2.107 22.704 6.321 30.333 4.278 7.635 11.141 11.974 20.591 13.015 4.158.458 7.809.167 10.953-.874l-6.144 2.03Z" clip-rule="evenodd"/>
    <path fill="#BA68C8" fill-rule="evenodd" stroke="#734D7A" stroke-linejoin="round" stroke-width=".3" d="M312.77 86.143c-2.128.683-3.642 2.248-4.541 4.697-1.405 3.753-2.107 9.284-2.107 16.594 0 4.921.255 9.038.766 12.351.511 3.24 1.533 5.958 3.065 8.154 1.596 2.129 3.927 3.363 6.991 3.701 1.471.162 2.766.079 3.884-.248l6.144-2.03c-1.118.327-2.413.409-3.884.247-3.065-.337-5.395-1.571-6.991-3.701-1.533-2.195-2.554-4.913-3.065-8.154-.511-3.313-.766-7.43-.766-12.351 0-7.31.702-12.84 2.107-16.594.899-2.448 2.412-4.014 4.54-4.697l-6.143 2.031Z" clip-rule="evenodd"/>
    <path fill="#BA68C8" fill-rule="evenodd" stroke="#734D7A" stroke-linejoin="round" stroke-width=".3" d="M320.828 131.392c1.211-.354 2.215-.995 3.012-1.924 1.596-1.85 2.65-4.339 3.161-7.467.51-3.201.766-7.262.766-12.183 0-7.309-.703-12.995-2.107-17.058-1.405-4.135-4.31-6.446-8.715-6.93-1.586-.175-2.978-.07-4.175.313l6.144-2.03c1.197-.384 2.588-.489 4.174-.314 4.406.485 7.311 2.795 8.716 6.93 1.404 4.063 2.107 9.749 2.107 17.059 0 4.921-.256 8.982-.767 12.182-.51 3.128-1.564 5.617-3.16 7.468-.797.928-1.801 1.57-3.012 1.924l-6.144 2.03Z" clip-rule="evenodd"/>
    <path fill="#CF95D8" d="m214.494 74.977-29.881-3.292v14.98c1.277-1.45 3.065-2.556 5.363-3.316 2.299-.76 4.789-.993 7.471-.697 4.788.527 8.747 2.194 11.875 5 3.193 2.811 5.523 6.252 6.992 10.322 1.468 4.07 2.202 8.385 2.202 12.944 0 8.467-2.106 14.966-6.32 19.495-4.214 4.457-10.152 6.263-17.814 5.419-5.108-.562-9.545-2.028-13.312-4.397-3.767-2.442-6.672-5.548-8.716-9.319-2.043-3.771-3.16-7.983-3.352-12.636l15.994 1.762c.383 2.285 1.309 4.269 2.778 5.951 1.468 1.609 3.479 2.554 6.033 2.835 3.001.331 5.236-.508 6.704-2.518 1.469-2.009 2.203-4.823 2.203-8.441 0-3.547-.766-6.345-2.298-8.395-1.533-2.05-3.767-3.238-6.704-3.561-2.171-.24-3.959.179-5.364 1.254-1.404 1.003-2.33 2.457-2.777 4.362l-15.802-1.741V53.767l44.725 4.927v16.283Zm13.063 23.801c0-12.447 2.106-22.021 6.32-28.722 4.278-6.693 11.142-9.52 20.591-8.478 9.45 1.04 16.281 5.376 20.495 13.004 4.278 7.636 6.417 17.678 6.417 30.126 0 12.592-2.139 22.235-6.417 28.929-4.214 6.7-11.045 9.53-20.495 8.489-9.449-1.041-16.313-5.379-20.591-13.015-4.214-7.629-6.32-17.74-6.32-30.332Zm37.734 4.157c0-7.309-.703-12.995-2.107-17.058-1.405-4.135-4.31-6.445-8.716-6.93-4.405-.486-7.31 1.184-8.715 5.01-1.405 3.753-2.107 9.285-2.107 16.594 0 4.921.256 9.038.766 12.351.511 3.241 1.533 5.959 3.065 8.154 1.596 2.13 3.927 3.363 6.991 3.701 3.065.338 5.364-.386 6.896-2.171 1.596-1.851 2.65-4.34 3.16-7.468.511-3.201.767-7.261.767-12.183Zm24.742 2.726c0-12.448 2.107-22.022 6.32-28.722 4.278-6.694 11.142-9.52 20.591-8.479 9.45 1.041 16.282 5.376 20.496 13.005 4.277 7.636 6.416 17.678 6.416 30.126 0 12.592-2.139 22.235-6.416 28.928-4.214 6.701-11.046 9.531-20.496 8.49-9.449-1.041-16.313-5.38-20.591-13.016-4.213-7.629-6.32-17.739-6.32-30.332Zm37.734 4.157c0-7.309-.703-12.995-2.107-17.058-1.405-4.135-4.31-6.446-8.716-6.93-4.405-.486-7.31 1.184-8.715 5.01-1.404 3.753-2.107 9.284-2.107 16.594 0 4.921.256 9.038.766 12.351.511 3.24 1.533 5.958 3.065 8.153 1.596 2.13 3.927 3.364 6.991 3.702 3.065.337 5.364-.386 6.896-2.172 1.596-1.85 2.65-4.34 3.16-7.468.511-3.2.767-7.261.767-12.182Z"/>
  </g>
  <defs>
    <clipPath id="a">
      <path fill="#fff" d="M0 0h238.627v238.626H0z"/>
    </clipPath>
    <filter id="b" width="191.297" height="107.783" x="168.853" y="51.586" color-interpolation-filters="sRGB" filterUnits="userSpaceOnUse">
      <feFlood flood-opacity="0" result="BackgroundImageFix"/>
      <feColorMatrix in="SourceAlpha" result="hardAlpha" values="0 0 0 0 0 0 0 0 0 0 0 0 0 0 0 0 0 0 127 0"/>
      <feOffset dx="10" dy="10"/>
      <feComposite in2="hardAlpha" operator="out"/>
      <feColorMatrix values="0 0 0 0 0.14902 0 0 0 0 0.196078 0 0 0 0 0.219608 0 0 0 1 0"/>
      <feBlend in2="BackgroundImageFix" result="effect1_dropShadow_11_4856"/>
      <feBlend in="SourceGraphic" in2="effect1_dropShadow_11_4856" result="shape"/>
    </filter>
  </defs>
</svg>
