<svg width="20" height="20" viewBox="0 0 20 20" fill="none" xmlns="http://www.w3.org/2000/svg">
<g clip-path="url(#clip0_6_463)">
<g clip-path="url(#clip1_6_463)">
<path d="M4.16669 12.5H3.33335C2.89133 12.5 2.4674 12.3244 2.15484 12.0119C1.84228 11.6993 1.66669 11.2754 1.66669 10.8334V3.33335C1.66669 2.89133 1.84228 2.4674 2.15484 2.15484C2.4674 1.84228 2.89133 1.66669 3.33335 1.66669H10.8334C11.2754 1.66669 11.6993 1.84228 12.0119 2.15484C12.3244 2.4674 12.5 2.89133 12.5 3.33335V4.16669M9.16669 7.50002H16.6667C17.5872 7.50002 18.3334 8.24621 18.3334 9.16669V16.6667C18.3334 17.5872 17.5872 18.3334 16.6667 18.3334H9.16669C8.24621 18.3334 7.50002 17.5872 7.50002 16.6667V9.16669C7.50002 8.24621 8.24621 7.50002 9.16669 7.50002Z" stroke="white" stroke-width="2" stroke-linecap="round" stroke-linejoin="round"/>
</g>
</g>
<defs>
<clipPath id="clip0_6_463">
<rect width="20" height="20" fill="white"/>
</clipPath>
<clipPath id="clip1_6_463">
<rect width="20" height="20" fill="white"/>
</clipPath>
</defs>
</svg>
